<svg width="86" height="86" fill="none" xmlns="http://www.w3.org/2000/svg"><path d="M63.29 7.693l-39.102.504a1.81 1.81 0 00-1.546.924L3.443 43.471a1.817 1.817 0 00.017 1.78l19.921 33.846c.32.554.924.89 1.563.873l39.103-.504a1.81 1.81 0 001.545-.923l19.182-34.35a1.816 1.816 0 00-.017-1.78L64.853 8.583a1.825 1.825 0 00-1.562-.89zm.471 69.523l-38.566.487L5.543 44.327l18.93-33.862 38.566-.487.319.537.067-.537-.067.537L82.69 43.336l-18.93 33.88zm-46.779-1.243l-9.24-15.655a1.147 1.147 0 00-.974-.554c-.202 0-.403.05-.571.15a1.143 1.143 0 00-.403 1.546l9.221 15.655c.303.52.958.705 1.495.437l.05-.034c.555-.32.723-1.008.42-1.545zM2.015 54.237l.807 1.63c.134.269.37.47.655.57.285.102.588.068.856-.066.269-.135.47-.37.571-.655a1.085 1.085 0 00-.067-.857l-.823-1.63a1.129 1.129 0 00-.655-.554 1.278 1.278 0 00-.353-.05c-.184 0-.352.05-.52.118a1.14 1.14 0 00-.47 1.494z" fill="#7AAEBC"/><path d="M54.053 38.868c-.017-.033-.017-.05-.034-.084-.017-.05-.033-.084-.05-.134-.017-.034-.034-.05-.068-.084-.016-.034-.05-.067-.083-.1-.034-.018-.05-.051-.084-.068-.034-.034-.068-.05-.084-.067l-9.205-5.526a.94.94 0 00-.94 0l-9.239 5.51c-.034.016-.067.05-.1.066a.364.364 0 00-.085.067c-.033.034-.05.068-.084.101-.017.034-.05.05-.067.084-.017.05-.033.084-.05.135-.017.033-.017.05-.034.084-.017.084-.033.15-.033.235v9.204c0 .32.167.622.453.79l9.205 5.526h.033c.05.017.101.05.152.067.016 0 .033.017.067.034.15.05.319.05.487 0 .017 0 .05-.017.067-.034.05-.017.1-.033.151-.067h.034l9.204-5.526a.954.954 0 00.454-.79v-9.204c-.05-.068-.05-.135-.067-.219zM43.94 34.652l2.822 1.697-7.424 4.451-2.822-1.697 7.424-4.45zm-.907 17.57l-7.374-4.418V40.75l7.374 4.417v7.055zm.907-8.667l-2.822-1.697 7.424-4.451 2.822 1.697-7.424 4.45zm8.298 4.233l-7.374 4.417V45.15l7.374-4.417v7.055zM44.68 16.46a.958.958 0 00-1.344-.134c-.05.034-.084.084-.134.135l-2.755 3.678 1.478 1.109 1.109-1.478v7.374h1.848V19.77l1.108 1.478 1.478-1.109-2.788-3.678zm1.293 49.72l-1.109 1.478v-7.374h-1.848v7.374l-1.108-1.478-1.478 1.108 2.754 3.679a.932.932 0 001.294.185.963.963 0 00.184-.185l2.755-3.678-1.444-1.11zM44.88 28.975h-1.847v1.847h1.848v-1.847zm0 27.63h-1.847v1.848h1.848v-1.848zM27.379 42.799h-7.374l1.478-1.109-1.108-1.478-3.679 2.755a.932.932 0 00-.185 1.293c.05.067.118.134.185.185l3.679 2.754 1.108-1.478-1.478-1.108h7.374v-1.814zm44.008.352a.965.965 0 00-.185-.184l-3.678-2.755-1.109 1.478 1.478 1.109H60.52v1.847h7.373l-1.478 1.109 1.109 1.478 3.678-2.755a.975.975 0 00.185-1.327zm-40.329-.352H29.21v1.848h1.848v-1.848zm27.63 0h-1.847v1.848h1.847v-1.848zM32.871 31.343l-5.207-5.207 1.814.252.27-1.83-4.553-.656a.914.914 0 00-1.041.773.723.723 0 000 .268l.655 4.552 1.83-.268-.251-1.814 5.207 5.207 1.276-1.277zm30.873 31.124l-.655-4.552-1.83.269.251 1.814-5.207-5.207-1.31 1.31 5.207 5.207-1.814-.269-.269 1.831 4.552.655c.05 0 .084.017.135.017.504 0 .923-.42.923-.924.034-.067.017-.117.017-.15zM34.182 32.64l-1.306 1.306 1.306 1.307 1.306-1.307-1.306-1.306zm19.535 19.535l-1.306 1.306 1.306 1.307 1.307-1.307-1.307-1.306zm-26.052 9.117l5.206-5.207-1.293-1.31-5.207 5.206.252-1.814-1.83-.268-.656 4.552c-.067.504.286.974.773 1.041.05 0 .084.017.134.017s.084 0 .134-.017l4.552-.655-.268-1.83-1.797.285zm35.81-37.122a.957.957 0 00-.79-.268l-4.551.655.269 1.83 1.814-.251-5.207 5.207 1.31 1.31 5.207-5.207-.252 1.814 1.83.269.656-4.552c.017-.303-.067-.588-.286-.806zM34.182 52.175l-1.306 1.306 1.306 1.307 1.306-1.307-1.306-1.306zm19.536-19.533l-1.306 1.306 1.306 1.307 1.307-1.307-1.307-1.306z" fill="#7AAEBC"/></svg>