<svg width="86" height="86" fill="none" xmlns="http://www.w3.org/2000/svg"><path d="M63.29 7.693l-39.102.504a1.81 1.81 0 00-1.546.924L3.443 43.471a1.817 1.817 0 00.017 1.78l19.921 33.846c.32.554.924.89 1.563.873l39.103-.504a1.81 1.81 0 001.545-.923l19.182-34.35a1.816 1.816 0 00-.017-1.78L64.853 8.583a1.825 1.825 0 00-1.562-.89zm.471 69.523l-38.566.487L5.543 44.327l18.93-33.862 38.566-.487.319.537.067-.537-.067.537L82.69 43.336l-18.93 33.88zm-46.779-1.243l-9.24-15.655a1.147 1.147 0 00-.974-.554c-.202 0-.403.05-.571.15a1.143 1.143 0 00-.403 1.546l9.221 15.655c.303.52.958.705 1.495.437l.05-.034c.555-.32.723-1.008.42-1.545zM2.015 54.237l.807 1.63c.134.269.37.47.655.57.285.102.588.068.856-.066.269-.135.47-.37.571-.655a1.085 1.085 0 00-.067-.857l-.823-1.63a1.129 1.129 0 00-.655-.554 1.278 1.278 0 00-.353-.05c-.184 0-.352.05-.52.118a1.14 1.14 0 00-.47 1.494z" fill="#7AAEBC"/><path d="M64.584 25.884H52.759a2.366 2.366 0 00-2.369-2.369h-2.35v-.79a2.366 2.366 0 00-2.369-2.368h-3.157a2.366 2.366 0 00-2.369 2.369v.79h-2.351a2.366 2.366 0 00-2.369 2.368H23.6a3.154 3.154 0 00-3.158 3.157v24.44a3.154 3.154 0 003.158 3.158h2.369v2.368a2.366 2.366 0 002.368 2.368h6.752l-1.159 3.108a2.404 2.404 0 00.269 2.183 2.375 2.375 0 001.949 1.025h2.15c.99 0 1.864-.621 2.217-1.529l1.797-4.77h3.645l1.797 4.77a2.364 2.364 0 002.217 1.529h2.1c.773 0 1.495-.386 1.948-1.025.454-.638.538-1.444.27-2.183l-1.16-3.108h6.752a2.366 2.366 0 002.369-2.368v-2.368h2.368a3.154 3.154 0 003.158-3.158V29.025a3.202 3.202 0 00-3.191-3.141zm-22.861-3.158a.79.79 0 01.79-.79h3.157a.79.79 0 01.79.79v.79h-4.737v-.79zm-4.72 3.158a.79.79 0 01.79-.79h12.614a.79.79 0 01.79.79v3.947a.79.79 0 01-.79.79H37.793a.789.789 0 01-.79-.79v-3.947zm2.016 39.69a.785.785 0 01-.74.505h-2.15a.844.844 0 01-.654-.336.746.746 0 01-.084-.723l1.377-3.661h3.83l-1.58 4.216zm13.79-.554a.84.84 0 01-.084.723.775.775 0 01-.655.336h-2.15a.785.785 0 01-.74-.504l-1.578-4.216h3.83l1.377 3.661zm7.844-6.03a.79.79 0 01-.79.79H28.337a.789.789 0 01-.79-.79v-2.368h33.107v2.368zm5.51-5.526c0 .873-.706 1.579-1.58 1.579H23.6a1.577 1.577 0 01-1.579-1.579v-24.44c0-.873.706-1.578 1.58-1.578h11.824v2.368a2.366 2.366 0 002.369 2.368h12.614a2.366 2.366 0 002.368-2.368v-2.368H64.6c.874 0 1.58.705 1.58 1.579v24.44h-.018z" fill="#7AAEBC"/><path d="M63.022 29.024h-7.878a.788.788 0 100 1.58h7.878v12.295c-2.856 3.191-9.138 1.159-9.205 1.142a.794.794 0 00-.806.185.76.76 0 00-.185.806c1.226 3.678-2.553 6.299-3.41 6.853H25.18V30.603h7.877a.788.788 0 100-1.579H25.18c-.874 0-1.58.706-1.58 1.58v21.281c0 .873.706 1.579 1.58 1.579h24.439c14.815 0 14.983-10.145 14.983-10.246V30.603c-.017-.873-.722-1.579-1.58-1.579zM52.07 51.784c1.462-1.41 2.772-3.477 2.52-5.895 1.864.42 5.341.873 8.012-.639-.806 2.318-3.242 5.88-10.532 6.534z" fill="#7AAEBC"/><path d="M29.108 35.34h-.79a.789.789 0 100 1.579h.79a.789.789 0 100-1.58zm2.369.79c0 .436.352.789.789.789h8.667a.789.789 0 100-1.58h-8.667a.789.789 0 00-.79.79zm-2.369 2.351h-.79a.789.789 0 100 1.58h.79a.789.789 0 100-1.58zm11.825 0h-8.667a.789.789 0 100 1.58h8.667a.789.789 0 100-1.58zm-11.825 3.158h-.79a.788.788 0 100 1.579h.79a.789.789 0 100-1.58zm11.825 0h-8.667a.788.788 0 100 1.579h8.667a.789.789 0 100-1.58z" fill="#7AAEBC"/></svg>