<svg width="86" height="86" fill="none" xmlns="http://www.w3.org/2000/svg"><path d="M63.29 7.693l-39.102.504a1.81 1.81 0 00-1.546.924L3.443 43.471a1.817 1.817 0 00.017 1.78l19.921 33.846c.32.554.924.89 1.563.873l39.103-.504a1.81 1.81 0 001.545-.923l19.182-34.35a1.816 1.816 0 00-.017-1.78L64.853 8.583a1.825 1.825 0 00-1.562-.89zm.471 69.523l-38.566.487L5.543 44.327l18.93-33.862 38.566-.487.319.537.067-.537-.067.537L82.69 43.336l-18.93 33.88zm-46.779-1.243l-9.24-15.655a1.147 1.147 0 00-.974-.554c-.202 0-.403.05-.571.15a1.143 1.143 0 00-.403 1.546l9.221 15.655c.303.52.958.705 1.495.437l.05-.034c.555-.32.723-1.008.42-1.545zM2.016 54.237l.806 1.63c.134.269.37.47.655.57.286.102.588.068.857-.066.269-.135.47-.37.57-.655a1.085 1.085 0 00-.066-.857l-.823-1.63a1.129 1.129 0 00-.655-.554 1.278 1.278 0 00-.353-.05c-.185 0-.353.05-.52.118a1.14 1.14 0 00-.471 1.494z" fill="#7AAEBC"/><path d="M57.95 58.134a.722.722 0 100-1.445.722.722 0 000 1.445z" fill="#7AAEBC"/><path d="M57.227 27.412h8.583V23.13h-8.583c-.655-.857-1.68-1.428-2.839-1.428s-2.183.571-2.838 1.428H34.249c-.303-.823-1.075-1.428-2.016-1.428h-1.427c-1.176 0-2.15.958-2.15 2.15v10.851c-.824.302-1.428 1.075-1.428 2.016v6.433H23.65c-1.176 0-2.15.957-2.15 2.15v18.527c0 1.175.957 2.15 2.15 2.15h39.288v-4.35a3.581 3.581 0 002.855-3.494v-1.428a3.56 3.56 0 00-3.006-3.51c.1-.236.15-.505.15-.773v-9.995c0-1.175-.956-2.15-2.15-2.15H47.939c-1.175 0-2.15.958-2.15 2.15v9.978c0 .252.05.487.135.722h-4.418v-7.86c0-1.177-.957-2.15-2.15-2.15h-3.578v-6.434c0-.924-.604-1.713-1.427-2.016v-7.273h17.166a3.598 3.598 0 002.116 1.36v2.218h-1.73L48.476 34.4l2.368 4.753 1.277-.638-1.915-3.83 2.284-2.284h1.126v6.433h1.427v-6.416h1.126l2.284 2.284-1.848 3.813 1.277.638L60.25 34.4l-3.426-3.427h-1.73v-2.217c.873-.168 1.612-.672 2.133-1.344zm7.155-2.855v1.427h-6.5a3.4 3.4 0 00.067-.722 3.4 3.4 0 00-.067-.722h6.5v.017zm-33.56-1.428h1.428c.386 0 .722.319.722.722v10.717h-2.855V23.85a.693.693 0 01.705-.722zM41.404 64.55a2.04 2.04 0 00.135-.722v-2.15h20.005v2.855l-20.14.017zm16.545-5.005a2.154 2.154 0 01-2.15-2.15 2.14 2.14 0 012.15-2.134c1.176 0 2.15.958 2.15 2.15a2.13 2.13 0 01-2.15 2.133zm-2.133-6.417h-2.855v-2.587l1.427.47 1.428-.47v2.587zm.017 1.428a3.554 3.554 0 00-1.445 2.855c0 1.176.571 2.2 1.445 2.856h-2.906a3.554 3.554 0 001.444-2.856c0-1.175-.57-2.2-1.444-2.855h2.906zm-5.023.705c1.176 0 2.15.958 2.15 2.15 0 1.193-.957 2.15-2.15 2.15a2.143 2.143 0 01-2.15-2.15c0-1.192.975-2.15 2.15-2.15zm-3.56 2.15c0 1.176.57 2.2 1.444 2.856h-5.761a3.554 3.554 0 001.444-2.856c0-1.175-.57-2.2-1.444-2.855h5.762a3.53 3.53 0 00-1.445 2.855zm-4.3 0c0 .924-.605 1.714-1.428 2.016v-4.014a2.09 2.09 0 011.428 1.998zm21.432-.722v1.428c0 1.176-.957 2.15-2.15 2.15h-2.166a3.554 3.554 0 001.444-2.856c0-1.175-.57-2.2-1.444-2.855h2.166a2.14 2.14 0 012.15 2.133zm-11.422-15h2.856v2.587l-1.428-.47-1.427.47V41.69zm-5.71 10.717v-9.994c0-.387.319-.722.722-.722h3.578v4.568l2.855-.957 2.855.957V41.69h3.545c.386 0 .722.32.722.723v9.994c0 .386-.32.722-.722.722h-3.578V48.56l-2.855.958-2.856-.958v4.57h-3.578c-.37 0-.688-.32-.688-.723zm-7.156-7.139v18.56a.728.728 0 01-.722.723H23.65a.728.728 0 01-.722-.722v-18.56c0-.387.319-.723.722-.723h15.705c.42 0 .74.32.74.722zm-11.422-2.15V41.69h4.284v-1.428h-4.284v-3.578c0-.386.32-.722.723-.722h4.283c.386 0 .722.319.722.722v.722h-4.283v1.428H34.4v4.283h-5.728zm5.711-17.133v-1.427h16.495a3.4 3.4 0 00-.068.722c0 .252.017.487.068.722H34.383v-.017zm17.855-.722c0-1.176.958-2.15 2.15-2.15 1.176 0 2.15.958 2.15 2.15 0 1.193-.957 2.15-2.15 2.15a2.143 2.143 0 01-2.15-2.15z" fill="#7AAEBC"/><path d="M54.388 25.985a.722.722 0 100-1.445.722.722 0 000 1.445zM50.81 58.134a.722.722 0 100-1.445.722.722 0 000 1.445zM38.666 45.973H24.39v8.566h14.277v-8.566zm-1.427 7.155H25.817v-5.71h11.422v5.71zm-8.567 2.855c-1.175 0-2.15.958-2.15 2.15 0 1.176.958 2.15 2.15 2.15 1.193 0 2.15-.957 2.15-2.15 0-1.192-.974-2.15-2.15-2.15zm0 2.856a.728.728 0 01-.722-.722c0-.403.32-.723.723-.723.403 0 .722.32.722.723 0 .403-.32.722-.723.722zm5.711-2.856c-1.175 0-2.15.958-2.15 2.15 0 1.176.958 2.15 2.15 2.15 1.176 0 2.15-.957 2.15-2.15 0-1.192-.957-2.15-2.15-2.15zm0 2.856a.728.728 0 01-.722-.722c0-.403.32-.723.722-.723.403 0 .723.32.723.723 0 .403-.32.722-.723.722zm-7.86 2.855h-1.428v1.428h1.428v-1.428zm2.872 0h-1.428v1.428h1.428v-1.428zm2.855 0h-1.428v1.428h1.428v-1.428zm2.855 0h-1.427v1.428h1.428v-1.428zm2.855 0h-1.427v1.428h1.428v-1.428z" fill="#7AAEBC"/></svg>