<svg width="86" height="86" fill="none" xmlns="http://www.w3.org/2000/svg"><path d="M63.29 7.693l-39.102.504a1.81 1.81 0 00-1.546.924L3.443 43.471a1.817 1.817 0 00.017 1.78l19.921 33.846c.32.554.924.89 1.563.873l39.103-.504a1.81 1.81 0 001.545-.923l19.182-34.35a1.816 1.816 0 00-.017-1.78L64.853 8.583a1.825 1.825 0 00-1.562-.89zm.471 69.523l-38.566.487L5.543 44.327l18.93-33.862 38.566-.487.319.537.067-.537-.067.537L82.69 43.336l-18.93 33.88zm-46.779-1.243l-9.24-15.655a1.147 1.147 0 00-.974-.554c-.202 0-.403.05-.571.15a1.143 1.143 0 00-.403 1.546l9.221 15.655c.303.52.958.705 1.495.437l.05-.034c.555-.32.723-1.008.42-1.545zM2.015 54.237l.807 1.63c.134.269.37.47.655.57.285.102.588.068.856-.066.269-.135.47-.37.571-.655a1.085 1.085 0 00-.067-.857l-.823-1.63a1.129 1.129 0 00-.655-.554 1.278 1.278 0 00-.353-.05c-.184 0-.352.05-.52.118a1.14 1.14 0 00-.47 1.494z" fill="#7AAEBC"/><path d="M48.543 47.115a7.708 7.708 0 001.88-10.75 7.708 7.708 0 00-10.75-1.88 7.708 7.708 0 00-1.88 10.75 7.7 7.7 0 001.88 1.88 8.595 8.595 0 00-7.138 8.45v10.699c0 .42.353.772.773.772h21.584a.78.78 0 00.772-.772v-10.7c0-4.166-3.006-7.726-7.121-8.449zm-10.6-6.299a6.158 6.158 0 016.165-6.164 6.158 6.158 0 016.165 6.164 6.158 6.158 0 01-6.165 6.165 6.158 6.158 0 01-6.164-6.165zm16.193 24.675H34.08v-9.927c0-3.88 3.158-7.038 7.038-7.038h5.963c3.88 0 7.038 3.158 7.038 7.038v9.927h.017zm-9.255-40.095h-1.545v3.091h1.545v-3.09zm8.259 1.903l-2.184 2.185 1.092 1.093 2.186-2.185-1.093-1.093zm10.251 38.192h-3.09v1.546h3.09V65.49zm0-7.71h-3.09v1.546h3.09V57.78zm0-7.71h-3.09v1.546h3.09V50.07zm-1.097-8.159l-2.932.978.489 1.465 2.931-.977-.488-1.466zm-2.386-7.999l-2.931.978.489 1.465 2.931-.977-.489-1.466zM35.083 27.3l-1.093 1.093 2.185 2.185 1.093-1.092-2.185-2.186zm-7.166 38.191h-3.09v1.546h3.09V65.49zm0-7.71h-3.09v1.546h3.09V57.78zm0-7.71h-3.09v1.546h3.09V50.07zm-1.996-8.159l-.488 1.466 2.932.977.488-1.466-2.932-.977zm2.389-7.987l-.489 1.466 2.932.977.49-1.466-2.933-.977zm38.156-10.074a2.323 2.323 0 01-2.318-2.318.782.782 0 00-.773-.772.782.782 0 00-.773.772 2.323 2.323 0 01-2.318 2.318.782.782 0 00-.772.773c0 .42.352.773.772.773a2.323 2.323 0 012.318 2.318c0 .42.353.772.773.772.42 0 .773-.352.773-.772a2.323 2.323 0 012.318-2.318c.42 0 .772-.353.772-.773a.77.77 0 00-.772-.773zm-3.074 1.546a4.206 4.206 0 00-.773-.773 4.19 4.19 0 00.773-.773c.218.286.487.555.773.773a3.743 3.743 0 00-.773.773zm-35.475-1.546a2.323 2.323 0 01-2.318-2.318.782.782 0 00-.773-.772.782.782 0 00-.773.772 2.323 2.323 0 01-2.318 2.318.781.781 0 00-.772.773c0 .42.353.773.772.773a2.323 2.323 0 012.319 2.318c0 .42.352.772.772.772.42 0 .773-.352.773-.772a2.323 2.323 0 012.318-2.318c.42 0 .772-.353.772-.773a.782.782 0 00-.772-.773zm-3.09 1.546a4.206 4.206 0 00-.774-.773 4.16 4.16 0 00.773-.773c.218.286.487.555.773.773a4.206 4.206 0 00-.773.773z" fill="#7AAEBC"/></svg>