<svg width="86" height="86" fill="none" xmlns="http://www.w3.org/2000/svg"><path d="M63.29 7.693l-39.102.504a1.81 1.81 0 00-1.546.924L3.443 43.471a1.817 1.817 0 00.017 1.78l19.921 33.846c.32.554.924.89 1.563.873l39.103-.504a1.81 1.81 0 001.545-.923l19.182-34.35a1.816 1.816 0 00-.017-1.78L64.853 8.583a1.825 1.825 0 00-1.562-.89zm.471 69.523l-38.566.487L5.543 44.327l18.93-33.862 38.566-.487.319.537.067-.537-.067.537L82.69 43.336l-18.93 33.88zm-46.779-1.243l-9.24-15.655a1.147 1.147 0 00-.974-.554c-.202 0-.403.05-.571.15a1.143 1.143 0 00-.403 1.546l9.221 15.655c.303.52.958.705 1.495.437l.05-.034c.555-.32.723-1.008.42-1.545zM2.015 54.237l.807 1.63c.134.269.37.47.655.57.285.102.588.068.856-.066.269-.135.47-.37.571-.655a1.085 1.085 0 00-.067-.857l-.823-1.63a1.129 1.129 0 00-.655-.554 1.278 1.278 0 00-.353-.05c-.184 0-.352.05-.52.118a1.14 1.14 0 00-.47 1.494z" fill="#7AAEBC"/><path d="M58.84 40.85a3.244 3.244 0 00-3.242-3.242h-5.963c1.444-1.629 2.402-3.477 2.586-5.156a3.564 3.564 0 00-.856-2.772c-.605-.672-1.428-1.058-2.318-1.058h-.034a3.23 3.23 0 00-2.284.94 3.215 3.215 0 00-.958 2.285c-.033.185-.37.84-1.175 1.613a9.028 9.028 0 01-3.51 2.049c-.673.218-1.277.621-1.815 1.176-.286.302-.706.705-1.226 1.125a1.8 1.8 0 00-.857-.218h-5.66a1.835 1.835 0 00-1.831 1.83V54.54c0 1.008.823 1.83 1.83 1.83h5.661c.689 0 1.293-.386 1.596-.94h14.462a2.774 2.774 0 002.385-4.182 2.78 2.78 0 001.327-2.369c0-.52-.134-.99-.386-1.41a2.78 2.78 0 001.327-2.37c0-.57-.185-1.125-.487-1.561a3.226 3.226 0 001.427-2.688zm-3.242 1.478h-.47a.896.896 0 00-.891.89c0 .488.403.89.89.89a1.01 1.01 0 011.008 1.009 1.01 1.01 0 01-1.008 1.007h-.94a.896.896 0 00-.89.89c0 .488.403.89.89.89a1.01 1.01 0 011.007 1.009 1.01 1.01 0 01-1.007 1.008h-.941a.896.896 0 00-.89.89c0 .487.403.89.89.89a1.01 1.01 0 011.008 1.008 1.01 1.01 0 01-1.008 1.008H39.019V45.15a.896.896 0 00-.89-.89.896.896 0 00-.89.89v9.44a.072.072 0 01-.068.067h-5.66a.072.072 0 01-.067-.067V39.473c0-.034.033-.067.067-.067h5.66c.034 0 .068.033.068.067v1.848c0 .487.403.89.89.89s.89-.403.89-.89v-2.016a15.97 15.97 0 001.545-1.394c.336-.353.689-.588 1.059-.706 2.082-.672 3.493-1.763 4.3-2.553 1.007-.99 1.612-2.032 1.612-2.771a1.462 1.462 0 011.495-1.462c.504 0 .823.252 1.008.47.319.37.487.89.42 1.395-.202 1.764-1.596 3.93-3.578 5.543-.286.235-.403.638-.286.99a.874.874 0 00.84.589h8.164a1.48 1.48 0 011.478 1.478c0 .823-.672 1.444-1.478 1.444z" fill="#7AAEBC"/><path d="M34.333 50.827a.896.896 0 00-.89.89c0 .488.403.89.89.89s.89-.402.89-.89a.896.896 0 00-.89-.89z" fill="#7AAEBC"/><path d="M70.48 44.16l1.528-4.032c.118-.286.05-.622-.134-.873l-2.688-3.36.202-4.3a.89.89 0 00-.403-.79l-3.595-2.368-1.142-4.149a.892.892 0 00-.622-.621l-4.148-1.142-2.369-3.561a.871.871 0 00-.79-.403l-4.3.201-3.359-2.687a.866.866 0 00-.873-.135l-4.031 1.529-4.032-1.529c-.285-.117-.621-.05-.873.135l-3.36 2.687-4.3-.201a.89.89 0 00-.789.403l-2.368 3.594-4.149 1.143a.892.892 0 00-.622.621l-1.142 4.149-3.594 2.368a.871.871 0 00-.403.79l.201 4.3-2.687 3.36a.866.866 0 00-.135.872l1.529 4.032-1.529 4.031c-.117.286-.05.622.135.873l2.687 3.36-.201 4.3a.89.89 0 00.403.79l3.594 2.368 1.143 4.148a.891.891 0 00.621.622l4.149 1.142 2.368 3.595c.168.268.47.42.79.403l4.3-.202 3.359 2.688a.866.866 0 00.873.134l4.032-1.528 4.031 1.528c.1.034.202.05.32.05a.867.867 0 00.553-.201l3.36-2.688 4.3.202a.89.89 0 00.79-.403l2.368-3.595 4.148-1.142a.892.892 0 00.622-.621l1.142-4.15 3.595-2.367a.871.871 0 00.403-.79l-.202-4.3 2.688-3.36a.866.866 0 00.134-.873L70.48 44.16zm-1.78.318l1.46 3.864-2.586 3.225a.958.958 0 00-.202.587l.202 4.132-3.46 2.268a.853.853 0 00-.37.504l-1.092 3.98-3.98 1.093a.853.853 0 00-.505.37L55.9 67.96l-4.132-.202a.768.768 0 00-.588.201l-3.225 2.587-3.863-1.461a.978.978 0 00-.32-.05.978.978 0 00-.319.05l-3.863 1.461-3.225-2.587a.959.959 0 00-.588-.201l-4.132.201-2.267-3.46a.853.853 0 00-.504-.37l-3.981-1.091-1.092-3.981a.853.853 0 00-.37-.504l-3.443-2.268.202-4.132a.768.768 0 00-.202-.587l-2.587-3.225 1.462-3.864a.799.799 0 000-.621L17.4 39.993l2.587-3.224a.959.959 0 00.202-.588l-.202-4.132 3.46-2.268a.853.853 0 00.37-.504l1.092-3.98 3.98-1.093a.853.853 0 00.504-.37l2.268-3.46 4.132.202c.218.017.42-.05.588-.201l3.225-2.587 3.863 1.461a.8.8 0 00.622 0l3.863-1.46 3.225 2.586a.96.96 0 00.588.201l4.132-.201 2.267 3.46c.118.185.303.32.504.37l3.981 1.091 1.092 3.981c.05.202.185.386.37.504l3.46 2.268-.202 4.132c-.017.218.05.42.202.588l2.586 3.224-1.46 3.864a.983.983 0 000 .621z" fill="#7AAEBC"/><path d="M60.418 28.874c-.218-.235-.453-.47-.672-.705-.235-.236-.47-.454-.705-.672a.877.877 0 00-1.243.05.877.877 0 00.05 1.243c.219.202.437.42.655.622.219.218.42.436.622.655.168.184.42.285.655.285a.911.911 0 00.605-.235c.336-.32.37-.89.033-1.243zm-4.535-3.813c-4.266-2.72-9.406-3.93-14.479-3.41a22.664 22.664 0 00-13.639 6.5 22.54 22.54 0 00-6.6 15.068 22.495 22.495 0 005.273 15.453.886.886 0 001.243.117.88.88 0 00.101-1.243 20.748 20.748 0 01-4.854-14.243 20.813 20.813 0 016.08-13.891 20.874 20.874 0 0112.581-5.997c4.67-.487 9.406.639 13.337 3.141a.892.892 0 001.226-.269.88.88 0 00-.269-1.226zm6.954 6.954a.877.877 0 00-1.226-.268.877.877 0 00-.269 1.226 20.897 20.897 0 013.141 13.336 20.874 20.874 0 01-5.996 12.581 20.735 20.735 0 01-13.891 6.08 20.72 20.72 0 01-14.244-4.854.88.88 0 00-1.243.101.88.88 0 00.1 1.243 22.549 22.549 0 0014.53 5.291c.302 0 .622 0 .924-.017a22.54 22.54 0 0015.067-6.6 22.664 22.664 0 006.5-13.64 22.591 22.591 0 00-3.393-14.479z" fill="#7AAEBC"/></svg>