<svg width="38" height="36" fill="none" xmlns="http://www.w3.org/2000/svg"><path d="M34.81 17.293A30.434 30.434 0 0132 19.769c-.057 3.228-1.41 6.325-3.806 8.707-2.395 2.381-5.666 3.881-9.194 4.217V6.443h.12a8.71 8.71 0 01.88-2.62 18.645 18.645 0 00-2.5-.182c-3.461 0-6.845.934-9.722 2.684-2.878 1.75-5.121 4.238-6.446 7.148a14.603 14.603 0 00-.996 9.203c.676 3.09 2.342 5.927 4.79 8.155 2.447 2.228 5.565 3.744 8.96 4.359a19.1 19.1 0 0010.111-.906c3.198-1.206 5.93-3.247 7.854-5.867C33.974 25.798 35 22.72 35 19.568a15.058 15.058 0 00-.19-2.275zM10.6 7.963c-1.994 3.274-3.05 6.952-3.07 10.695H3.05c.17-2.216.95-4.358 2.27-6.227 1.32-1.87 3.135-3.406 5.28-4.467zM3.15 21.39h4.42c.136 3.431 1.165 6.784 3 9.784-1.989-.992-3.696-2.393-4.984-4.092A12.574 12.574 0 013.15 21.39zM16 32.447c-2.94-1.274-5-6.153-5.41-11.058H16v11.058zm0-13.789h-5.47C10.75 13.461 12.88 8.037 16 6.69v11.968z" fill="#2C3B97"/><path d="M29.37 0c-.3 0-.61 0-.92.046-2.185.266-4.176 1.284-5.561 2.845C21.503 4.45 20.827 6.437 21 8.437c.51 5.325 5.89 9.293 7.73 10.503.171.113.378.174.59.173a1.07 1.07 0 00.62-.19c1.91-1.366 7.78-5.971 7.78-11.296 0-2.018-.879-3.954-2.444-5.383C33.711.814 31.587.007 29.37 0zm0 11.186a4.19 4.19 0 01-2.172-.6 3.654 3.654 0 01-1.44-1.597 3.263 3.263 0 01-.223-2.056 3.47 3.47 0 011.07-1.822 4.043 4.043 0 012.002-.974 4.27 4.27 0 012.26.202c.714.27 1.324.726 1.754 1.311.43.585.659 1.273.659 1.977 0 .944-.412 1.85-1.145 2.516-.733.668-1.728 1.043-2.765 1.043z" fill="#2C3B97"/></svg>