<svg width="18" height="20" fill="none" xmlns="http://www.w3.org/2000/svg"><path d="M9.37 0c-.3 0-.61 0-.92.046C6.265.312 4.274 1.33 2.889 2.89 1.503 4.45.827 6.437 1 8.437c.51 5.325 5.89 9.293 7.73 10.503.172.113.378.174.59.173a1.07 1.07 0 00.62-.19c1.91-1.366 7.78-5.971 7.78-11.296 0-2.018-.879-3.954-2.444-5.383C13.711.814 11.587.007 9.37 0zm0 11.186a4.19 4.19 0 01-2.172-.6 3.654 3.654 0 01-1.44-1.597 3.263 3.263 0 01-.223-2.056 3.47 3.47 0 011.07-1.822 4.043 4.043 0 012.002-.974 4.27 4.27 0 012.26.202c.714.27 1.324.726 1.754 1.311.43.585.659 1.273.659 1.977 0 .944-.412 1.85-1.145 2.516-.733.668-1.728 1.043-2.765 1.043z" fill="#2C3B97"/></svg>