<svg width="37" height="35" fill="none" xmlns="http://www.w3.org/2000/svg"><g clip-path="url(#clip0_146_652)" fill="#fff"><path d="M35.19 9.68L20.66.62a4.13 4.13 0 00-4.36 0L1.77 9.68A3.74 3.74 0 000 12.84v17.7a3.8 3.8 0 003.85 3.75h29.26A3.8 3.8 0 0037 30.54v-17.7a3.74 3.74 0 00-1.81-3.16zm-21.44 15l-9 7a1.25 1.25 0 01-1.54-1.97l9-7a1.262 1.262 0 011.54 2v-.03zm3.54-2.94l-11.4-8.12a1.57 1.57 0 011-2.84h23.23a1.57 1.57 0 01.95 2.84l-11.4 8.07a2 2 0 01-2.38 0v.05zM34 31.41a1.25 1.25 0 01-1 .48 1.23 1.23 0 01-.77-.26l-9-7a1.262 1.262 0 011.54-2l9 7a1.249 1.249 0 01.23 1.78z"/><path d="M23 13.14h-8a1.5 1.5 0 100 3h8a1.5 1.5 0 000-3z"/></g><defs><clipPath id="clip0_146_652"><path fill="#fff" d="M0 0h36.96v34.29H0z"/></clipPath></defs></svg>