<svg width="31" height="31" fill="none" xmlns="http://www.w3.org/2000/svg"><g clip-path="url(#clip0_146_642)" fill="#fff"><path d="M29.28 22.13L25.35 20c-1-.52-1.7-.14-2.53 1-1.81 2.49-2.69 3-4.91 1.74a23.999 23.999 0 01-5.41-4.39 23.922 23.922 0 01-4.4-5.42C6.86 10.71 7.36 9.83 9.85 8c1.13-.82 1.5-1.56 1-2.52L8.72 1.57C7.85-.1 6.63-.29 4.81.32 2.31 1.17-.12 4.79 0 6.5c.36 5 2.87 11 8.1 16.27 5.23 5.27 11.25 7.74 16.27 8.1 1.72.12 5.31-2.33 6.16-4.83.61-1.82.47-3.04-1.25-3.91z"/><path d="M17.52 7a1.5 1.5 0 000 3 3.311 3.311 0 013.33 3.36 1.502 1.502 0 001.49 1.51 1.5 1.5 0 001.5-1.49 6.26 6.26 0 00-1.85-4.53A6.42 6.42 0 0017.52 7zm9-2.57a12.56 12.56 0 00-8.99-3.7A1.51 1.51 0 0016 2.24a1.5 1.5 0 001.5 1.49 9.59 9.59 0 019.59 9.62 1.502 1.502 0 001.49 1.51 1.5 1.5 0 001.5-1.49 12.5 12.5 0 00-3.61-8.95l.05.01z"/></g><defs><clipPath id="clip0_146_642"><path fill="#fff" d="M0 0h30.85v30.87H0z"/></clipPath></defs></svg>