<svg width="73" height="68" fill="none" xmlns="http://www.w3.org/2000/svg"><g clip-path="url(#clip0_146_1357)" fill="#4452EA"><path d="M56.612 45.895a12.32 12.32 0 01-6.842-2.072 12.296 12.296 0 01-4.536-5.516 12.27 12.27 0 012.67-13.395 12.339 12.339 0 0113.422-2.665 12.31 12.31 0 015.526 4.528 12.275 12.275 0 012.076 6.828 12.296 12.296 0 01-3.612 8.687 12.344 12.344 0 01-8.704 3.605zm0-23.13a10.924 10.924 0 00-6.056 1.844 10.892 10.892 0 00-4.01 4.89 10.868 10.868 0 002.375 11.858 10.928 10.928 0 0011.886 2.353A10.905 10.905 0 0065.7 39.7a10.872 10.872 0 001.837-6.047 10.884 10.884 0 00-3.188-7.731 10.925 10.925 0 00-7.737-3.206v.05z" stroke="#4452EA" stroke-width=".4" stroke-miterlimit="10"/><path d="M56.612 49.563a16.127 16.127 0 01-9.66-3.212 16.075 16.075 0 01-5.8-8.353.71.71 0 01.48-.859.73.73 0 01.877.48 14.616 14.616 0 004.224 6.796 14.677 14.677 0 0015.156 2.821 14.647 14.647 0 006.396-4.82 14.605 14.605 0 001.428-15.321 14.631 14.631 0 00-5.394-5.916 14.67 14.67 0 00-7.707-2.196.712.712 0 01-.432-1.165.712.712 0 01.432-.24c4.259 0 8.343 1.689 11.354 4.694a16.01 16.01 0 014.703 11.331 16.01 16.01 0 01-4.703 11.332 16.073 16.073 0 01-11.354 4.694v-.066z" stroke="#4452EA" stroke-width=".4" stroke-miterlimit="10"/><path d="M41.83 38.444a.697.697 0 01-.678-.512c-.1-.364-.2-.76-.282-1.14a.725.725 0 01.563-.826.712.712 0 01.811.545c.083.364.166.71.265 1.041a.726.726 0 01-.497.876l-.182.016zm1.39 12.341a.647.647 0 01-.48-.215l-3.128-3.105a.71.71 0 010-.992l1.92-1.867a.696.696 0 01.994 0l3.111 3.106a.727.727 0 010 .992l-1.92 1.9a.646.646 0 01-.496.181zm-2.118-3.816l2.119 2.115.927-.91-2.12-2.114-.926.909z" stroke="#4452EA" stroke-width=".4" stroke-miterlimit="10"/><path d="M33.371 61.326a1.276 1.276 0 01-.877-.364l-3.31-3.304a1.221 1.221 0 010-1.652l9.55-9.55a1.276 1.276 0 011.755 0l3.311 3.305a1.22 1.22 0 010 1.735l-9.551 9.466a1.243 1.243 0 01-.878.364zm-3.045-4.527l3.045 3.056 9.337-9.301-2.98-3.056-9.402 9.3zm16.553-6.179a.712.712 0 01-.497-.215l-6.62-6.608a.71.71 0 010-.991l2.697-2.677a.696.696 0 011.11.166 14.409 14.409 0 002.664 3.634 14.73 14.73 0 003.642 2.66.712.712 0 01.38.512.742.742 0 01-.198.611L47.36 50.39a.645.645 0 01-.48.231zm-5.611-7.302l5.611 5.617 1.54-1.537a16.762 16.762 0 01-3.162-2.461 15.667 15.667 0 01-2.45-3.156l-1.54 1.537z" stroke="#4452EA" stroke-width=".4" stroke-miterlimit="10"/><path d="M28.14 63.143H1.127A1.127 1.127 0 010 62.02V8.062a1.105 1.105 0 01.53-.958L11.587.165c.192-.11.409-.167.63-.165h32.477a1.143 1.143 0 011.125 1.123v21.378a1.122 1.122 0 01-1.125 1.124 1.127 1.127 0 01-1.126-1.123V2.247h-31.02L2.25 8.69v52.206h25.89a1.127 1.127 0 011.125 1.123 1.123 1.123 0 01-1.125 1.124z"/><path d="M12.216 9.185H1.126A1.127 1.127 0 010 8.375a1.105 1.105 0 01.53-1.271L11.587.165a1.128 1.128 0 011.143 0 1.092 1.092 0 01.579.975v6.938a1.106 1.106 0 01-1.093 1.107zM5.066 6.94h6.025V3.172L5.065 6.939zM49.66 68H6.158a1.111 1.111 0 01-1.192-1.123V62.02a1.122 1.122 0 011.126-1.124 1.127 1.127 0 011.125 1.123v3.734h41.284V53.627a1.14 1.14 0 011.134-1.003 1.143 1.143 0 011.134 1.003v13.217a1.12 1.12 0 01-.676 1.063c-.137.06-.284.09-.433.093zm0-51.776a1.143 1.143 0 01-1.126-1.124V7.104h-3.84a1.127 1.127 0 01-1.126-1.123 1.122 1.122 0 011.126-1.124h4.966a1.127 1.127 0 011.142 1.124v9.12a1.14 1.14 0 01-1.142 1.123zm-12.713-1.719H8.807a1.127 1.127 0 01-1.126-1.123 1.122 1.122 0 011.125-1.123h28.141a1.127 1.127 0 011.126 1.123 1.122 1.122 0 01-1.126 1.123zm0 5.766H8.807A1.143 1.143 0 017.8 19.14a1.139 1.139 0 011.005-1.132h28.14a1.146 1.146 0 011.18.664 1.138 1.138 0 01-.702 1.556 1.143 1.143 0 01-.477.043zm0 5.749H8.807A1.143 1.143 0 017.8 24.89a1.139 1.139 0 011.005-1.132h28.14a1.146 1.146 0 011.18.664 1.138 1.138 0 01-.702 1.556 1.145 1.145 0 01-.477.043zm0 5.75H8.807a1.127 1.127 0 01-1.126-1.124 1.122 1.122 0 011.125-1.123h28.141a1.127 1.127 0 011.126 1.123 1.122 1.122 0 01-1.126 1.124zm0 5.749H8.807a1.127 1.127 0 01-1.126-1.123 1.122 1.122 0 011.125-1.124h28.141a1.127 1.127 0 011.126 1.123 1.122 1.122 0 01-1.126 1.124zm0 5.766H8.807A1.143 1.143 0 017.8 42.153a1.139 1.139 0 011.005-1.132h28.14a1.146 1.146 0 011.18.664 1.138 1.138 0 01-.702 1.556 1.145 1.145 0 01-.477.044z"/></g><defs><clipPath id="clip0_146_1357"><path fill="#fff" d="M0 0h73v68H0z"/></clipPath></defs></svg>