<svg width="77" height="56" fill="none" xmlns="http://www.w3.org/2000/svg"><path d="M7.004 46.284H.892a.714.714 0 00-.713.713v2.719c0 1.621.643 3.177 1.788 4.325a6.137 6.137 0 004.323 1.803h64.42a6.137 6.137 0 004.323-1.803 6.125 6.125 0 001.789-4.325v-2.719a.712.712 0 00-.714-.713h-6.112V4.724a4.453 4.453 0 00-2.831-4.15 4.465 4.465 0 00-1.742-.307H11.577a4.465 4.465 0 00-4.223 2.726 4.453 4.453 0 00-.35 1.731v41.56zm1.45-41.56a3.118 3.118 0 013.123-3.12h53.846a3.126 3.126 0 012.885 1.926c.157.379.238.785.238 1.194v41.56H8.454V4.724zm66.918 43.009v1.983c0 1.237-.49 2.424-1.364 3.301a4.686 4.686 0 01-3.298 1.378H6.29a4.687 4.687 0 01-3.312-1.37 4.677 4.677 0 01-1.372-3.31v-1.982h73.766z" fill="#4452EA"/><path d="M70.71 56H6.29a6.293 6.293 0 01-4.448-1.84A6.281 6.281 0 010 49.715v-2.719a.891.891 0 01.892-.891h5.956V4.724a4.72 4.72 0 011.385-3.34A4.731 4.731 0 0111.577 0h53.846c1.254 0 2.457.498 3.344 1.384a4.722 4.722 0 011.385 3.34v41.382h5.956a.893.893 0 01.892.891v2.719a6.28 6.28 0 01-1.842 4.443A6.293 6.293 0 0170.71 56zM.892 46.44a.558.558 0 00-.557.557v2.719a5.967 5.967 0 003.67 5.531c.723.303 1.5.46 2.285.463h64.42a5.981 5.981 0 004.205-1.749 5.97 5.97 0 001.75-4.2v-2.764a.557.557 0 00-.557-.557h-6.29V4.724A4.463 4.463 0 0065.356.267h-53.78c-1.183 0-2.318.47-3.155 1.306a4.455 4.455 0 00-1.306 3.151V46.44H.892zm69.818 8.111H6.29a4.843 4.843 0 01-4.472-2.985 4.831 4.831 0 01-.368-1.85v-2.229h74.1v2.229a4.843 4.843 0 01-4.84 4.836zM1.784 47.866v1.828a4.455 4.455 0 004.462 4.456H70.71a4.466 4.466 0 004.121-2.75c.224-.542.34-1.121.34-1.706v-1.828H1.784zm66.918-1.448H8.275V4.724a3.296 3.296 0 013.302-3.276h53.846a3.28 3.28 0 013.28 3.276v41.694zm-60.07-.312h59.736V4.724a2.94 2.94 0 00-2.945-2.941H11.577a2.946 2.946 0 00-2.945 2.941v41.382z" fill="#4452EA"/><path d="M45.013 51.565a.736.736 0 100-1.448H31.987a.737.737 0 00-.795 1.035.735.735 0 00.794.413h13.027z" fill="#4452EA"/><path d="M45.013 51.744H31.987a.893.893 0 110-1.783h13.026a.893.893 0 01.631 1.522.893.893 0 01-.63.26zm-13.026-1.449a.558.558 0 100 1.092h13.026a.557.557 0 100-1.092H31.987zm32.455-8.2V7.086a.735.735 0 00-.736-.735H13.384a.736.736 0 00-.736.735v35.009a.713.713 0 00.736.713h50.411a.715.715 0 00.647-.713zm-36.492-.736h-7.094v-4.456h7.094v4.456zm0-5.972h-7.094v-9.649h7.094v9.65zm0-11.142h-7.094V21.46h7.094v2.785zm0-4.278h-7.094V14.64h7.094v5.326zm8.543 21.348h-7.094V18.05h7.094v23.265zm5.889-8.49H40.53a.736.736 0 00-.736.735.71.71 0 00.736.713h1.852v2.83H40.53a.716.716 0 00-.736.713.735.735 0 00.736.735h1.852v2.808H37.92V15.6h4.462v17.226zm1.45 8.534V21.304l7.539 20.055h-7.54zm10.438-.29a1.162 1.162 0 01-.468 0 1.676 1.676 0 01-.58 0 1.361 1.361 0 01-.714-.78l-7.65-20.545 5.821-2.229 8.209 21.816-4.617 1.739zm8.633.29h-3.97l1.338-1.003a.713.713 0 00.245-.824l-8.744-23.175a.735.735 0 00-.468-.402.804.804 0 00-.558 0l-6.915 2.608v-3.789a.713.713 0 00-.713-.735h-5.912a.714.714 0 00-.713.735v1.828h-7.094v-2.697a.713.713 0 00-.736-.713h-8.587a.714.714 0 00-.714.713V41.36h-5.354V7.8h49.073l-.178 33.56z" fill="#4452EA"/><path d="M63.706 42.986H13.384a.893.893 0 01-.893-.891V7.086a.891.891 0 01.893-.89h50.411a.893.893 0 01.892.89v35.009a.891.891 0 01-.981.891zM13.384 6.53a.558.558 0 00-.558.557v35.009a.557.557 0 00.558.557h50.411a.558.558 0 00.558-.557V7.086a.557.557 0 00-.558-.557H13.384zm49.764 35.009H58.42l1.74-1.315a.557.557 0 00.2-.624l-8.743-23.175a.556.556 0 00-.312-.313.558.558 0 00-.424 0l-7.138 2.697v-4.034a.557.557 0 00-.558-.557h-5.978a.558.558 0 00-.557.557v2.006h-7.43v-2.875a.557.557 0 00-.558-.534h-8.587a.558.558 0 00-.558.557V41.56h-5.666V7.644h49.296v33.894zm-3.725-.335h3.39V7.978H14.188v33.225h5.04V13.905a.89.89 0 01.893-.891h8.543a.892.892 0 01.892.891v2.54h6.692v-1.67a.89.89 0 01.892-.892h6a.893.893 0 01.893.892v3.52l6.692-2.518a.983.983 0 01.669 0 .96.96 0 01.468.513l8.744 23.175a.868.868 0 01-.312 1.003l-.87.735zm-7.718.335h-7.94V20.435l7.94 21.103zm-7.606-.335h7.205l-7.205-18.919v18.92zm-1.45.335h-4.885V15.332h4.885v17.67h-2.03a.558.558 0 000 1.115h2.03v3.142h-2.03a.558.558 0 100 1.114h2.03v3.165zm-4.461-.335h4.193v-2.495h-1.695a.893.893 0 110-1.783h1.695V34.45h-1.695a.893.893 0 01-.63-1.521.893.893 0 01.63-.261h1.695v-17.07H38.1l.089 25.604zm-1.45.335h-7.517v-23.71h7.428l.089 23.71zm-7.093-.335h6.692V18.228h-6.692v22.975zm-1.45.335h-7.517V36.68h7.428l.089 4.858zm-7.093-.335h6.691v-4.189h-6.691v4.19zm32.878.134a1.627 1.627 0 01-.646-.156 1.582 1.582 0 01-.803-.847l-7.919-20.702 6.134-2.228v.156l8.276 21.972-4.685 1.76a1.54 1.54 0 01-.446.045h.09zm-8.9-21.504l7.674 20.39a1.227 1.227 0 001.561.69l4.461-1.648-8.208-21.438-5.488 2.006zM28.106 35.655h-7.428V25.56h7.428v10.095zm-7.094-.335h6.692v-9.426h-6.692v9.426zm7.094-10.807h-7.428v-3.21h7.428v3.21zm-7.094-.357h6.692v-2.518h-6.692v2.518zm7.094-3.966h-7.428v-5.728h7.428v5.727zm-7.094-.335h6.692v-5.058h-6.692v5.058z" fill="#4452EA"/><path d="M32.946 27.276a.736.736 0 00-.736.735v4.256a.735.735 0 001.014.68.712.712 0 00.436-.68v-4.256a.713.713 0 00-.714-.735z" fill="#4452EA"/><path d="M32.946 33.159a.893.893 0 01-.892-.892v-4.256a.891.891 0 011.784 0v4.256a.891.891 0 01-.892.892zm0-5.705a.558.558 0 00-.558.557v4.256a.557.557 0 001.116 0v-4.256a.557.557 0 00-.558-.557z" fill="#4452EA"/></svg>