<svg width="83" height="50" fill="none" xmlns="http://www.w3.org/2000/svg"><g clip-path="url(#clip0_146_1377)" fill="#4452EA"><path d="M57.632 40.793c-.292 0-.572-.115-.778-.319a1.08 1.08 0 01-.323-.768V10.71a1.088 1.088 0 01.273-.864 1.116 1.116 0 01.836-.372 1.13 1.13 0 01.836.372 1.1 1.1 0 01.273.864v28.996a1.075 1.075 0 01-.328.774 1.101 1.101 0 01-.789.313zM32.378 50a8.806 8.806 0 01-4.848-1.452 8.641 8.641 0 01-3.214-3.867 8.515 8.515 0 01-.496-4.978 8.583 8.583 0 012.388-4.411 8.76 8.76 0 014.467-2.358 8.83 8.83 0 015.042.49 8.703 8.703 0 013.916 3.174 8.52 8.52 0 01.806 8.084 8.608 8.608 0 01-1.891 2.794 8.733 8.733 0 01-2.831 1.868 8.822 8.822 0 01-3.34.656zm0-15.041a6.531 6.531 0 00-3.598 1.077 6.412 6.412 0 00-2.385 2.87 6.319 6.319 0 00-.368 3.694 6.37 6.37 0 001.772 3.273 6.501 6.501 0 003.315 1.75 6.553 6.553 0 003.742-.363 6.46 6.46 0 002.906-2.355 6.337 6.337 0 001.091-3.553 6.353 6.353 0 00-1.896-4.52 6.518 6.518 0 00-4.58-1.873z"/><path d="M32.378 45.444a4.15 4.15 0 01-2.29-.676 4.072 4.072 0 01-1.52-1.819 4.013 4.013 0 01-.242-2.347 4.044 4.044 0 011.122-2.083 4.129 4.129 0 012.105-1.116 4.162 4.162 0 012.378.229 4.101 4.101 0 011.848 1.495 4.023 4.023 0 01-.504 5.123 4.138 4.138 0 01-2.897 1.194zm0-5.914a1.91 1.91 0 00-1.059.309 1.871 1.871 0 00-.704.838 1.848 1.848 0 00.407 2.046 1.917 1.917 0 002.072.402c.346-.144.642-.386.849-.696a1.853 1.853 0 00-.242-2.351 1.906 1.906 0 00-1.323-.548zm37.137 5.914a4.15 4.15 0 01-2.29-.676 4.072 4.072 0 01-1.52-1.819 4.013 4.013 0 01-.241-2.347 4.044 4.044 0 011.121-2.083 4.128 4.128 0 012.105-1.116 4.162 4.162 0 012.378.229 4.101 4.101 0 011.848 1.495 4.023 4.023 0 01-.504 5.123 4.138 4.138 0 01-2.897 1.194zm0-5.914a1.911 1.911 0 00-1.059.309 1.871 1.871 0 00-.704.838 1.848 1.848 0 00.407 2.046 1.917 1.917 0 002.072.402c.347-.144.642-.386.85-.696a1.853 1.853 0 00-.243-2.351 1.906 1.906 0 00-1.323-.548z"/><path d="M69.515 50a8.805 8.805 0 01-4.848-1.452 8.64 8.64 0 01-3.214-3.867 8.515 8.515 0 01-.496-4.978 8.583 8.583 0 012.388-4.411 8.76 8.76 0 014.468-2.358 8.83 8.83 0 015.041.49 8.703 8.703 0 013.916 3.174 8.52 8.52 0 01.806 8.084 8.608 8.608 0 01-1.891 2.794 8.733 8.733 0 01-2.831 1.868 8.822 8.822 0 01-3.34.656zm0-15.041a6.531 6.531 0 00-3.598 1.077 6.412 6.412 0 00-2.385 2.87 6.318 6.318 0 00-.368 3.694 6.37 6.37 0 001.772 3.273 6.501 6.501 0 003.315 1.75 6.553 6.553 0 003.742-.363 6.46 6.46 0 002.906-2.355 6.337 6.337 0 001.091-3.553 6.353 6.353 0 00-1.896-4.52 6.518 6.518 0 00-4.58-1.873z"/><path d="M81.883 40.793h-4.97c-.25 0-.494-.084-.691-.238a1.102 1.102 0 01-.394-.61 6.38 6.38 0 00-2.252-3.675 6.527 6.527 0 00-4.1-1.438 6.527 6.527 0 00-4.097 1.449 6.38 6.38 0 00-2.243 3.68 1.102 1.102 0 01-.393.61c-.197.154-.44.237-.691.238H39.695a1.093 1.093 0 01-.687-.236 1.069 1.069 0 01-.382-.611 6.378 6.378 0 00-2.231-3.734 6.526 6.526 0 00-4.13-1.47c-1.509 0-2.97.52-4.131 1.47a6.378 6.378 0 00-2.232 3.734 1.102 1.102 0 01-.394.609c-.196.154-.44.237-.69.238h-9.714a1.114 1.114 0 01-.789-.313 1.085 1.085 0 01-.328-.774V23.737a1.1 1.1 0 01.327-.78 1.124 1.124 0 011.58 0c.21.207.327.488.327.78V38.7h7.69a8.61 8.61 0 013.174-4.228 8.785 8.785 0 015.074-1.61c1.82 0 3.595.563 5.074 1.61a8.61 8.61 0 013.174 4.228H61.13a8.608 8.608 0 013.174-4.228 8.785 8.785 0 015.074-1.61c1.82 0 3.595.563 5.074 1.61a8.61 8.61 0 013.174 4.228h3.157V24.792l-7.107-12.995H57.632c-.292 0-.572-.115-.778-.319a1.08 1.08 0 01-.323-.768V2.717H38.335c-.296 0-.58-.116-.79-.323a1.096 1.096 0 010-1.56 1.13 1.13 0 01.79-.323h19.297c.296 0 .58.117.79.324.21.206.327.487.327.78V9.59h15.59a1.127 1.127 0 01.971.575l7.56 13.81c.085.164.13.345.13.528v15.282a1.08 1.08 0 01-.356.723c-.207.187-.48.289-.761.284z"/><path d="M81.883 25.576H64.221a1.097 1.097 0 01-.783-.314 1.072 1.072 0 01-.318-.774V14.386a1.074 1.074 0 01.317-.779 1.1 1.1 0 01.784-.324h12.093a1.095 1.095 0 01.988.576l5.569 10.118a1.092 1.092 0 010 1.087 1.08 1.08 0 01-.988.512zm-16.545-2.254h14.683l-4.355-7.913H65.338v7.913zm-34.903 4.827a12.269 12.269 0 01-6.76-2.017 12.038 12.038 0 01-4.486-5.386 11.864 11.864 0 01-.695-6.94 11.959 11.959 0 013.328-6.15A12.207 12.207 0 0128.05 4.37a12.302 12.302 0 017.028.687c2.222.91 4.12 2.452 5.455 4.428a11.897 11.897 0 012.043 6.675 11.945 11.945 0 01-3.566 8.468 12.253 12.253 0 01-8.576 3.521zm0-21.755a10.014 10.014 0 00-5.518 1.643 9.827 9.827 0 00-3.662 4.395 9.684 9.684 0 00-.571 5.662 9.76 9.76 0 002.712 5.021 9.963 9.963 0 005.08 2.687 10.05 10.05 0 005.737-.555 9.898 9.898 0 004.456-3.61 9.71 9.71 0 001.674-5.445 9.752 9.752 0 00-2.906-6.918 10.004 10.004 0 00-7.002-2.88z"/><path d="M30.29 21.308a1.128 1.128 0 01-.762-.288l-5.617-5.18a1.103 1.103 0 01-.347-.798 1.091 1.091 0 01.347-.8 1.1 1.1 0 01.81-.35 1.113 1.113 0 01.809.35l4.63 4.268 4.856-7.736a1.093 1.093 0 01.687-.49 1.115 1.115 0 01.835.138 1.113 1.113 0 01.538.721 1.088 1.088 0 01-.182.877l-5.666 8.76a1.078 1.078 0 01-.793.512l-.146.016zm27.342 13.651H15.234a1.113 1.113 0 01-.79-.313 1.085 1.085 0 010-1.554c.21-.207.493-.323.79-.323h42.398c.296 0 .58.116.79.323a1.096 1.096 0 01.242 1.2 1.087 1.087 0 01-.606.588c-.135.054-.28.08-.426.078zm-5.456-6.81c-.296 0-.58-.116-.79-.323a1.096 1.096 0 01-.327-.78V6.138c0-.292.118-.573.328-.78a1.124 1.124 0 011.58 0 1.1 1.1 0 01.327.78v20.908c0 .293-.118.573-.328.78-.21.207-.493.323-.79.323zM78.046 50H6.087a1.113 1.113 0 01-.789-.313 1.086 1.086 0 010-1.554c.209-.207.493-.323.789-.323h71.96c.296 0 .58.116.79.323a1.096 1.096 0 01.24 1.2 1.085 1.085 0 01-.605.589c-.135.053-.28.08-.426.078zm-50.8-47.602H1.214a1.238 1.238 0 01-.854-.356A1.207 1.207 0 010 1.199C.004.882.133.579.36.356.587.132.893.004 1.214 0h26.032c.322 0 .63.126.858.351a1.191 1.191 0 010 1.696 1.222 1.222 0 01-.858.35zM14.99 8.92H1.215c-.322 0-.63-.127-.858-.352a1.191 1.191 0 010-1.695c.227-.225.536-.351.858-.351h13.777c.322 0 .63.126.858.35a1.191 1.191 0 010 1.696 1.222 1.222 0 01-.858.351zm0 6.665H1.215a1.22 1.22 0 01-.858-.351 1.191 1.191 0 010-1.695 1.22 1.22 0 01.858-.352h13.777c.322 0 .63.127.858.352a1.191 1.191 0 010 1.695 1.222 1.222 0 01-.858.351z"/></g><defs><clipPath id="clip0_146_1377"><path fill="#fff" d="M0 0h83v50H0z"/></clipPath></defs></svg>