<svg width="74" height="67" fill="none" xmlns="http://www.w3.org/2000/svg"><g clip-path="url(#clip0_146_1342)" fill="#4452EA"><path d="M72.744 32.582a1.295 1.295 0 01-1.294-1.294 11.375 11.375 0 00-2.237-6.716 11.392 11.392 0 00-5.777-4.097 1.294 1.294 0 01-.855-1.565 1.294 1.294 0 011.541-.802 13.917 13.917 0 017.12 4.998A13.896 13.896 0 0174 31.353a1.293 1.293 0 01-1.256 1.229z"/><path d="M13.84 45.142a13.849 13.849 0 01-9.787-4.05 13.82 13.82 0 010-19.554 13.846 13.846 0 019.786-4.05 13.59 13.59 0 014.545.79 13.822 13.822 0 017.748-9.425 13.85 13.85 0 0112.201.37 16.253 16.253 0 017.598-7.597 16.274 16.274 0 0119.78 4.518 16.237 16.237 0 013.538 10.141 15.77 15.77 0 01-.557 4.178 13.816 13.816 0 015.258 12.07 13.805 13.805 0 01-7.252 10.992 1.296 1.296 0 01-1.616-1.482c.053-.289.203-.55.425-.743a11.31 11.31 0 005.957-9.367 11.295 11.295 0 00-4.934-9.944 1.293 1.293 0 01-.492-1.422 13.711 13.711 0 00-.977-10.117 13.732 13.732 0 00-7.674-6.67 13.747 13.747 0 00-10.163.433 13.729 13.729 0 00-7.078 7.3 1.294 1.294 0 01-.803.763 1.296 1.296 0 01-1.087-.156 11.322 11.322 0 00-15.54 2.742 11.299 11.299 0 00-2.067 5.368 1.294 1.294 0 01-.647.97 1.296 1.296 0 01-1.152 0 11.169 11.169 0 00-4.972-1.164 11.338 11.338 0 00-8.256 3.174 11.317 11.317 0 00-3.455 8.137 11.309 11.309 0 003.455 8.137 11.329 11.329 0 008.256 3.174 1.296 1.296 0 011.61 1.255 1.293 1.293 0 01-1.61 1.255l-.039-.026z"/><path d="M59.552 45.141h-5.476a1.294 1.294 0 110-2.51h5.476a1.295 1.295 0 01.706 2.051 1.295 1.295 0 01-.706.459zM40.858 67H19.419a1.295 1.295 0 01-1.294-1.293V37.78a1.293 1.293 0 011.294-1.293h21.49a1.296 1.296 0 011.295 1.293v27.964A1.293 1.293 0 0140.858 67zm-20.222-2.522h18.966V39.036H20.636v25.442z"/><path d="M50.27 58.502h-4.713a1.295 1.295 0 01-1.294-1.293V34.793H28.727a1.295 1.295 0 01-1.294-1.293v-4.217a1.293 1.293 0 011.294-1.293h21.491a1.295 1.295 0 011.295 1.293v27.965a1.293 1.293 0 01-1.243 1.254zm-3.444-2.522h2.175V30.538H30.035v1.798H45.57a1.295 1.295 0 011.295 1.293l-.039 22.35z"/><path d="M45.557 62.745h-4.699a1.295 1.295 0 01-1.295-1.294V39.036H24.028a1.295 1.295 0 01-1.295-1.294V33.54a1.293 1.293 0 011.295-1.294h21.49a1.295 1.295 0 011.295 1.294v27.95a1.293 1.293 0 01-1.256 1.255zm-3.43-2.51h2.175V34.793H25.336v1.734H40.87a1.295 1.295 0 011.294 1.293l-.038 22.415z"/><path d="M36.25 45.982H23.936a1.297 1.297 0 01-1.582-1.261 1.292 1.292 0 011.582-1.261H36.25a1.294 1.294 0 010 2.522zm0 4.798H23.936a1.296 1.296 0 01-1.478-1.822 1.293 1.293 0 011.478-.687H36.25a1.296 1.296 0 011.478 1.822 1.293 1.293 0 01-1.478.687zm0 4.838H23.936a1.297 1.297 0 01-1.582-1.261 1.292 1.292 0 011.582-1.261H36.25a1.294 1.294 0 010 2.522zm26.759-1.539h-12.74a1.296 1.296 0 01-1.609-1.255 1.293 1.293 0 011.61-1.255h11.483V31.948a1.29 1.29 0 01.688-1.477 1.296 1.296 0 011.823 1.477v20.876a1.293 1.293 0 01-1.255 1.255z"/><path d="M60.6 35.117a1.295 1.295 0 01-.892-.362 1.292 1.292 0 010-1.785l2.433-2.47a1.296 1.296 0 011.774 0l2.473 2.47a1.293 1.293 0 010 1.785 1.295 1.295 0 01-1.774 0l-1.592-1.591-1.528 1.59c-.24.232-.56.361-.893.363z"/></g><defs><clipPath id="clip0_146_1342"><path fill="#fff" d="M0 0h74v67H0z"/></clipPath></defs></svg>