<svg width="71" height="67" fill="none" xmlns="http://www.w3.org/2000/svg"><g clip-path="url(#clip0_146_1396)" fill="#4452EA"><path d="M42.349 66.592H5.264a4.808 4.808 0 01-3.42-1.434 4.926 4.926 0 01-1.417-3.462V24.161c0-1.298.51-2.544 1.417-3.462a4.808 4.808 0 013.42-1.434h20.461c.169 0 .331.068.45.19a.648.648 0 010 .91.633.633 0 01-.45.19H5.224a3.534 3.534 0 00-2.506 1.053 3.62 3.62 0 00-1.041 2.537v37.568a3.612 3.612 0 001.047 2.522 3.526 3.526 0 002.5 1.043h37.125c.94 0 1.843-.378 2.508-1.051a3.613 3.613 0 001.039-2.539v-5.557c0-.17.067-.335.186-.456a.633.633 0 01.9 0c.12.121.187.285.187.456v5.581a4.926 4.926 0 01-1.416 3.446 4.808 4.808 0 01-3.404 1.434z"/><path d="M42.349 67H5.264a5.17 5.17 0 01-2.011-.39 5.218 5.218 0 01-1.709-1.144 5.291 5.291 0 01-1.143-1.72A5.343 5.343 0 010 61.711V24.178a5.353 5.353 0 01.388-2.034 5.301 5.301 0 011.13-1.728 5.228 5.228 0 011.699-1.157 5.178 5.178 0 012.007-.409h20.501c.276 0 .54.111.735.308a1.06 1.06 0 010 1.489c-.195.197-.46.308-.735.308H5.224a3.134 3.134 0 00-2.22.935 3.21 3.21 0 00-.924 2.248v37.576a3.21 3.21 0 00.923 2.247c.59.597 1.388.933 2.221.935h37.125a3.133 3.133 0 002.22-.935 3.21 3.21 0 00.924-2.248v-5.58c0-.28.11-.548.304-.745a1.034 1.034 0 011.47 0c.196.197.305.465.305.744v5.581a5.32 5.32 0 01-1.53 3.74A5.192 5.192 0 0142.348 67zM5.264 19.673a4.379 4.379 0 00-1.7.33c-.54.223-1.03.55-1.444.965a4.483 4.483 0 00-.97 1.452 4.527 4.527 0 00-.344 1.717v37.576a4.508 4.508 0 001.296 3.159 4.399 4.399 0 003.122 1.312h37.125a4.4 4.4 0 003.116-1.315 4.508 4.508 0 001.293-3.157v-5.58a.238.238 0 00-.068-.168.232.232 0 00-.4.167v5.581a4.031 4.031 0 01-1.159 2.825 3.934 3.934 0 01-2.79 1.174H5.255a3.935 3.935 0 01-2.79-1.174 4.031 4.031 0 01-1.16-2.825V24.178a4.031 4.031 0 011.16-2.824 3.934 3.934 0 012.79-1.174h20.47a.233.233 0 00.164-.07.238.238 0 00-.165-.403l-20.46-.033z"/><path d="M29.135 30.436H13.181a2.805 2.805 0 01-1.987-.837 2.874 2.874 0 01-.827-2.01v-7.687a.657.657 0 01.192-.457.64.64 0 01.453-.188h14.713c.169 0 .331.068.45.189a.649.649 0 010 .912.633.633 0 01-.45.188H11.65v7.042c0 .412.161.807.448 1.1a1.53 1.53 0 001.084.459h15.954a.63.63 0 01.45.189.649.649 0 010 .911.633.633 0 01-.45.189z"/><path d="M29.135 30.844H13.181a3.205 3.205 0 01-2.28-.956 3.284 3.284 0 01-.945-2.308v-7.678c.002-.28.114-.548.31-.745.196-.197.462-.308.738-.308h14.721c.276 0 .54.111.735.308a1.06 1.06 0 010 1.489c-.195.197-.46.308-.735.308H12.093v6.634c0 .304.118.595.33.81.211.216.498.339.798.34h15.914c.276 0 .54.112.736.31a1.06 1.06 0 010 1.488c-.195.197-.46.308-.736.308zM11.012 19.665a.24.24 0 00-.168.069.246.246 0 00-.073.168v7.686c0 .65.254 1.272.708 1.731.454.46 1.069.717 1.71.717h15.946a.231.231 0 00.216-.146.238.238 0 00-.126-.31.231.231 0 00-.09-.017H13.181a1.932 1.932 0 01-1.345-.596 1.98 1.98 0 01-.55-1.379v-7.45h14.512a.233.233 0 00.165-.069.238.238 0 000-.335.232.232 0 00-.165-.069H11.012zm8.336 32.875a.63.63 0 01-.455-.185.644.644 0 01-.19-.459v-8.788l-2.136 2.228a.635.635 0 01-.903.008.65.65 0 01-.008-.914l3.225-3.362a.635.635 0 01.698-.151.64.64 0 01.398.6v10.38a.647.647 0 01-.184.452.633.633 0 01-.445.192z"/><path d="M19.348 52.949c-.276 0-.542-.11-.738-.308a1.067 1.067 0 01-.31-.745v-7.784l-1.443 1.51a1.039 1.039 0 01-.738.31 1.03 1.03 0 01-.737-.31 1.091 1.091 0 01-.314-.743 1.059 1.059 0 01.298-.743l3.224-3.37a1.037 1.037 0 011.14-.246 1.055 1.055 0 01.65.98v10.396c0 .278-.108.544-.302.742a1.034 1.034 0 01-.73.31zm-.242-10.844v9.791a.247.247 0 00.074.168.241.241 0 00.168.069.233.233 0 00.166-.07.238.238 0 00.068-.167V41.517a.239.239 0 00-.147-.22.23.23 0 00-.256.057l-3.225 3.362a.238.238 0 00.167.4c.06 0 .12-.023.164-.066l2.821-2.945z"/><path d="M19.348 52.54a.63.63 0 01-.455-.185.644.644 0 01-.19-.459V41.517a.65.65 0 01.398-.6.63.63 0 01.699.151l3.224 3.362a.65.65 0 01-.008.914.635.635 0 01-.903-.008l-2.136-2.228v8.788c0 .17-.066.332-.184.453a.633.633 0 01-.445.192z"/><path d="M19.348 52.949a1.03 1.03 0 01-.735-.309 1.06 1.06 0 01-.305-.744v-10.38a1.05 1.05 0 01.182-.574 1.02 1.02 0 011.584-.143l3.225 3.37c.192.198.299.465.298.742a1.05 1.05 0 01-1.056 1.044 1.066 1.066 0 01-.734-.317l-1.443-1.51v7.768c0 .275-.106.54-.296.736-.19.197-.448.31-.72.317zm0-11.669h-.088a.234.234 0 00-.146.22v10.396c0 .063.025.123.069.167a.233.233 0 00.399-.167v-9.792l2.83 2.946a.27.27 0 00.169.074.256.256 0 00.161-.066.237.237 0 00.073-.171.263.263 0 00-.065-.172l-3.224-3.361a.243.243 0 00-.178-.074zm8.868 11.26a.633.633 0 01-.45-.188.648.648 0 01-.187-.456V41.517a.65.65 0 01.398-.6.63.63 0 01.699.151L31.9 44.43a.65.65 0 01-.216 1.052.632.632 0 01-.695-.146l-2.136-2.228v8.788a.648.648 0 01-.187.456.633.633 0 01-.45.189z"/><path d="M28.216 52.949c-.276 0-.54-.111-.735-.308a1.06 1.06 0 01-.305-.745V41.517a1.062 1.062 0 01.167-.628 1.028 1.028 0 011.68-.09l3.224 3.37c.192.198.3.465.298.742a1.09 1.09 0 01-.314.743 1.041 1.041 0 01-.742.302 1.065 1.065 0 01-.733-.318l-1.443-1.51v7.768a1.07 1.07 0 01-.327.763 1.045 1.045 0 01-.77.29zm0-11.669h-.097a.234.234 0 00-.145.22v10.396a.245.245 0 00.238.2.24.24 0 00.238-.2v-9.791l2.83 2.945a.202.202 0 00.16.074.32.32 0 00.17-.066.247.247 0 000-.342l-3.224-3.362a.218.218 0 00-.17-.074z"/><path d="M28.216 52.54a.633.633 0 01-.45-.188.648.648 0 01-.187-.456v-8.788l-2.136 2.228a.64.64 0 01-.695.146.638.638 0 01-.348-.346.654.654 0 01.132-.706l3.225-3.362a.635.635 0 011.096.449v10.38a.651.651 0 01-.393.595.63.63 0 01-.244.049z"/><path d="M28.216 52.949c-.276 0-.54-.111-.735-.308a1.06 1.06 0 01-.305-.745v-7.784l-1.378 1.51a1.039 1.039 0 01-.738.31 1.03 1.03 0 01-.738-.31 1.091 1.091 0 01-.314-.743 1.06 1.06 0 01.298-.743l3.225-3.37a1.037 1.037 0 011.14-.246 1.05 1.05 0 01.65.98v10.396a1.073 1.073 0 01-.33.766 1.045 1.045 0 01-.775.287zm-.21-10.844v9.791c.01.056.04.107.084.144a.24.24 0 00.392-.144V41.517a.247.247 0 00-.153-.22.223.223 0 00-.25.057l-3.224 3.362a.263.263 0 00-.065.171.205.205 0 00.073.163.255.255 0 00.169.074.198.198 0 00.161-.074l2.814-2.945zm3.475 13.471H16.124a.633.633 0 01-.45-.189.649.649 0 010-.911.633.633 0 01.45-.189H31.48a.63.63 0 01.45.189.649.649 0 010 .911.633.633 0 01-.45.19z"/><path d="M31.481 55.984H16.123c-.279 0-.546-.112-.743-.312a1.071 1.071 0 010-1.506c.197-.2.464-.311.743-.311h15.358c.276 0 .54.11.736.308a1.06 1.06 0 010 1.488c-.195.198-.46.309-.736.309v.024zM16.123 54.67a.232.232 0 00-.165.07.238.238 0 000 .334.23.23 0 00.165.07h15.358a.232.232 0 00.165-.07.238.238 0 00-.165-.404H16.123zm42.583 11.922h-1.274a.633.633 0 01-.45-.189.649.649 0 010-.912.633.633 0 01.45-.188h1.274c.169 0 .33.068.45.189a.649.649 0 010 .911.633.633 0 01-.45.189z"/><path d="M58.706 67h-1.274c-.276 0-.54-.11-.735-.308a1.059 1.059 0 010-1.489c.195-.197.46-.308.735-.308h1.274c.276 0 .54.11.735.308a1.06 1.06 0 010 1.489c-.195.197-.46.308-.735.308zm-1.274-1.29a.232.232 0 00-.165.07.238.238 0 000 .335.233.233 0 00.165.069h1.274a.232.232 0 00.165-.07.238.238 0 00-.165-.403h-1.274z"/><path d="M57.432 66.592H42.348a.633.633 0 01-.45-.189.649.649 0 010-.912.633.633 0 01.45-.188h15.084c.169 0 .33.068.45.189a.649.649 0 010 .911.633.633 0 01-.45.189z"/><path d="M57.432 67H42.348c-.275 0-.54-.11-.735-.308a1.06 1.06 0 010-1.489c.195-.197.46-.308.736-.308h15.083c.276 0 .54.11.735.308a1.06 1.06 0 010 1.489c-.195.197-.46.308-.735.308zm-15.084-1.29a.233.233 0 00-.165.07.238.238 0 00.166.404h15.083a.232.232 0 00.165-.07.238.238 0 00-.165-.403H42.348zm-2.475-18.22a.669.669 0 01-.274-.163.647.647 0 01-.185-.457V8.886c0-.172.067-.337.186-.459a.641.641 0 01.45-.194h4.967a.645.645 0 01.637.645v1.73h14.858V8.87a.65.65 0 01.186-.456.633.633 0 01.45-.189h4.958a.64.64 0 01.452.196.612.612 0 01.185.449v37.992a.651.651 0 01-.393.595.63.63 0 01-.243.05H40.018a.622.622 0 01-.145-.017zm.807-37.96v36.72h24.814V9.53h-3.709v1.69a.649.649 0 01-.186.455.633.633 0 01-.45.19H45.025a.665.665 0 01-.451-.188.646.646 0 01-.186-.457V9.522l-3.708.009z"/><path d="M40.05 47.922a1.2 1.2 0 01-.297 0 1.067 1.067 0 01-.742-1.012V8.928c.002-.28.112-.547.306-.745a1.05 1.05 0 01.734-.316h4.966c.275.002.538.114.733.31.195.198.305.464.307.743v1.28h14.052V8.87c.002-.278.112-.544.306-.741.195-.197.458-.309.733-.311h4.958c.275.006.537.117.734.31a1.02 1.02 0 01.306.743v37.992a1.06 1.06 0 01-.298.742 1.057 1.057 0 01-.742.31l-26.055.008zm4.943-39.28h-4.966a.24.24 0 00-.166.074.247.247 0 00-.068.17V46.87a.233.233 0 00.064.163.21.21 0 00.105.065h26.153a.232.232 0 00.169-.073.228.228 0 00.064-.163V8.87a.247.247 0 00-.064-.164c-.049-.049-.105-.106-.17-.073h-4.966a.215.215 0 00-.22.143.221.221 0 00-.013.094v2.097H45.227v-2.09a.234.234 0 00-.234-.237zm-4.684 37.991V9.098h4.498v2.105a.253.253 0 00.234.237h16.124a.215.215 0 00.17-.064.221.221 0 00.063-.173V9.106h4.499v37.535l-25.588-.008zm.806-36.719v35.903h24.008V9.914h-2.935v1.281a1.04 1.04 0 01-.3.747 1.015 1.015 0 01-.74.298H45.025a1.041 1.041 0 01-.733-.311 1.067 1.067 0 01-.307-.742V9.93l-2.87-.016zm28.66 38.808a.637.637 0 01-.444-.58v-1.33c0-.17.067-.334.187-.455a.633.633 0 01.9 0c.12.12.187.285.187.456v1.33a.643.643 0 01-.392.597.62.62 0 01-.245.047.664.664 0 01-.193-.065z"/><path d="M69.952 49.154a.893.893 0 01-.29-.04 1.047 1.047 0 01-.529-.364 1.068 1.068 0 01-.221-.607v-1.33a1.023 1.023 0 01.306-.743 1.008 1.008 0 01.734-.31c.276 0 .54.111.735.308.195.198.305.465.305.745v1.33a1.014 1.014 0 01-.298.742 1.024 1.024 0 01-.742.27zm-.064-.815a.247.247 0 00.233-.058.263.263 0 00.065-.17v-1.298a.247.247 0 00-.146-.208.24.24 0 00-.25.036.237.237 0 00-.072.172v1.33a.246.246 0 00.17.228v-.032zm-.138-35.74a.62.62 0 01-.333-.227.634.634 0 01-.126-.385v-1.298c0-.17.067-.335.186-.456a.633.633 0 01.901 0c.12.121.187.285.187.456v1.298a.657.657 0 01-.192.456.64.64 0 01-.453.188.453.453 0 01-.17-.032z"/><path d="M69.936 13.056a.915.915 0 01-.299-.05 1.04 1.04 0 01-.539-.375 1.06 1.06 0 01-.21-.628v-1.314c.023-.264.143-.51.336-.689a1.041 1.041 0 011.416 0c.193.18.313.425.336.69v1.297a1.065 1.065 0 01-.299.755 1.04 1.04 0 01-.741.314zm-.073-.816a.246.246 0 00.206-.043.253.253 0 00.1-.186V10.69a.246.246 0 00-.15-.208.24.24 0 00-.253.045.204.204 0 00-.072.163v1.298a.255.255 0 00.17.228v.025z"/><path d="M36.06 50.941a.636.636 0 01-.332-.232.65.65 0 01-.127-.388V8.886a.65.65 0 01.186-.456.633.633 0 01.45-.189h8.756a.643.643 0 01.637.645v1.722h14.882V8.87a.65.65 0 01.186-.456.633.633 0 01.45-.189h8.78a.645.645 0 01.637.645v1.82a.655.655 0 01-.211.413.64.64 0 01-.86 0 .656.656 0 01-.211-.414V9.506h-7.498v1.69a.649.649 0 01-.186.455.634.634 0 01-.45.189H45.025a.665.665 0 01-.451-.188.646.646 0 01-.186-.457V9.522H36.85V49.67h32.44v-1.526c0-.171.068-.335.188-.456a.633.633 0 01.9 0c.12.12.187.285.187.456v2.203c0 .17-.067.335-.187.456a.633.633 0 01-.45.188l-33.65-.016a.678.678 0 01-.218-.033z"/><path d="M36.278 51.407a.9.9 0 01-.29-.05 1.04 1.04 0 01-.54-.375 1.06 1.06 0 01-.21-.628V8.91a1.03 1.03 0 01.234-.75 1 1 0 01.733-.31h8.788c.275.002.538.113.733.31.194.197.305.464.307.742v1.281h14.075V8.87a1.07 1.07 0 01.308-.742c.194-.197.457-.309.733-.311h8.779c.27.006.527.119.717.314.19.195.297.457.299.73v1.828c-.003.28-.114.548-.31.745a1.034 1.034 0 01-1.474 0 1.059 1.059 0 01-.304-.745v-.775h-6.667v1.281a1.041 1.041 0 01-.3.747 1.015 1.015 0 01-.74.298H45.025a1.042 1.042 0 01-.733-.311 1.068 1.068 0 01-.307-.742V9.93h-6.732v39.33h31.635v-1.117a1.067 1.067 0 01.641-.974.997.997 0 01.399-.079 1.027 1.027 0 01.75.3 1.052 1.052 0 01.314.753v2.203a1.067 1.067 0 01-.307.742 1.042 1.042 0 01-.733.31l-33.674.009zm-.064-.816H70a.254.254 0 00.234-.237v-2.211a.238.238 0 00-.068-.168.233.233 0 00-.4.168V50.1H36.52V9.139h8.239v2.105a.223.223 0 00.072.163.201.201 0 00.162.074h16.123a.215.215 0 00.171-.064.221.221 0 00.063-.173V9.106h8.344v1.583a.24.24 0 00.069.168.231.231 0 00.165.069.24.24 0 00.168-.069.246.246 0 00.074-.168V8.861a.238.238 0 00-.069-.167.233.233 0 00-.165-.07h-8.788a.215.215 0 00-.17.065.22.22 0 00-.063.172v2.098H45.227V8.878a.246.246 0 00-.065-.163.233.233 0 00-.17-.074h-8.778a.216.216 0 00-.221.143.223.223 0 00-.013.094v41.435a.235.235 0 00.17.228l.063.05z"/><path d="M44.815 11.832a.62.62 0 01-.274-.155.645.645 0 01-.185-.457V7.744a4.516 4.516 0 011.298-3.166 4.407 4.407 0 013.128-1.314h.895a3.51 3.51 0 011.185-2.045 3.434 3.434 0 012.2-.811 3.425 3.425 0 012.193.815 3.502 3.502 0 011.177 2.04h.895c1.176 0 2.304.474 3.136 1.315a4.515 4.515 0 011.298 3.174v3.468a.652.652 0 01-.186.455.637.637 0 01-.45.19H45a.454.454 0 01-.186-.033zm8.868-10.045a2.164 2.164 0 00-2.155.558 2.217 2.217 0 00-.634 1.555.649.649 0 01-.187.456.633.633 0 01-.45.189H48.79c-.838.002-1.64.34-2.232.94a3.226 3.226 0 00-.928 2.259v2.864h14.882V7.735a3.226 3.226 0 00-.928-2.259 3.15 3.15 0 00-2.233-.94h-1.475a.63.63 0 01-.453-.19.646.646 0 01-.184-.462 2.192 2.192 0 00-.637-1.55 2.188 2.188 0 00-.919-.547z"/><path d="M44.993 12.24a.868.868 0 01-.29-.05 1.022 1.022 0 01-.444-.26 1.076 1.076 0 01-.306-.743V7.744a4.93 4.93 0 011.416-3.462 4.808 4.808 0 013.42-1.434h.581a3.899 3.899 0 011.006-1.742 3.834 3.834 0 011.732-.998A3.8 3.8 0 0154.1.12a3.836 3.836 0 011.719 1.021c.47.47.812 1.054.991 1.698h.573c1.283 0 2.513.515 3.42 1.434a4.926 4.926 0 011.417 3.461v3.468a1.037 1.037 0 01-.314.754 1.015 1.015 0 01-.758.283H44.992zM53.054.816a3.033 3.033 0 00-1.94.713 3.1 3.1 0 00-1.05 1.8l-.081.335h-1.201c-1.07 0-2.094.43-2.85 1.195a4.105 4.105 0 00-1.181 2.885v3.476a.222.222 0 00.073.163c.023.03.058.051.096.057h16.188a.217.217 0 00.221-.143.224.224 0 00.013-.094V7.735c0-1.082-.425-2.12-1.18-2.884a4.006 4.006 0 00-2.85-1.195h-1.194l-.056-.335a3.076 3.076 0 00-1.05-1.803 3.009 3.009 0 00-1.95-.702h-.008zm-7.828 10.159V7.71a3.63 3.63 0 011.044-2.55 3.542 3.542 0 012.52-1.057h1.467a.215.215 0 00.17-.064.22.22 0 00.064-.172 2.596 2.596 0 01.758-1.844 2.59 2.59 0 012.547-.661c.413.122.788.35 1.089.66a2.557 2.557 0 01.741 1.87.24.24 0 00.066.172.233.233 0 00.168.072h1.475a3.558 3.558 0 012.515 1.061 3.645 3.645 0 011.05 2.547v3.264l-15.672-.033zm7.837-8.87a1.763 1.763 0 00-1.25.529c-.33.336-.516.792-.516 1.266a1.033 1.033 0 01-.306.743 1.031 1.031 0 01-.734.31H48.79c-.73.002-1.43.297-1.947.82a2.816 2.816 0 00-.81 1.97v2.448h14.076V7.744a2.815 2.815 0 00-.806-1.976 2.747 2.747 0 00-1.952-.815h-1.475a1.029 1.029 0 01-.746-.303 1.054 1.054 0 01-.31-.75c0-.476-.185-.933-.516-1.273a1.818 1.818 0 00-.75-.448 1.738 1.738 0 00-.491-.074zm-7.369 24.61a.628.628 0 01-.411-.375l-1.677-4.08a.653.653 0 01.136-.704.637.637 0 01.695-.142.636.636 0 01.346.348l1.17 2.79 2.917-5.858a.63.63 0 01.843-.262c.147.074.26.204.315.36a.652.652 0 01-.02.481l-3.54 7.116a.657.657 0 01-.597.35.465.465 0 01-.177-.024z"/><path d="M45.871 27.148a1.028 1.028 0 01-.92-.645l-1.675-4.08a1.065 1.065 0 01.222-1.147 1.037 1.037 0 011.132-.232 1.024 1.024 0 01.564.571L46 23.557l2.524-5.067a1.053 1.053 0 01.606-.527 1.033 1.033 0 011.117.316 1.061 1.061 0 01.14 1.166l-3.548 7.107a1.049 1.049 0 01-.397.443 1.03 1.03 0 01-.57.152zm-1.676-5.353h-.09a.248.248 0 00-.129.31l1.678 4.08a.238.238 0 00.153.138h.064a.232.232 0 00.21-.13l3.54-7.107a.242.242 0 00-.102-.323.234.234 0 00-.318.102l-3.313 6.65-1.476-3.582a.251.251 0 00-.129-.13l-.088-.008zm1.499 16.825a.635.635 0 01-.403-.375l-1.677-4.08a.651.651 0 01.343-.845.631.631 0 01.834.347l1.161 2.79 2.91-5.858a.633.633 0 01.858-.29.655.655 0 01.286.869l-3.546 7.108a.626.626 0 01-.589.359.55.55 0 01-.177-.025z"/><path d="M45.88 39.053a1.407 1.407 0 01-.259 0 1.028 1.028 0 01-.66-.604l-1.677-4.08a1.064 1.064 0 01.22-1.15 1.04 1.04 0 01.336-.229c.258-.108.548-.108.806 0a1.007 1.007 0 01.564.563l.807 1.95 2.523-5.067a1.052 1.052 0 01.6-.57 1.03 1.03 0 011.15.315 1.057 1.057 0 01.104 1.201l-3.539 7.116c-.095.175-.237.32-.41.419a1.046 1.046 0 01-.566.136zM44.203 33.7h-.089a.251.251 0 00-.129.13.23.23 0 000 .18l1.677 4.08a.236.236 0 00.153.139h.065a.233.233 0 00.21-.131l3.538-7.09a.24.24 0 00-.105-.32.232.232 0 00-.314.107l-3.313 6.65-1.476-3.598a.251.251 0 00-.129-.13l-.088-.017zm9.811-10.102a.646.646 0 01-.348-.277.659.659 0 01.121-.832.64.64 0 01.412-.164h7.957a.63.63 0 01.45.189.649.649 0 010 .912.633.633 0 01-.45.188h-7.989a.68.68 0 01-.153-.016z"/><path d="M54.167 24.03c-.1 0-.2-.014-.298-.04a1.057 1.057 0 01-.534-.384 1.067 1.067 0 01.096-1.376c.195-.198.46-.31.736-.313h7.957c.206 0 .407.06.579.175a1.05 1.05 0 01.446 1.08 1.057 1.057 0 01-.623.771c-.128.053-.264.08-.402.08l-7.957.008zm-.073-.816h8.062a.232.232 0 00.166-.069.238.238 0 000-.334.232.232 0 00-.166-.07h-7.989a.24.24 0 00-.166.075.246.246 0 00-.024.311c.029.041.07.072.117.088zm-.08 12.306a.65.65 0 01-.23-1.069.634.634 0 01.383-.18h7.699c.169 0 .33.068.45.189a.649.649 0 010 .912.633.633 0 01-.45.188h-7.69a.685.685 0 01-.162-.04z"/><path d="M54.175 35.952a1.04 1.04 0 01-.884-.48 1.063 1.063 0 01.192-1.369c.19-.166.433-.257.684-.256h7.699c.276 0 .54.11.735.308a1.06 1.06 0 010 1.489c-.195.197-.46.308-.735.308h-7.69zm-.072-.816h7.763a.232.232 0 00.165-.07.238.238 0 00-.165-.403h-7.69a.231.231 0 00-.224.144.24.24 0 00-.019.092.247.247 0 00.17.229v.008zm16.462-24.284a.608.608 0 00-.605-.611.608.608 0 00-.605.611v36.605c0 .338.271.612.605.612a.608.608 0 00.605-.612V10.852z"/><path d="M69.952 48.477c-.267 0-.524-.107-.713-.298a1.026 1.026 0 01-.295-.722V10.852c0-.27.106-.53.295-.72a1.002 1.002 0 011.425 0c.19.19.296.45.296.72v36.605c0 .27-.106.53-.295.721a1.002 1.002 0 01-.713.3zm0-37.828a.2.2 0 00-.142.06.206.206 0 00-.06.143v36.605c0 .054.022.106.06.145a.2.2 0 00.284 0 .205.205 0 00.06-.145V10.852a.205.205 0 00-.178-.204h-.024z"/></g><defs><clipPath id="clip0_146_1396"><path fill="#fff" d="M0 0h71v67H0z"/></clipPath></defs></svg>