<svg width="64" height="64" fill="none" xmlns="http://www.w3.org/2000/svg"><path d="M30.692 60.893a4.003 4.003 0 01-5.057 1.334A43.353 43.353 0 017.393 44.56a42.798 42.798 0 01-5.938-24.733 3.919 3.919 0 013.75-3.614L9.634 16a4.14 4.14 0 013.963 2.504c.219.511.332 1.06.334 1.616 0 2.347 0 5.067.12 6.587.187 3.013-4.644 2.666-4.444 5.653.2 2.987 2.228 6.547 3.576 8.973 1.348 2.427 3.39 5.907 5.899 7.6 2.508 1.694 4.63-2.666 7.139-.933 1.254.853 3.59 2.253 5.618 3.44a4.122 4.122 0 011.941 4.256 4.116 4.116 0 01-.607 1.53l-2.482 3.667z" stroke="#4452EA" stroke-width="2" stroke-linecap="round" stroke-linejoin="round"/><path d="M11.303 9.333a30.7 30.7 0 0126.376-7.451 30.705 30.705 0 0112.864 5.721 30.646 30.646 0 01-.256 49.01A30.706 30.706 0 0137.364 62.2" stroke="#4452EA" stroke-width="2" stroke-linecap="round" stroke-linejoin="round"/><path d="M33.361 37.333H24.02v-2.666c1.748-2.894 9.341-4.76 9.341-9.334 0-5.333-9.341-5.333-9.341 0m22.686 12v-16h-2.67l-6.672 12h12.01" stroke="#4452EA" stroke-width="2" stroke-linecap="round" stroke-linejoin="round"/></svg>