<svg width="198" height="79" fill="none" xmlns="http://www.w3.org/2000/svg"><path d="M8.666 56.386H3.047V78.17h5.619V56.386zm23.722-.602a7.313 7.313 0 00-6.42 2.966v-2.453h-5.62V78.08h5.62V66.42a5.619 5.619 0 011.315-4.058 4.66 4.66 0 013.478-1.383 4.324 4.324 0 013.144 1.16 4.458 4.458 0 011.181 3.344v12.664h5.619V64.77a9.095 9.095 0 00-2.23-6.69 7.915 7.915 0 00-6.087-2.296zm31.75 0a7.246 7.246 0 00-6.488 2.966v-2.453h-5.62V78.08h5.619V66.42a5.527 5.527 0 011.315-4.058 4.66 4.66 0 013.478-1.383 4.324 4.324 0 013.144 1.16 4.458 4.458 0 011.16 3.344v12.664h5.64V64.77a9.097 9.097 0 00-2.23-6.69 7.936 7.936 0 00-6.02-2.296zm64.123 0a7.248 7.248 0 00-6.511 2.966V47.602h-5.618v30.567h5.618V66.42a5.62 5.62 0 011.294-4.057 4.653 4.653 0 013.5-1.383 4.3 4.3 0 013.121 1.16 4.445 4.445 0 011.182 3.344v12.664h5.619V64.77a9.183 9.183 0 00-2.23-6.69 7.98 7.98 0 00-5.975-2.296zm25.15.602h-5.619V78.17h5.619V56.386zm41.738 1.829a7.694 7.694 0 00-5.976-2.43 7.38 7.38 0 00-6.488 3.143 6.47 6.47 0 00-5.931-3.144 6.797 6.797 0 00-6.131 2.966v-2.23h-5.618v21.783h5.618V65.93a5.438 5.438 0 011.115-3.657 3.768 3.768 0 012.988-1.27 3.453 3.453 0 012.697 1.092 4.455 4.455 0 01.959 3.055v13.02h5.619V65.93a5.55 5.55 0 011.07-3.657 3.674 3.674 0 012.987-1.27 3.455 3.455 0 012.698 1.092 4.455 4.455 0 01.959 3.055v13.02h5.663V64.793a9.302 9.302 0 00-2.229-6.577zM45.9 13.69a6.687 6.687 0 002.698.535 7.113 7.113 0 10-6.555-9.81A7.068 7.068 0 0045.9 13.69zm-1.338-8.228a4.459 4.459 0 118.306 3.247 4.459 4.459 0 01-8.306-3.247zm18.907 18.64c.652.263 1.348.4 2.051.401a5.127 5.127 0 002.051-.424 5.217 5.217 0 002.899-2.898 5.351 5.351 0 10-7.001 2.92zm-.401-5.976a2.64 2.64 0 014.882 2.007 2.653 2.653 0 01-4.882 0 2.676 2.676 0 010-2.006zm89.54 25.842a5.395 5.395 0 00-7.001 2.92 5.444 5.444 0 000 4.103 5.27 5.27 0 002.921 2.898 5.06 5.06 0 002.029.402 5.348 5.348 0 005.323-4.308 5.354 5.354 0 00-3.272-6.015zm.401 5.975a2.64 2.64 0 01-1.43 1.434 2.63 2.63 0 01-2.026-.007 2.558 2.558 0 01-1.426-1.427 2.6 2.6 0 010-2.007 2.675 2.675 0 011.426-1.449 2.676 2.676 0 012.029 0 2.652 2.652 0 011.427 3.456z" fill="#2C3B97"/><path d="M102.264 59.106a11.152 11.152 0 00-8.183-3.322 10.97 10.97 0 00-7.135 2.475L75.308 45.372a7.11 7.11 0 00.78-1.404 6.957 6.957 0 000-5.017l7.67-4.705c.48.434 1.03.78 1.628 1.026a6.198 6.198 0 10-3.278-3.188l-7.357 4.593a7.089 7.089 0 00-11.884 1.962 5.88 5.88 0 00-.312 1.07l-11.728-3.255A13.622 13.622 0 0042.4 23.968a13.377 13.377 0 00-9.52-.267l-1.45-2.23a6.844 6.844 0 001.874-2.52 7.112 7.112 0 10-13.133 0 7.002 7.002 0 003.857 3.835 7.16 7.16 0 002.698.535 7.29 7.29 0 002.386-.445l1.27 2.05a13.378 13.378 0 00-6.376 14.85l-13.801 6.443a5.418 5.418 0 00-2.497-2.118 5.373 5.373 0 10-4.08 9.922 5.13 5.13 0 002.006.268 5.53 5.53 0 002.052-.424 5.284 5.284 0 002.898-2.898 5.395 5.395 0 00.379-2.409l13.868-6.465a13.578 13.578 0 0024.882-.535c.327-.816.58-1.66.758-2.52l11.973 3.345a7.068 7.068 0 007.001 5.953c.935 0 1.86-.19 2.72-.558a6.18 6.18 0 001.07-.58l11.684 12.865a11.505 11.505 0 1017.257-1.092l.089.133zM84.65 28.338a3.479 3.479 0 013.188-2.23c.45-.007.898.077 1.316.246a3.457 3.457 0 11-4.46 1.873l-.044.111zM8.108 49.943a2.564 2.564 0 01-1.427 1.427 2.43 2.43 0 01-2.006 0 2.63 2.63 0 01.984-5.07 2.642 2.642 0 012.647 2.632 2.64 2.64 0 01-.198 1.01zm16.967-29.81a4.28 4.28 0 01-2.385-2.363 4.459 4.459 0 014.057-6.065 4.279 4.279 0 011.65.335 4.459 4.459 0 012.386 5.73 4.46 4.46 0 01-5.708 2.363zm22.296 20.535a10.882 10.882 0 01-6.064 5.886 10.724 10.724 0 01-8.339 0 10.903 10.903 0 1114.225-5.909l.178.023zm26.198 2.475a4.46 4.46 0 11-8.314-3.231 4.46 4.46 0 018.314 3.23zm20.69 32.418a8.182 8.182 0 118.183-8.183 8.18 8.18 0 01-8.182 8.071v.112z" fill="#2C3B97"/></svg>