<svg width="22" height="23" fill="none" xmlns="http://www.w3.org/2000/svg"><g clip-path="url(#clip0_185_102)" fill="#C4C4C4"><path d="M20.412 23a1.528 1.528 0 01-.61-.132 1.575 1.575 0 01-.513-.366L.73 2.788a1.674 1.674 0 01-.45-1.167C.284 1.185.456.769.758.465A1.558 1.558 0 011.885 0c.421.006.822.184 1.116.496L21.544 20.21c.219.23.367.524.425.842.058.318.025.647-.097.945a1.63 1.63 0 01-.586.731c-.26.179-.567.274-.88.273h.006z"/><path d="M1.586 23c-.313 0-.618-.095-.879-.274a1.63 1.63 0 01-.585-.731 1.696 1.696 0 01-.096-.945c.058-.318.206-.61.425-.841L19.01.495a1.565 1.565 0 011.117-.5c.422-.006.829.16 1.132.465.302.304.476.72.482 1.157.007.436-.155.858-.448 1.171L2.733 22.502A1.573 1.573 0 011.586 23z"/></g><defs><clipPath id="clip0_185_102"><path fill="#fff" d="M0 0h22v23H0z"/></clipPath></defs></svg>