<svg width="45" height="38" fill="none" xmlns="http://www.w3.org/2000/svg"><g clip-path="url(#clip0_152_42)" fill="#fff"><path d="M31.855 34.574a.441.441 0 01-.404-.268.432.432 0 01-.033-.166v-1.114a.432.432 0 01.437-.424.428.428 0 01.385.424v1.145a.422.422 0 01-.385.403zm0-4.51a.44.44 0 01-.404-.268.431.431 0 01-.033-.166v-2.25a.42.42 0 01.27-.394c.053-.02.11-.03.167-.029a.428.428 0 01.426.423v2.25a.422.422 0 01-.426.434zm0-5.625a.432.432 0 01-.404-.259.42.42 0 01-.033-.164v-2.25a.431.431 0 01.27-.4.44.44 0 01.332 0 .426.426 0 01.261.4v2.25a.422.422 0 01-.426.423zm0-5.614a.432.432 0 01-.404-.26.42.42 0 01-.033-.164v-1.145a.431.431 0 01.27-.4.44.44 0 01.332 0 .426.426 0 01.261.4V18.4a.422.422 0 01-.426.424z"/><path d="M30.316 38H1.976a1.984 1.984 0 01-1.397-.574A1.953 1.953 0 010 36.039V17.33A17.282 17.282 0 015.12 5.08 17.55 17.55 0 0117.461 0h27.113a.429.429 0 01.397.268.42.42 0 01.029.165.421.421 0 01-.426.424 12.385 12.385 0 00-4.713.918 12.31 12.31 0 00-4 2.64 12.203 12.203 0 00-2.676 3.957 12.13 12.13 0 00-.946 4.673v4.21c0 .113-.044.22-.124.3a.428.428 0 01-.302.124.43.43 0 01-.403-.259.42.42 0 01-.034-.164v-4.21a12.997 12.997 0 012.339-7.406A13.152 13.152 0 0139.873.857H17.46c-4.413 0-8.645 1.74-11.766 4.836A16.45 16.45 0 00.822 17.37v18.67a1.097 1.097 0 00.336.803 1.113 1.113 0 00.818.312h28.34c.293-.003.573-.12.78-.327a1.1 1.1 0 00.322-.778v-1.91a.432.432 0 01.437-.423.428.428 0 01.426.423v1.9c0 .517-.207 1.015-.575 1.382a1.983 1.983 0 01-1.39.578z"/><path d="M43.024 14.449h-11.17a.438.438 0 01-.436-.434.432.432 0 01.437-.433h11.17a1.11 1.11 0 00.785-.317 1.094 1.094 0 00.327-.777V.433a.43.43 0 01.27-.4.44.44 0 01.332 0 .427.427 0 01.261.4v12.003a1.956 1.956 0 01-.563 1.417 1.988 1.988 0 01-1.413.596zM17.606 34.574h-3.213a1.046 1.046 0 01-1.008-.625 1.025 1.025 0 01-.084-.407v-1.136a11.155 11.155 0 01-2.798-1.145l-.8.733a1.04 1.04 0 01-1.19.25 1.04 1.04 0 01-.35-.25l-2.277-2.24a1.08 1.08 0 010-1.517l.811-.805a10.709 10.709 0 01-1.165-2.776H4.4a1.048 1.048 0 01-.77-.284 1.032 1.032 0 01-.322-.748v-3.2a1.025 1.025 0 01.322-.748 1.04 1.04 0 01.77-.284h1.133c.246-1.01.638-1.98 1.165-2.88l-.811-.804a1.08 1.08 0 010-1.517l2.277-2.26a1.04 1.04 0 01.77-.338 1.047 1.047 0 01.77.338l.8.794a11.155 11.155 0 012.798-1.145v-1.136a1.024 1.024 0 01.323-.748 1.041 1.041 0 01.769-.284h3.213a1.047 1.047 0 01.77.284 1.03 1.03 0 01.322.748v1.136c.981.253 1.922.638 2.798 1.145l.8-.794a1.04 1.04 0 01.77-.338 1.047 1.047 0 01.77.338l2.277 2.26a1.08 1.08 0 010 1.517l-.81.805c.517.866.909 1.801 1.164 2.776h1.134a1.048 1.048 0 01.769.283 1.031 1.031 0 01.323.749v3.2a1.026 1.026 0 01-.678.968c-.133.049-.274.07-.414.063h-1.134c-.255.975-.647 1.91-1.165 2.777l.811.805a1.08 1.08 0 010 1.517l-2.277 2.343a1.04 1.04 0 01-1.19.25 1.04 1.04 0 01-.35-.25l-.8-.795a11.17 11.17 0 01-2.777 1.166V33.5a1.026 1.026 0 01-.314.784 1.042 1.042 0 01-.799.29zM10.4 30.239a.355.355 0 01.23.072 10.077 10.077 0 003.12 1.3.427.427 0 01.332.413V33.5a.227.227 0 00.229.217h3.213a.219.219 0 00.219-.217v-1.506a.432.432 0 01.343-.413 9.919 9.919 0 003.12-1.3.429.429 0 01.54.061l1.04 1.032a.206.206 0 00.157.07.209.209 0 00.155-.07l2.278-2.26a.216.216 0 000-.3l-1.04-1.031a.432.432 0 01-.062-.537 9.723 9.723 0 001.31-3.096.434.434 0 01.426-.34h1.477a.22.22 0 00.202-.134.215.215 0 00.017-.083v-3.2a.22.22 0 00-.218-.217h-1.363a.438.438 0 01-.427-.34 9.723 9.723 0 00-1.31-3.096.43.43 0 01.063-.537l1.04-1.032a.216.216 0 000-.3l-2.278-2.26a.217.217 0 00-.156-.064.22.22 0 00-.156.065l-1.04 1.032a.428.428 0 01-.54.062 9.921 9.921 0 00-3.12-1.3.437.437 0 01-.344-.414v-1.527a.217.217 0 00-.218-.217h-3.245a.227.227 0 00-.229.217v1.476a.42.42 0 01-.333.413 10.077 10.077 0 00-3.12 1.3.419.419 0 01-.53-.062L9.14 12.56a.217.217 0 00-.24-.048.217.217 0 00-.072.048l-2.33 2.26a.216.216 0 000 .3l1.04 1.031a.432.432 0 01.063.537 9.723 9.723 0 00-1.31 3.096.433.433 0 01-.427.34H4.399a.22.22 0 00-.202.135.215.215 0 00-.017.083v3.199a.215.215 0 00.135.2.22.22 0 00.084.017h1.476a.44.44 0 01.427.34 9.723 9.723 0 001.31 3.096.43.43 0 01-.062.537l-1.04 1.032a.216.216 0 000 .3l2.277 2.26a.207.207 0 00.156.07.209.209 0 00.156-.07l1.04-1.032a.429.429 0 01.26-.052z"/><path d="M21.506 22.416a.43.43 0 01-.397-.268.42.42 0 01-.03-.165 5.176 5.176 0 00-.114-1.032.431.431 0 01.843-.176c.091.403.137.815.135 1.228a.433.433 0 01-.437.413zm-1.091-3.271a.419.419 0 01-.343-.176 5.117 5.117 0 00-1.04-1.032.426.426 0 01-.158-.449.422.422 0 01.074-.15.426.426 0 01.604-.093c.472.34.893.748 1.248 1.208a.421.421 0 01-.084.599.419.419 0 01-.301.093zM17.15 17.06h-.094a5.13 5.13 0 00-1.04-.103.428.428 0 01-.39-.278.42.42 0 01-.026-.166.421.421 0 01.426-.423c.416-.002.831.04 1.238.123a.428.428 0 01.336.34.422.422 0 01-.003.166.423.423 0 01-.447.34z"/><path d="M15.995 27.865a5.962 5.962 0 01-4.2-1.726 5.87 5.87 0 01-1.738-4.167 5.87 5.87 0 011.739-4.167 5.961 5.961 0 014.199-1.726.428.428 0 01.437.423.432.432 0 01-.437.434 5.102 5.102 0 00-2.817.854 5.044 5.044 0 00-1.864 2.262 5 5 0 00-.285 2.91 5.025 5.025 0 001.391 2.575 5.087 5.087 0 002.599 1.376 5.111 5.111 0 002.93-.289 5.067 5.067 0 002.277-1.855 5.01 5.01 0 00.854-2.797.422.422 0 01.427-.433.44.44 0 01.403.267.431.431 0 01.034.166 5.88 5.88 0 01-1.746 4.168 5.972 5.972 0 01-4.203 1.725zm19.094-3.622a.43.43 0 01-.397-.268.42.42 0 01-.03-.166v-5.975a.42.42 0 01.261-.4.43.43 0 01.166-.034h6.843a.43.43 0 01.397.269.42.42 0 01.03.165.421.421 0 01-.427.423h-6.407v5.552a.432.432 0 01-.436.434z"/></g><defs><clipPath id="clip0_152_42"><path fill="#fff" d="M0 0h45v38H0z"/></clipPath></defs></svg>