<svg width="42" height="36" fill="none" xmlns="http://www.w3.org/2000/svg"><g clip-path="url(#clip0_152_16)" fill="#4452EA"><path d="M5.323 36a5.229 5.229 0 01-2.96-.915 5.43 5.43 0 01-1.966-2.45 5.586 5.586 0 01-.305-3.154 5.501 5.501 0 011.457-2.797 5.283 5.283 0 012.728-1.494 5.2 5.2 0 013.077.313 5.354 5.354 0 012.388 2.014c.585.9.895 1.956.893 3.036a5.528 5.528 0 01-1.559 3.849A5.257 5.257 0 015.323 36zm0-10.038a4.4 4.4 0 00-2.49.768 4.568 4.568 0 00-1.654 2.059 4.7 4.7 0 00-.26 2.653c.172.892.598 1.71 1.224 2.354a4.445 4.445 0 002.292 1.26c.87.177 1.77.087 2.589-.26a4.504 4.504 0 002.011-1.691 4.674 4.674 0 00.756-2.552 4.65 4.65 0 00-1.308-3.243 4.423 4.423 0 00-3.16-1.348z"/><path d="M5.324 33.391a2.695 2.695 0 01-1.106-.163 2.747 2.747 0 01-.952-.6 2.83 2.83 0 01-.641-.938 2.89 2.89 0 010-2.243 2.83 2.83 0 01.641-.938 2.724 2.724 0 012.058-.763.406.406 0 01.299.129.43.43 0 01.118.31.433.433 0 01-.122.302.412.412 0 01-.295.125 1.87 1.87 0 00-.774.106c-.248.09-.476.23-.668.414a1.962 1.962 0 00-.452.653 2.004 2.004 0 00.452 2.22 1.87 1.87 0 001.442.52.41.41 0 01.299.13.429.429 0 01.118.308.434.434 0 01-.122.303.412.412 0 01-.295.125z"/><path d="M10.178 30.98a.407.407 0 01-.302-.12.429.429 0 01-.125-.307 4.697 4.697 0 00-.278-1.823 4.61 4.61 0 00-.954-1.564 4.476 4.476 0 00-1.478-1.052 4.383 4.383 0 00-3.526 0 4.477 4.477 0 00-1.478 1.052 4.61 4.61 0 00-.955 1.564 4.697 4.697 0 00-.277 1.823.433.433 0 01-.122.302.412.412 0 01-.295.126.413.413 0 01-.276-.136.434.434 0 01-.11-.292V5.51a5.583 5.583 0 01.335-2.161c.253-.69.64-1.32 1.137-1.852A5.322 5.322 0 013.228.252a5.21 5.21 0 014.181 0c.66.29 1.258.713 1.755 1.245A5.48 5.48 0 0110.3 3.35a5.59 5.59 0 01.336 2.16v25.044a.438.438 0 01-.136.318.416.416 0 01-.322.11zM5.324.867a4.422 4.422 0 00-3.167 1.345A4.651 4.651 0 00.846 5.457V27.6a5.367 5.367 0 011.924-1.84 5.209 5.209 0 012.549-.668c.89 0 1.767.23 2.549.668A5.367 5.367 0 019.79 27.6V5.457a4.65 4.65 0 00-1.308-3.243A4.423 4.423 0 005.323.866z"/><path d="M38.53 36h-2.147a.408.408 0 01-.302-.122.428.428 0 01-.126-.306c0-.116.046-.228.126-.31a.422.422 0 01.302-.128h2.147a2.593 2.593 0 001.847-.789c.49-.502.766-1.182.769-1.893V8.577a2.73 2.73 0 00-.766-1.9 2.594 2.594 0 00-1.85-.792H10.177a.408.408 0 01-.301-.121.428.428 0 01-.126-.307c0-.116.045-.227.125-.31a.422.422 0 01.302-.128H38.53c.92 0 1.803.375 2.454 1.042a3.605 3.605 0 011.017 2.516v23.875a3.604 3.604 0 01-1.02 2.51A3.427 3.427 0 0138.53 36zm-25.024 0h-1.13a.412.412 0 01-.295-.125.434.434 0 01-.122-.303.438.438 0 01.119-.31.416.416 0 01.298-.128h1.13c.113 0 .222.046.302.128a.444.444 0 010 .616.414.414 0 01-.302.122zm18.124 0h-2.422a.412.412 0 01-.295-.125.434.434 0 01-.122-.303.44.44 0 01.119-.31.417.417 0 01.298-.128h2.422a.41.41 0 01.3.129.427.427 0 01.118.31.433.433 0 01-.123.302.412.412 0 01-.295.125zm-6.045 0h-2.412a.407.407 0 01-.301-.122.429.429 0 01-.126-.306.448.448 0 01.125-.31.429.429 0 01.302-.128h2.412a.42.42 0 01.302.128.444.444 0 010 .616.414.414 0 01-.302.122zm-6.035 0h-2.422a.412.412 0 01-.295-.125.433.433 0 01-.122-.303.436.436 0 01.119-.31.417.417 0 01.298-.128h2.422a.41.41 0 01.3.129.43.43 0 01.118.31.434.434 0 01-.122.302.412.412 0 01-.296.125z"/><path d="M36.383 36h-1.13a.408.408 0 01-.301-.122.428.428 0 01-.126-.306c0-.116.045-.228.125-.31a.422.422 0 01.303-.128h1.13a.41.41 0 01.298.129.43.43 0 01.118.31.434.434 0 01-.122.302.412.412 0 01-.295.125zm-24.006 0H5.324a.408.408 0 01-.302-.122.429.429 0 01-.126-.306c0-.116.046-.228.126-.31a.422.422 0 01.302-.128h7.053c.113 0 .222.046.302.128a.444.444 0 010 .616.414.414 0 01-.303.122zM4.152 22.78a.408.408 0 01-.299-.13.43.43 0 01-.119-.31V5.458a.437.437 0 01.12-.309.417.417 0 01.298-.129c.113 0 .222.046.302.128.08.083.125.194.125.31v16.884a.444.444 0 01-.125.31.422.422 0 01-.302.128zm25.595-6.585h-13.23a.42.42 0 01-.226-.067.449.449 0 01-.109-.643L21.27 8.88a.43.43 0 01.336-.167h13.23a.42.42 0 01.229.068.435.435 0 01.107.631l-5.089 6.616a.43.43 0 01-.336.167zm-12.334-.866h12.1l4.417-5.75h-12.1l-4.417 5.75zm12.335 11.374h-13.23a.443.443 0 01-.387-.24.435.435 0 010-.46l5.089-6.615a.429.429 0 01.336-.167h13.23a.42.42 0 01.227.067.435.435 0 01.198.418.445.445 0 01-.09.224l-5.088 6.606a.43.43 0 01-.285.166zm-12.334-.866h12.1l4.417-5.75h-12.1l-4.417 5.75zm20.242-3.924a.41.41 0 01-.264-.094.457.457 0 01-.071-.616l.701-.907a.423.423 0 01.606-.047.445.445 0 01.046.62l-.702.919a.428.428 0 01-.316.125zm-3.146 4.059a.431.431 0 01-.335-.7l1.242-1.616a.435.435 0 01.29-.206.418.418 0 01.343.089.436.436 0 01.16.323.447.447 0 01-.132.336l-1.242 1.617a.417.417 0 01-.325.157zm-2.564 3.339h-1.13a.422.422 0 01-.302-.128.444.444 0 010-.62.422.422 0 01.302-.128h.926l.57-.741a.434.434 0 01.291-.206.418.418 0 01.343.089.436.436 0 01.16.323.449.449 0 01-.132.337l-.692.907a.43.43 0 01-.336.167zm-4.467 0H25.33a.422.422 0 01-.302-.128.444.444 0 010-.62.422.422 0 01.302-.128h2.148c.113 0 .222.046.302.128a.444.444 0 010 .62.422.422 0 01-.302.128zm-5.486 0h-2.157a.422.422 0 01-.303-.128.443.443 0 010-.62.422.422 0 01.303-.128h2.198c.113 0 .222.046.302.128a.444.444 0 010 .62.422.422 0 01-.302.128h-.04zm-5.443 0h-1.13a.422.422 0 01-.303-.128.443.443 0 010-.62.422.422 0 01.303-.128h1.13c.113 0 .221.046.302.128a.444.444 0 010 .62.422.422 0 01-.303.128z"/><path d="M29.748 26.703a.418.418 0 01-.303-.129.44.44 0 01-.125-.31V15.757a.438.438 0 01.126-.307.414.414 0 01.302-.121c.11 0 .216.045.295.125.078.08.122.189.122.303v10.507a.437.437 0 01-.119.31.416.416 0 01-.298.129zm5.078-6.616a.412.412 0 01-.295-.125.434.434 0 01-.123-.303V9.151a.44.44 0 01.119-.309.417.417 0 01.462-.096.427.427 0 01.232.238c.021.053.032.11.032.167V19.66a.438.438 0 01-.126.306.416.416 0 01-.301.122zm-18.277 6.616a.417.417 0 01-.303-.129.44.44 0 01-.125-.31V15.757a.441.441 0 01.144-.266.421.421 0 01.556 0 .441.441 0 01.145.266v10.507a.444.444 0 01-.122.307.422.422 0 01-.296.132zm5.078-6.616a.408.408 0 01-.302-.122.43.43 0 01-.126-.306v-1.158c0-.117.045-.228.125-.31a.422.422 0 01.605 0c.08.082.125.194.125.31v1.158a.438.438 0 01-.126.306.414.414 0 01-.301.122zm0-4.227a.417.417 0 01-.303-.128.437.437 0 01-.125-.31v-2.086c0-.117.045-.228.125-.31a.422.422 0 01.605 0c.08.082.125.193.125.31v2.086a.444.444 0 01-.125.31.422.422 0 01-.302.129zm0-5.123a.408.408 0 01-.302-.121.43.43 0 01-.126-.306V9.15c0-.116.045-.227.125-.31a.422.422 0 01.605 0c.08.083.125.194.125.31v1.159a.438.438 0 01-.126.306.417.417 0 01-.301.121z"/></g><defs><clipPath id="clip0_152_16"><path fill="#fff" d="M0 0h42v36H0z"/></clipPath></defs></svg>