<svg width="40" height="35" fill="none" xmlns="http://www.w3.org/2000/svg"><g clip-path="url(#clip0_153_93)" fill="#4452EA"><path d="M36.014 35H.398a.396.396 0 01-.281-.118.407.407 0 01-.117-.286V4.2c0-.106.043-.208.118-.283a.395.395 0 01.28-.117h35.616c.105 0 .205.042.28.117a.403.403 0 01.115.283v30.396a.407.407 0 01-.116.284.395.395 0 01-.279.12zM.793 34.214h34.823V4.604H.793v29.61z"/><path d="M4.564 13.948a.395.395 0 01-.281-.119.407.407 0 01-.117-.285V8.426a.406.406 0 01.118-.283.395.395 0 01.28-.117H9.38a.4.4 0 01.257.13.407.407 0 01-.257.674H4.96v4.732a.407.407 0 01-.122.273.396.396 0 01-.273.113zm27.284 0a.395.395 0 01-.281-.119.407.407 0 01-.117-.285V8.83h-4.416a.393.393 0 01-.306-.103.403.403 0 01-.13-.3.408.408 0 01.272-.382.393.393 0 01.164-.02h4.814c.105 0 .206.043.28.118a.403.403 0 01.115.283v5.118a.407.407 0 01-.115.284.395.395 0 01-.28.12zM9.379 30.774H4.564a.395.395 0 01-.281-.118.407.407 0 01-.117-.286v-5.117c.01-.1.055-.193.129-.26a.395.395 0 01.664.26v4.732h4.42c.099.009.19.056.257.13a.407.407 0 010 .544.396.396 0 01-.257.13v-.015zm22.469 0h-4.814a.391.391 0 01-.306-.103.402.402 0 01-.13-.3.408.408 0 01.272-.382.393.393 0 01.164-.02h4.416v-4.731c.01-.1.055-.193.129-.26a.395.395 0 01.664.26v5.132a.407.407 0 01-.115.284.395.395 0 01-.28.12zm-10.588-12.6H9.874a.396.396 0 01-.28-.12.407.407 0 01-.114-.284v-5.893c0-.107.041-.208.115-.283a.392.392 0 01.28-.118H21.26c.105 0 .206.042.28.117a.407.407 0 01.118.284v5.893c0 .107-.042.21-.117.285a.395.395 0 01-.281.119zm-10.989-.805h10.595v-5.096H10.271v5.096zm16.035 10.846H14.764a.395.395 0 01-.28-.12.407.407 0 01-.115-.284V23.66c0-.107.042-.208.116-.284a.392.392 0 01.279-.117h11.542c.105 0 .205.042.28.117a.407.407 0 01.118.284v4.149a.409.409 0 01-.245.376.393.393 0 01-.153.031zm-11.144-.804h10.763v-3.345H15.162v3.345z"/><path d="M14.764 26.14H13.71a.393.393 0 01-.402-.238.408.408 0 01.239-.547.393.393 0 01.163-.019h1.055a.393.393 0 01.402.24.41.41 0 01-.096.462.396.396 0 01-.306.103zm-3.833 0H9.873a.395.395 0 01-.28-.119.407.407 0 01-.115-.284v-1.07a.41.41 0 01.236-.408.393.393 0 01.455.098.405.405 0 01.102.31v.67h.66c.099.01.19.055.257.13a.408.408 0 010 .544.396.396 0 01-.257.13zm-1.057-4.101a.395.395 0 01-.28-.12.407.407 0 01-.115-.284v-.67h-.663a.396.396 0 01-.257-.13.407.407 0 010-.544.396.396 0 01.257-.13h1.058c.105 0 .206.042.28.117a.406.406 0 01.118.283v1.074c0 .107-.042.21-.116.285a.395.395 0 01-.282.119zm-4.256-1.074H4.563a.392.392 0 01-.306-.103.404.404 0 01-.096-.462.404.404 0 01.238-.22.392.392 0 01.164-.02h1.055a.392.392 0 01.305.104.404.404 0 01.097.462.404.404 0 01-.239.22.392.392 0 01-.163.02zm16.702-5.893h-1.077a.396.396 0 01-.257-.13.407.407 0 01.257-.674h1.077a.391.391 0 01.305.103.403.403 0 01.13.3.41.41 0 01-.13.298.397.397 0 01-.305.103zm2.687 1.074a.395.395 0 01-.28-.12.407.407 0 01-.115-.284v-.67h-.664a.396.396 0 01-.256-.13.407.407 0 01.256-.674h1.077c.105 0 .206.042.28.117a.406.406 0 01.118.283v1.092a.41.41 0 01-.13.28.398.398 0 01-.286.106zm1.058 3.144h-1.077a.395.395 0 01-.279-.119.407.407 0 01-.115-.284v-1.052a.41.41 0 01.235-.408.393.393 0 01.456.098.406.406 0 01.102.31v.67h.66c.098.01.19.056.256.13a.407.407 0 01-.256.674l.018-.018zm2.952 0h-1.18a.393.393 0 01-.403-.238.41.41 0 01.097-.462.398.398 0 01.305-.104h1.18a.393.393 0 01.403.24.408.408 0 01-.239.546.393.393 0 01-.163.019zm2.831 0h-1.076a.393.393 0 01-.402-.238.408.408 0 01.238-.547.393.393 0 01.164-.019h1.076a.4.4 0 01.257.13.408.408 0 010 .544.396.396 0 01-.257.13zm-14.104 4.776a.393.393 0 01-.28-.12.405.405 0 01-.114-.288v-1.066a.408.408 0 01.235-.408.393.393 0 01.456.098.405.405 0 01.101.31v1.066a.408.408 0 01-.245.377.394.394 0 01-.153.031zm0-4.819a.396.396 0 01-.279-.12.407.407 0 01-.115-.284v-1.092a.402.402 0 01.128-.26.395.395 0 01.664.26v1.092c0 .107-.041.21-.116.286a.395.395 0 01-.282.118zm21.861 8.288a.396.396 0 01-.28-.117.408.408 0 01-.118-.284v-1.091c.01-.1.055-.194.129-.261a.395.395 0 01.535 0c.074.067.12.16.129.26v1.092a.403.403 0 01-.116.284.392.392 0 01-.279.117z"/><path d="M39.605 27.611a.396.396 0 01-.281-.118.407.407 0 01-.117-.286V2.747a.41.41 0 01.235-.407.394.394 0 01.456.098.407.407 0 01.102.31v24.46a.407.407 0 01-.116.284.395.395 0 01-.279.12z"/><path d="M39.605 31.2h-3.587a.396.396 0 01-.282-.118.407.407 0 01-.116-.286V4.59H3.99a.395.395 0 01-.28-.112.407.407 0 01-.122-.278V.404A.41.41 0 013.836.03.406.406 0 013.99 0h35.615a.396.396 0 01.28.12.407.407 0 01.115.284v2.344a.406.406 0 01-.128.26.395.395 0 01-.536 0 .406.406 0 01-.129-.26V.804H4.384V3.8h31.63c.105 0 .205.042.28.117a.403.403 0 01.115.283v26.207h2.798V27.13a.41.41 0 01.102-.31.4.4 0 01.295-.133.395.395 0 01.377.277c.018.053.024.11.02.166v3.665a.407.407 0 01-.116.285.396.396 0 01-.28.12z"/></g><defs><clipPath id="clip0_153_93"><path fill="#fff" d="M0 0h40v35H0z"/></clipPath></defs></svg>