<svg width="44" height="35" fill="none" xmlns="http://www.w3.org/2000/svg"><path d="M14.35 27.268h-.133a.384.384 0 01-.264-.184l-10.47-16.77a.411.411 0 01.133-.583L9.14 6.193a.424.424 0 01.579.133l10.591 16.76a.421.421 0 01-.132.582l-5.605 3.538a.434.434 0 01-.224.062zM4.417 10.232L14.48 26.266l4.834-3.068L9.262 7.164l-4.844 3.068z" fill="#4452EA"/><path d="M3.23 10.835a.808.808 0 01-.69-.378L.133 6.612a.823.823 0 01.254-1.125l6.367-4.09a.818.818 0 011.117.256l2.407 3.845a.813.813 0 01.101.613.818.818 0 01-.355.511l-6.367 4.09a.819.819 0 01-.426.123zM.866 6.193L3.25 9.997l6.326-4.09L7.16 2.154.865 6.193z" fill="#4452EA"/><path d="M5.14 9.67a.657.657 0 01-.346-.113 1.122 1.122 0 01-.315-.348L2.032 5.385a1.028 1.028 0 01-.163-.675.503.503 0 01.234-.337l2.894-1.81c.294-.194.68 0 .934.368l2.407 3.835c.254.409.223.818-.071 1.022l-2.854 1.8a.505.505 0 01-.274.082zM2.802 4.956L5.17 8.739l2.437-1.575L5.23 3.412 2.803 4.956z" fill="#4452EA"/><path d="M.945 6.06a.424.424 0 01-.356-.195 3.836 3.836 0 01-.497-2.88A3.833 3.833 0 011.762.594a3.778 3.778 0 012.86-.502 3.78 3.78 0 012.375 1.683.44.44 0 01.112.327.45.45 0 01-.193.276l-5.748 3.62a.434.434 0 01-.223.061zM3.788.853a2.97 2.97 0 00-1.564.46 2.933 2.933 0 00-1.3 1.862 2.995 2.995 0 00.173 1.86l4.935-3.139a2.82 2.82 0 00-1.594-.96 2.825 2.825 0 00-.65-.083zm16.582 29.83a.413.413 0 01-.213 0l-6.022-3.405a.449.449 0 01-.213-.358.411.411 0 01.203-.368l5.555-3.538a.404.404 0 01.416 0 .428.428 0 01.224.348l.467 6.943a.42.42 0 01-.193.388.433.433 0 01-.224-.01zm-5.199-3.845l4.722 2.67-.366-5.44-4.356 2.77z" fill="#4452EA"/><path d="M17.121 25.509a.426.426 0 01-.355-.204L6.256 8.555a.432.432 0 01.132-.593.424.424 0 01.589.133l10.51 16.76a.432.432 0 01-.132.582.486.486 0 01-.234.072zm22.158 8.498a4.698 4.698 0 01-2.624-.802 4.748 4.748 0 01-1.739-2.134 4.786 4.786 0 011.024-5.182 4.691 4.691 0 015.146-1.03c.862.36 1.6.969 2.119 1.75a4.779 4.779 0 01-.588 6.005 4.705 4.705 0 01-3.338 1.393zm0-8.662A3.86 3.86 0 0037.12 26a3.9 3.9 0 00-1.434 1.75 3.932 3.932 0 00.835 4.261 3.854 3.854 0 004.229.851 3.885 3.885 0 001.742-1.438 3.926 3.926 0 00-.478-4.93 3.866 3.866 0 00-2.736-1.148z" fill="#4452EA"/><path d="M39.278 31.706a.425.425 0 01-.426-.43.42.42 0 01.426-.42c.431 0 .844-.171 1.149-.478a1.642 1.642 0 000-2.314 1.619 1.619 0 00-1.149-.48.425.425 0 01-.426-.429.42.42 0 01.426-.419 2.46 2.46 0 011.745.728 2.493 2.493 0 010 3.514 2.459 2.459 0 01-1.745.728z" fill="#4452EA"/><path d="M43.575 29.66a.412.412 0 01-.394-.256.421.421 0 01-.032-.163 3.93 3.93 0 00-1.062-2.89 3.878 3.878 0 00-2.812-1.216 3.855 3.855 0 00-2.813 1.216 3.912 3.912 0 00-1.061 2.89.42.42 0 01-.427.42.412.412 0 01-.41-.245.423.423 0 01-.037-.165V7.605c0-1.261.498-2.47 1.383-3.362a4.705 4.705 0 013.34-1.393c1.252 0 2.453.501 3.338 1.393a4.771 4.771 0 011.383 3.362v21.648a.42.42 0 01-.396.409zm-4.295-5.112c.76 0 1.51.186 2.184.542a4.712 4.712 0 011.685 1.503V7.604a3.93 3.93 0 00-1.062-2.89 3.878 3.878 0 00-2.812-1.216 3.855 3.855 0 00-2.813 1.216 3.913 3.913 0 00-1.061 2.89v18.989a4.723 4.723 0 011.689-1.504 4.686 4.686 0 012.19-.541z" fill="#4452EA"/><path d="M34.974 8.034h-2.478a.43.43 0 01-.431-.435.436.436 0 01.431-.435h2.518a.425.425 0 01.427.43.431.431 0 01-.427.43l-.04.01zm-18.584 0h-1.158a.43.43 0 01-.431-.435.436.436 0 01.431-.435h1.128a.425.425 0 01.426.43.43.43 0 01-.427.43l.031.01zm11.495 0H25.58a.425.425 0 01-.426-.43.43.43 0 01.426-.43h2.305a.425.425 0 01.427.43.431.431 0 01-.427.43zm-5.747 0h-2.305a.425.425 0 01-.427-.43.431.431 0 01.427-.43h2.305a.425.425 0 01.426.43.43.43 0 01-.426.43z" fill="#4452EA"/><path d="M32.495 8.034h-1.168a.425.425 0 01-.427-.43.43.43 0 01.427-.43h1.168a.425.425 0 01.426.43.431.431 0 01-.426.43zM14.35 27.268a.404.404 0 01-.356-.195l-6.092-9.775v1.626a.432.432 0 01-.264.396.424.424 0 01-.325 0 .415.415 0 01-.254-.396v-3.068a.442.442 0 01.304-.409.424.424 0 01.467.184l6.692 10.655 4.834-3.068L9.74 7.88a.42.42 0 01.304-.716h5.19a.425.425 0 01.426.43.43.43 0 01-.427.43h-4.417l9.495 15.062c.059.094.08.207.06.317a.47.47 0 01-.192.265l-5.606 3.538a.464.464 0 01-.223.062zm-6.916 3.139a.414.414 0 01-.388-.266.422.422 0 01-.028-.163v-1.136a.422.422 0 01.254-.396.425.425 0 01.588.397v1.134a.431.431 0 01-.426.43zm0-4.427a.415.415 0 01-.416-.41v-2.219a.42.42 0 11.842 0v2.22a.43.43 0 01-.426.408z" fill="#4452EA"/><path d="M7.434 20.458a.414.414 0 01-.388-.266.422.422 0 01-.028-.164v-1.104a.42.42 0 11.843 0v1.135a.43.43 0 01-.427.399zm31.844 13.548H10.154a3.026 3.026 0 01-2.172-.916 3.07 3.07 0 01-.874-2.202v-.91a.422.422 0 01.254-.397.425.425 0 01.588.397v.91c0 .592.231 1.16.644 1.583.412.423.972.666 1.56.677h29.124a.425.425 0 01.426.429.43.43 0 01-.426.43zM16.96 19.036a.414.414 0 01-.394-.256.423.423 0 01-.033-.163v-7.475a.423.423 0 01.264-.39.414.414 0 01.163-.03h14.094a.415.415 0 01.417.42v3.497a.424.424 0 01-.255.397.414.414 0 01-.325 0 .427.427 0 01-.263-.397v-3.067H17.427v7.045a.42.42 0 01-.467.42z" fill="#4452EA"/><path d="M27.926 13.3h-7.992a.425.425 0 01-.426-.43v-1.728a.423.423 0 01.264-.39.414.414 0 01.162-.03h7.992a.414.414 0 01.394.257.423.423 0 01.032.163v1.759a.43.43 0 01-.426.399zm-7.616-.818h7.159v-.91H20.31v.91zm10.744 18.201H10.348a.414.414 0 01-.393-.256.422.422 0 01-.033-.163v-4.295a.421.421 0 01.264-.39.414.414 0 01.162-.03h1.524a.414.414 0 01.393.257.431.431 0 01-.394.592h-1.106v3.436h19.862V18.587a.432.432 0 01.263-.396.424.424 0 01.325 0 .417.417 0 01.255.396v11.668a.423.423 0 01-.255.396.414.414 0 01-.161.033z" fill="#4452EA"/><path d="M31.053 30.683H26.88a.414.414 0 01-.394-.256.421.421 0 01-.033-.163v-5.215c.01-1.222.5-2.39 1.362-3.25a4.584 4.584 0 013.238-1.341.414.414 0 01.388.266c.02.052.03.107.029.163v9.408a.42.42 0 01-.417.388zm-3.757-.849h3.33v-8.538a3.749 3.749 0 00-2.374 1.238 3.798 3.798 0 00-.956 2.515v4.785zm-4.731-7.168a.414.414 0 01-.388-.266.422.422 0 01-.028-.163v-3.62a.42.42 0 01.416-.43h4.316a.414.414 0 01.387.266c.02.052.03.108.029.164a.42.42 0 01-.416.42h-3.89v3.2a.431.431 0 01-.426.43z" fill="#4452EA"/><path d="M22.565 19.036a.415.415 0 01-.416-.42v-2.249a.421.421 0 01.254-.396.425.425 0 01.588.397v2.249a.423.423 0 01-.264.39.412.412 0 01-.162.03z" fill="#4452EA"/></svg>