<svg data-name="Слой 1" xmlns="http://www.w3.org/2000/svg" viewBox="0 0 300 300"><g fill="#4452ea"><path d="M219.66 240a13.29 13.29 0 01-7.24-2.14L170 210.25a3.09 3.09 0 113.38-5.17l42.39 27.64a7 7 0 0010-2.49 7 7 0 00-2.42-9.38l-58.78-37a16.48 16.48 0 00-8.8-2.54h-27.68v7.31a12.53 12.53 0 01-25.06 0v-21.1a8.45 8.45 0 014.84-7.61L132 148.55a3.13 3.13 0 011.31-.29h65.92a3.09 3.09 0 110 6.17H134l-23.51 11.07a2.23 2.23 0 00-1.28 2v21.1a6.35 6.35 0 1012.7 0v-10.4a3.09 3.09 0 013.09-3.08h30.82a22.65 22.65 0 0112.09 3.48l58.78 37a13.22 13.22 0 01-7 24.42z"/><path d="M195.13 249.65a13.68 13.68 0 01-7.69-2.36l-29.92-20.11a3.08 3.08 0 113.44-5.12l29.92 20.11a7.68 7.68 0 108.48-12.8l-27.2-17.73a3.09 3.09 0 113.38-5.17l27.19 17.73a13.89 13.89 0 014.09 19.08 13.88 13.88 0 01-11.69 6.37z"/><path d="M174.61 261.51a13.64 13.64 0 01-7.39-2.17l-20.56-13.24a3.09 3.09 0 013.34-5.19l20.56 13.24a7.59 7.59 0 0010.13-1.82 7.56 7.56 0 00-1.83-10.8l-13.4-9a3.08 3.08 0 113.44-5.12l13.4 9a13.73 13.73 0 013.32 19.59 13.75 13.75 0 01-11.01 5.51z"/><path d="M149.49 269.79a13.18 13.18 0 01-7-2l-2.23-1.37a3.09 3.09 0 013.24-5.26l2.23 1.38a7.18 7.18 0 009.59-1.95 7.17 7.17 0 00-2-10.19l-5-3.24a3.09 3.09 0 013.38-5.16l5 3.24a13.33 13.33 0 01-7.25 24.55z"/><path d="M130.59 272.78a12.36 12.36 0 01-9.21-20.62l1-1.16a12.37 12.37 0 0116.9-1.45 12.37 12.37 0 011.45 18.09l-1 1.14a12.39 12.39 0 01-9.14 4zm1-19.73a6.2 6.2 0 00-4.62 2.07l-1 1.15a6.2 6.2 0 00.73 9 6.23 6.23 0 008.46-.64l1-1.15a6.19 6.19 0 00-.61-9 6.31 6.31 0 00-3.92-1.43z"/><path d="M113.27 264.19a12.42 12.42 0 01-9.27-20.63l13-14.71a12.36 12.36 0 0117.19-1.37l-1.8 2.52 2-2.39a12.42 12.42 0 011.33 17.9l-13.15 14.58a12.39 12.39 0 01-9.3 4.1zm13-33.37a6.19 6.19 0 00-4.67 2.12l-13 14.71a6.23 6.23 0 00.72 8.94 6.23 6.23 0 008.59-.64l13.15-14.57a6.24 6.24 0 00-.66-9 6.42 6.42 0 00-4.15-1.56z"/><path d="M100.43 250.43a12.62 12.62 0 01-9.8-20.57l4.42-5.44a12.76 12.76 0 1119.48 16.49l-4.63 5.26a12.63 12.63 0 01-9.47 4.26zm4.57-24.55a6.62 6.62 0 00-5.14 2.43l-4.41 5.44a6.45 6.45 0 009.84 8.33l4.64-5.25a6.59 6.59 0 00-.92-9.58 6.51 6.51 0 00-4.01-1.37z"/><path d="M87.49 236.55a11.77 11.77 0 01-7.06-2.36 11.83 11.83 0 01-2-17.14l2-2.37a11.81 11.81 0 0118.25 15l-1.93 2.41a11.76 11.76 0 01-9.26 4.46zm1.93-19.88a5.61 5.61 0 00-4.31 2l-2 2.36a5.68 5.68 0 108.78 7.2l1.93-2.41a5.57 5.57 0 001.19-4.2 5.64 5.64 0 00-2.17-3.8 5.7 5.7 0 00-3.42-1.15z"/><path d="M82.75 219.77a3.1 3.1 0 01-2.23-1L63.1 200.72a3.07 3.07 0 01-.3-3.92l31.36-44.36a3.08 3.08 0 012.52-1.3h30.52a3.09 3.09 0 110 6.17H98.28l-29 41L85 214.54a3.09 3.09 0 01-2.22 5.23zm158.1-9.48a10.7 10.7 0 01-8.89-4.74c-7.88-11.63-24.92-37.34-34.37-51.63a10.8 10.8 0 012.41-14.51l27.88-21.24a3.09 3.09 0 013.74 4.91l-27.88 21.24a4.62 4.62 0 00-1.05 6.19c9.45 14.28 26.48 40 34.34 51.58a4.59 4.59 0 006.25 1.31L266 189.13a3.09 3.09 0 113.29 5.23l-22.7 14.27a10.81 10.81 0 01-5.74 1.66z"/><path d="M59.13 204.84a10.68 10.68 0 01-5.32-1.41l-21.24-12a3.09 3.09 0 113-5.38l21.24 12a4.57 4.57 0 006-1.36l31.88-45.52a4.57 4.57 0 00-.81-6.16l-30.52-25.18a3.08 3.08 0 013.92-4.76l30.61 25.21a10.71 10.71 0 011.92 14.44l-31.88 45.52a10.73 10.73 0 01-8.8 4.6zm158.66 11.91a3.08 3.08 0 01-2.2-5.25l13.85-14.11a3.09 3.09 0 014.41 4.33L220 215.83a3 3 0 01-2.21.92z"/><path d="M48.86 188.54a3.09 3.09 0 01-2.54-4.84l16.45-24a3.09 3.09 0 115.1 3.5l-16.46 24a3.1 3.1 0 01-2.55 1.34zm198.36 3.39a3.08 3.08 0 01-2.62-1.46L229 165.54a3.08 3.08 0 015.23-3.27l15.57 24.93a3.09 3.09 0 01-2.61 4.73zm-96.38-57.1a52.87 52.87 0 1137.38-90.25 3.08 3.08 0 11-4.36 4.36 46.7 46.7 0 1013.67 33 47 47 0 00-.67-8 3.08 3.08 0 116.08-1 52.88 52.88 0 01-52.1 61.87z"/><path d="M115.28 76.12a3.35 3.35 0 01-.76-.09 3.09 3.09 0 01-2.24-3.74 39.75 39.75 0 0166.66-18.44 3.09 3.09 0 01-4.36 4.37 33.58 33.58 0 00-56.31 15.56 3.08 3.08 0 01-2.99 2.34z"/><path d="M150.87 116.78a3.1 3.1 0 01-2-.76l-32.98-28.93a3.09 3.09 0 114.11-4.63l30.5 26.77 47.7-60.44a3.09 3.09 0 114.8 3.83l-49.75 63a3 3 0 01-2.14 1.16z"/></g></svg>