<svg xmlns="http://www.w3.org/2000/svg" viewBox="0 0 246.09 253.64"><g data-name="Слой 2"><g fill="#4452ea" data-name="Слой 5"><path d="M218.09 253.64h-14.88a2.72 2.72 0 010-5.44h14.88a22.56 22.56 0 100-45.12H44.56a28 28 0 010 45.12h45.27a2.72 2.72 0 110 5.44H28a2.72 2.72 0 110-5.44 22.56 22.56 0 100-45.12 2.72 2.72 0 110-5.44h190.09a28 28 0 110 56z"/><path d="M97.08 253.64h-7.25a2.72 2.72 0 010-5.44h7.25a2.72 2.72 0 110 5.44zm76.06 0h-15.21a2.72 2.72 0 110-5.44h15.21a2.72 2.72 0 110 5.44zm-38 0H119.9a2.72 2.72 0 010-5.44h15.21a2.72 2.72 0 110 5.44zm68.07 0H196a2.72 2.72 0 010-5.44h7.25a2.72 2.72 0 010 5.44zm-176.3 0A26.94 26.94 0 010 226.73V22.42a2.72 2.72 0 012.72-2.72h215.37a2.72 2.72 0 012.72 2.72v177.94a2.72 2.72 0 01-2.72 2.72H44.57a28 28 0 0111.3 25.31c-1.35 14.16-14.07 25.25-28.96 25.25zM5.44 25.14v201.59a21.49 21.49 0 0021.47 21.47c12.11 0 22.46-8.93 23.54-20.33A22.56 22.56 0 0028 203.08a2.72 2.72 0 110-5.44h187.37V25.14zM239.1 160.4a2.72 2.72 0 01-2.72-2.72v-7.25a2.72 2.72 0 115.44 0v7.25a2.72 2.72 0 01-2.72 2.72zm0-27.4a2.72 2.72 0 01-2.72-2.72v-13.39a2.72 2.72 0 015.44 0v13.41a2.72 2.72 0 01-2.72 2.7zm0-33.54a2.72 2.72 0 01-2.72-2.72v-13.4a2.72 2.72 0 015.44 0v13.42a2.72 2.72 0 01-2.72 2.72zm0-33.55a2.72 2.72 0 01-2.72-2.72V49.8a2.72 2.72 0 115.44 0v13.41a2.72 2.72 0 01-2.72 2.72zm0-33.52a2.72 2.72 0 01-2.72-2.72v-7.25a2.72 2.72 0 115.44 0v7.25a2.72 2.72 0 01-2.72 2.72z"/><path d="M239.1 183.38h-21a2.71 2.71 0 01-2.72-2.71V25.14H23.73A2.72 2.72 0 0121 22.42V2.72A2.72 2.72 0 0123.73 0H239.1a2.72 2.72 0 012.72 2.72v19.7a2.72 2.72 0 01-5.44 0v-17H26.45V19.7h191.64a2.72 2.72 0 012.72 2.72V178h15.57v-20.32a2.72 2.72 0 115.44 0v23a2.71 2.71 0 01-2.72 2.7z"/><path d="M193.92 151.16H28a2.72 2.72 0 01-2.72-2.72V42.4A2.72 2.72 0 0128 39.68h34.5a2.72 2.72 0 010 5.44H30.72v100.6H191.2V45.12h-55.28a2.72 2.72 0 010-5.44h58a2.72 2.72 0 012.72 2.72v106a2.72 2.72 0 01-2.72 2.76z"/><path d="M69.76 45.12H62.5a2.72 2.72 0 010-5.44h7.26a2.72 2.72 0 010 5.44zm36.82 0H91.85a2.72 2.72 0 010-5.44h14.73a2.72 2.72 0 010 5.44zm29.34 0h-7.25a2.72 2.72 0 110-5.44h7.25a2.72 2.72 0 010 5.44zm19.94 124.62h-89.8a2.72 2.72 0 010-5.44h89.8a2.72 2.72 0 110 5.44zm37.51 15.86H27.44a2.72 2.72 0 010-5.44h165.93a2.72 2.72 0 010 5.44zM69.45 151.16a2.72 2.72 0 01-2.72-2.72V120.8H62.5a2.72 2.72 0 010-5.44h7a2.72 2.72 0 012.72 2.72v30.36a2.72 2.72 0 01-2.77 2.72z"/><path d="M69.45 120.8a2.72 2.72 0 01-2.72-2.72V83.64a2.72 2.72 0 012.72-2.72H90.3a2.72 2.72 0 110 5.43H72.17v31.73a2.72 2.72 0 01-2.72 2.72zM122 151.16a2.72 2.72 0 01-2.72-2.72V86.35H111a2.72 2.72 0 110-5.43h11a2.72 2.72 0 012.72 2.72v64.8a2.72 2.72 0 01-2.72 2.72zm24.79-85.95a2.71 2.71 0 01-2.71-2.72V42.4a2.72 2.72 0 115.43 0v20.09a2.72 2.72 0 01-2.72 2.72zm47.13 24.17h-47.13a2.71 2.71 0 01-2.71-2.72v-10a2.72 2.72 0 115.43 0v7.25h44.41a2.72 2.72 0 010 5.44z"/><path d="M193.37 151.16H122a2.72 2.72 0 01-2.72-2.72V135.3a2.72 2.72 0 012.72-2.72h71.35a2.72 2.72 0 012.72 2.72v13.14a2.72 2.72 0 01-2.7 2.72zm-68.63-5.44h65.91V138h-65.91zM51 62.79H28a2.72 2.72 0 110-5.44h20.3v-15a2.72 2.72 0 015.44 0v17.72A2.72 2.72 0 0151 62.79z"/></g></g></svg>