<svg xmlns="http://www.w3.org/2000/svg" viewBox="0 0 251.28 192.83"><g data-name="Слой 2"><g fill="#4452ea" data-name="Слой 3"><path d="M81.94 154.65a2.33 2.33 0 01-.53-.06 2.4 2.4 0 01-1.51-1.07l-60-95a2.42 2.42 0 01.75-3.33l31.74-20a2.42 2.42 0 013.33.75l60 95a2.41 2.41 0 01-.75 3.33l-31.73 20a2.4 2.4 0 01-1.3.38zM25.24 58l57.45 91 27.65-17.46-57.45-91.05z"/><path d="M18.42 61.42a4.62 4.62 0 01-3.92-2.15L.74 37.49a4.63 4.63 0 011.45-6.38l36.37-23a4.64 4.64 0 016.38 1.44l13.76 21.8a4.63 4.63 0 01-1.44 6.38l-36.38 23a4.61 4.61 0 01-2.46.69zM4.93 35.08l13.65 21.61 36.1-23-13.82-21.54z"/><path d="M29.37 54.81a3.68 3.68 0 01-2-.65 6.24 6.24 0 01-1.78-1.89L11.82 30.49a5.32 5.32 0 01-.9-3.84 3 3 0 011.31-1.89l16.29-10.28c1.68-1.07 3.89-.21 5.35 2.09l13.75 21.78c1.45 2.3 1.29 4.65-.41 5.73L30.92 54.37a2.93 2.93 0 01-1.55.44zM16 28.09l13.55 21.43 13.88-8.76-13.54-21.44z"/><path d="M5.4 34.35a2.44 2.44 0 01-2.05-1.12A21.65 21.65 0 0110.1 3.36 21.64 21.64 0 0140 10.1a2.42 2.42 0 01-.75 3.33L6.68 34a2.4 2.4 0 01-1.28.35zM21.63 4.83A16.84 16.84 0 006.29 28.52l28.16-17.79a16.63 16.63 0 00-9.08-5.48 17.09 17.09 0 00-3.74-.42zM116.34 174a2.4 2.4 0 01-1.19-.31l-34.39-19.35a2.42 2.42 0 01-.11-4.15l31.73-20a2.41 2.41 0 013.7 1.87l2.66 39.36a2.4 2.4 0 01-2.4 2.58zm-29.69-21.89l27 15.15-2.09-30.87z"/><path d="M97.81 144.62a2.41 2.41 0 01-2-1.12l-60-95a2.41 2.41 0 114.08-2.58l60 95a2.41 2.41 0 01-2 3.7zm126.51 48.21a27 27 0 1127-27 27 27 0 01-27 27zm0-49.11a22.14 22.14 0 1022.13 22.14 22.16 22.16 0 00-22.13-22.14z"/><path d="M224.32 180a2.42 2.42 0 110-4.83 9.27 9.27 0 100-18.54 2.42 2.42 0 110-4.83 14.1 14.1 0 010 28.2z"/><path d="M248.87 168.27a2.42 2.42 0 01-2.42-2.41 22.14 22.14 0 10-44.27 0 2.42 2.42 0 01-4.83 0V43.09a27 27 0 1153.93 0v122.77a2.41 2.41 0 01-2.41 2.41zm-24.55-29.37a26.93 26.93 0 0122.13 11.58V43.09a22.14 22.14 0 10-44.27 0v107.39a27 27 0 0122.14-11.58z"/><path d="M199.77 45.5h-14.4a2.42 2.42 0 110-4.83h14.4a2.42 2.42 0 010 4.83zm-106.17 0h-6.43a2.42 2.42 0 110-4.83h6.43a2.42 2.42 0 110 4.83zm65.64 0h-13.13a2.42 2.42 0 010-4.83h13.13a2.42 2.42 0 010 4.83zm-32.82 0h-13.13a2.42 2.42 0 010-4.83h13.13a2.42 2.42 0 010 4.83z"/><path d="M185.37 45.5h-6.44a2.42 2.42 0 010-4.83h6.44a2.42 2.42 0 010 4.83zM81.94 154.64a2.4 2.4 0 01-2-1.12l-35-55.43v9.23a2.41 2.41 0 01-4.82 0V89.75a2.41 2.41 0 014.45-1.29l38.12 60.44 27.65-17.46-55-87a2.41 2.41 0 012-3.7 1.49 1.49 0 01.4 0h29.43a2.42 2.42 0 010 4.83h-25.4l53.94 85.4a2.4 2.4 0 01-.75 3.33l-31.73 20a2.44 2.44 0 01-1.29.34zm-39.47 17.77a2.42 2.42 0 01-2.41-2.41v-6.43a2.41 2.41 0 114.82 0V170a2.42 2.42 0 01-2.41 2.41zm0-25.12a2.41 2.41 0 01-2.41-2.41v-12.45a2.41 2.41 0 114.82 0v12.45a2.41 2.41 0 01-2.41 2.41z"/><path d="M42.47 116.17a2.41 2.41 0 01-2.41-2.42v-6.43a2.41 2.41 0 114.82 0v6.43a2.41 2.41 0 01-2.41 2.42zm181.85 76.66H57.74a17.71 17.71 0 01-17.68-17.69V170a2.41 2.41 0 014.82 0v5.15A12.88 12.88 0 0057.74 188h166.58a2.42 2.42 0 010 4.83zM96.84 108a2.41 2.41 0 01-2.41-2.41V63.17a2.41 2.41 0 012.41-2.41h80.5a2.41 2.41 0 012.41 2.41V83a2.41 2.41 0 11-4.82 0V65.59H99.26v40a2.41 2.41 0 01-2.42 2.41z"/><path d="M159.52 75.56h-45.68a2.41 2.41 0 01-2.41-2.41v-10a2.41 2.41 0 012.41-2.41h45.68a2.41 2.41 0 012.41 2.41v10a2.41 2.41 0 01-2.41 2.41zm-43.27-4.83h40.85v-5.14h-40.85zM177.34 174H59.07a2.41 2.41 0 01-2.41-2.41v-24.38a2.41 2.41 0 012.41-2.41h8.72a2.42 2.42 0 110 4.83h-6.3v19.5h113.44v-63.58a2.41 2.41 0 114.82 0v66a2.41 2.41 0 01-2.41 2.45z"/><path d="M177.34 174H153.5a2.41 2.41 0 01-2.41-2.41V142a26.28 26.28 0 0126.25-26.26 2.41 2.41 0 012.41 2.42v53.35a2.41 2.41 0 01-2.41 2.49zm-21.43-4.83h19v-48.42a21.45 21.45 0 00-19 21.29zm-27.02-40.67a2.42 2.42 0 01-2.42-2.42v-20.53a2.42 2.42 0 012.42-2.42h24.61a2.42 2.42 0 010 4.83h-22.2v18.12a2.41 2.41 0 01-2.41 2.42z"/><path d="M128.89 108a2.42 2.42 0 01-2.42-2.41V92.86a2.42 2.42 0 114.83 0v12.69a2.41 2.41 0 01-2.41 2.45z"/></g></g></svg>