<svg xmlns="http://www.w3.org/2000/svg" viewBox="0 0 244.87 251.3"><g data-name="Слой 2"><g fill="#4452ea" data-name="Слой 5"><path d="M112.45 251.3H86.9a7.62 7.62 0 01-7.62-7.62v-9.82A83.62 83.62 0 0156 224.19l-7 6.95a7.63 7.63 0 01-10.78 0l-18.06-18.07a7.63 7.63 0 010-10.78l6.94-6.94A84 84 0 0117.44 172H7.62A7.63 7.63 0 010 164.4v-25.55a7.63 7.63 0 017.62-7.63h9.82a84 84 0 019.66-23.32l-6.94-6.9a7.63 7.63 0 010-10.78l18.07-18.11a7.63 7.63 0 0110.78 0l6.94 7a83.62 83.62 0 0123.33-9.67v-9.87A7.62 7.62 0 0186.9 52h25.55a7.63 7.63 0 017.62 7.62v9.82a83.62 83.62 0 0123.33 9.67l6.94-7a7.63 7.63 0 0110.78 0l18.07 18.07a7.63 7.63 0 010 10.78l-6.94 6.94a84 84 0 019.66 23.32h9.82a7.63 7.63 0 017.62 7.63v25.55a7.63 7.63 0 01-7.62 7.62h-9.82a84.2 84.2 0 01-9.66 23.33l6.94 6.94a7.63 7.63 0 010 10.78l-18.07 18.07a7.63 7.63 0 01-10.78 0l-6.94-6.95a83.62 83.62 0 01-23.33 9.67v9.82a7.63 7.63 0 01-7.62 7.62zM55.6 218.64a2.44 2.44 0 011.31.39 79.08 79.08 0 0025.35 10.5 2.45 2.45 0 011.91 2.39v11.76a2.72 2.72 0 002.73 2.72h25.55a2.73 2.73 0 002.73-2.72v-11.76a2.46 2.46 0 011.91-2.39A79.08 79.08 0 00142.44 219a2.45 2.45 0 013.05.33l8.31 8.32a2.74 2.74 0 003.86 0l18.07-18.07a2.74 2.74 0 000-3.86l-8.32-8.31a2.45 2.45 0 01-.33-3.05 79.08 79.08 0 0010.5-25.36 2.45 2.45 0 012.39-1.91h11.76a2.73 2.73 0 002.72-2.73v-25.51a2.72 2.72 0 00-2.72-2.73H180a2.46 2.46 0 01-2.39-1.92 79.21 79.21 0 00-10.5-25.34 2.45 2.45 0 01.33-3l8.32-8.31a2.74 2.74 0 000-3.86l-18.1-18.12a2.72 2.72 0 00-3.86 0l-8.31 8.32a2.44 2.44 0 01-3.05.33 79.08 79.08 0 00-25.35-10.5 2.46 2.46 0 01-1.91-2.39V59.57a2.74 2.74 0 00-2.73-2.73H86.9a2.73 2.73 0 00-2.73 2.73v11.76a2.45 2.45 0 01-1.91 2.39 79.08 79.08 0 00-25.35 10.5 2.44 2.44 0 01-3-.33l-8.31-8.32a2.72 2.72 0 00-3.86 0L23.62 93.64a2.74 2.74 0 000 3.86l8.32 8.31a2.45 2.45 0 01.33 3 79.46 79.46 0 00-10.51 25.39 2.44 2.44 0 01-2.38 1.92H7.62a2.72 2.72 0 00-2.72 2.73v25.55a2.73 2.73 0 002.72 2.73h11.76a2.43 2.43 0 012.38 1.87 79.42 79.42 0 0010.51 25.35 2.45 2.45 0 01-.33 3.05l-8.32 8.31a2.74 2.74 0 000 3.86l18.07 18.07a2.74 2.74 0 003.86 0l8.31-8.32a2.46 2.46 0 011.74-.68z"/><path d="M99.68 216.9A65.28 65.28 0 11165 151.62a2.45 2.45 0 11-4.89 0A60.39 60.39 0 1099.68 212a2.45 2.45 0 010 4.89z"/><path d="M99.68 216.9a2.45 2.45 0 110-4.89 58.82 58.82 0 006.26-.33 2.45 2.45 0 01.51 4.87 66 66 0 01-6.77.35zm25.54-5.4a2.45 2.45 0 01-1-4.69 60.42 60.42 0 0010.93-6.32 2.45 2.45 0 012.89 4 66 66 0 01-11.83 6.84 2.48 2.48 0 01-.99.17zm25.29-20.5a2.46 2.46 0 01-1.44-.46 2.44 2.44 0 01-.54-3.42 60.5 60.5 0 006.32-10.94 2.45 2.45 0 014.48 2 66 66 0 01-6.84 11.82 2.47 2.47 0 01-1.98 1zm11.66-30.4a2.5 2.5 0 01-2.43-2.7 62.73 62.73 0 00.32-6.28 2.45 2.45 0 014.89 0 66.92 66.92 0 01-.34 6.78 2.46 2.46 0 01-2.44 2.2zm-62.49 21.62a30.6 30.6 0 1130.59-30.6 30.63 30.63 0 01-30.59 30.6zm0-56.3a25.71 25.71 0 1025.7 25.7 25.73 25.73 0 00-25.7-25.7zm111.16 14.4a6.41 6.41 0 01-4.54-1.88 2.45 2.45 0 113.46-3.46 1.54 1.54 0 002.16 0l13.86-13.86a1.55 1.55 0 00.44-1.08 1.48 1.48 0 00-.44-1.07l-6.38-6.39a2.45 2.45 0 01-.34-3 60.08 60.08 0 008-19.26 2.45 2.45 0 012.39-1.92h9a1.53 1.53 0 001.55-1.56V67.23a1.53 1.53 0 00-1.53-1.52h-9a2.45 2.45 0 01-2.39-1.91 60.22 60.22 0 00-8-19.27 2.45 2.45 0 01.34-3l6.38-6.38a1.55 1.55 0 00.44-1.08 1.48 1.48 0 00-.44-1.07l-13.88-13.91a1.54 1.54 0 00-2.16 0l-6.38 6.38a2.44 2.44 0 01-3 .34 60.13 60.13 0 00-19.27-8 2.45 2.45 0 01-1.91-2.39v-9a1.52 1.52 0 00-1.52-1.52H158a1.52 1.52 0 00-1.52 1.52v9a2.45 2.45 0 01-1.91 2.39 60.22 60.22 0 00-19.27 8 2.44 2.44 0 01-3-.34l-6.38-6.38a1.54 1.54 0 00-2.16 0L109.89 33a1.48 1.48 0 00-.44 1.07 1.55 1.55 0 00.44 1.08l6.38 6.38a2.45 2.45 0 01.34 3c-.71 1.12-1.38 2.25-2 3.41a2.45 2.45 0 11-4.29-2.35c.37-.67.75-1.35 1.15-2l-5-5a6.41 6.41 0 010-9.07l13.86-13.87a6.43 6.43 0 019.08 0l5 5a65 65 0 0117.24-7.14V6.42A6.42 6.42 0 01158 0h19.61a6.42 6.42 0 016.41 6.42v7.08a65 65 0 0117.24 7.14l5-5a6.43 6.43 0 019.08 0l13.9 13.86a6.41 6.41 0 010 9.07l-5 5a65 65 0 017.14 17.24h7.08a6.42 6.42 0 016.42 6.41v19.62a6.43 6.43 0 01-6.42 6.42h-7.08a65.11 65.11 0 01-7.14 17.23l5 5a6.42 6.42 0 010 9.08l-13.86 13.86a6.41 6.41 0 01-4.54 1.89z"/><path d="M127.86 52.53a2.37 2.37 0 01-1.36-.42 2.44 2.44 0 01-.66-3.39 50.62 50.62 0 0142-22.33 2.45 2.45 0 010 4.89 45.77 45.77 0 00-38 20.18 2.43 2.43 0 01-1.98 1.07zm86.66 39a2.55 2.55 0 01-.61-.08 2.44 2.44 0 01-1.76-3 46.32 46.32 0 001.13-6.09 2.45 2.45 0 114.86.57 49.38 49.38 0 01-1.25 6.74 2.45 2.45 0 01-2.37 1.86zm.13-23.53a2.46 2.46 0 01-2.38-1.87 45.8 45.8 0 00-3.84-10.19 2.45 2.45 0 014.34-2.27A51.08 51.08 0 01217 64.93a2.45 2.45 0 01-1.8 3 2.3 2.3 0 01-.55.07zm-14.58-24.35a2.46 2.46 0 01-1.64-.63 45.71 45.71 0 00-8.9-6.28 2.45 2.45 0 012.32-4.31 50.57 50.57 0 019.86 7 2.45 2.45 0 01-1.64 4.27z"/><path d="M174.36 31.72h-.33a45.91 45.91 0 00-6.2-.42 2.45 2.45 0 010-4.89 50.53 50.53 0 016.85.46 2.45 2.45 0 01-.32 4.87zm20.43 87.73a2.44 2.44 0 01-1.38-4.47 45.77 45.77 0 0018.74-26.51 2.45 2.45 0 014.74 1.22A50.59 50.59 0 01196.15 119a2.37 2.37 0 01-1.36.45zm-8.01-29.59a2.36 2.36 0 01-1.17-.31 2.44 2.44 0 01-1-3.32 19.15 19.15 0 00-32.91-19.55 2.45 2.45 0 01-4.09-2.68 24 24 0 0141.32 24.55 2.43 2.43 0 01-2.15 1.31z"/></g></g></svg>