<svg xmlns="http://www.w3.org/2000/svg" viewBox="0 0 241.86 241.86"><g data-name="Слой 2"><g fill="#4452ea" data-name="Слой 6"><path d="M207.49 180.76H34.37a3.82 3.82 0 01-3.82-3.82V3.82A3.82 3.82 0 0134.37 0h173.12a3.82 3.82 0 013.82 3.82v173.12a3.82 3.82 0 01-3.82 3.82zm-169.3-7.64h165.48V7.64H38.19z"/><path d="M59.83 221.5a3.77 3.77 0 01-.93-.12 3.82 3.82 0 01-2.78-4.63L66.31 176a3.82 3.82 0 017.41 1.86L63.53 218.6a3.82 3.82 0 01-3.7 2.9zm40.73-10.19a3.82 3.82 0 01-3.81-3.82v-30.55a3.82 3.82 0 117.63 0v30.55a3.82 3.82 0 01-3.82 3.82zm40.74 0a3.82 3.82 0 01-3.82-3.82v-30.55a3.82 3.82 0 017.64 0v30.55a3.82 3.82 0 01-3.82 3.82zM182 221.5a3.82 3.82 0 01-3.7-2.9l-10.18-40.73a3.82 3.82 0 017.4-1.86l10.19 40.74a3.81 3.81 0 01-2.78 4.63 3.71 3.71 0 01-.93.12z"/><path d="M182 241.86a14 14 0 1114-14 14 14 0 01-14 14zm0-20.36a6.37 6.37 0 106.37 6.36 6.36 6.36 0 00-6.37-6.36zm-40.7 10.18a14 14 0 1114-14 14 14 0 01-14 14zm0-20.37a6.37 6.37 0 106.36 6.37 6.38 6.38 0 00-6.36-6.37zm81.47 0a3.82 3.82 0 01-3.42-2.11l-15.27-30.55a3.82 3.82 0 016.83-3.42l15.27 30.56a3.81 3.81 0 01-3.41 5.52z"/><path d="M227.86 231.68a14 14 0 1114-14 14 14 0 01-14 14zm0-20.37a6.37 6.37 0 106.37 6.37 6.37 6.37 0 00-6.37-6.37zm-208.77 0a3.92 3.92 0 01-1.71-.4 3.82 3.82 0 01-1.7-5.12L31 175.23a3.82 3.82 0 016.84 3.42L22.51 209.2a3.82 3.82 0 01-3.42 2.11z"/><path d="M14 231.68a14 14 0 1114-14 14 14 0 01-14 14zm0-20.37a6.37 6.37 0 106.37 6.37 6.37 6.37 0 00-6.37-6.37zm86.56 20.37a14 14 0 1114-14 14 14 0 01-14 14zm0-20.37a6.37 6.37 0 106.37 6.37 6.37 6.37 0 00-6.37-6.37zm-40.73 30.55a14 14 0 1114-14 14 14 0 01-14 14zm0-20.36a6.37 6.37 0 106.36 6.36 6.37 6.37 0 00-6.36-6.36zm71.29-81.5h-20.37a3.82 3.82 0 01-3.82-3.82v-6.4l-4-1.65-4.52 4.53a3.93 3.93 0 01-5.4 0l-14.4-14.4a3.8 3.8 0 010-5.4l4.52-4.53-1.65-4H75.1a3.82 3.82 0 01-3.81-3.82V80.2a3.82 3.82 0 013.81-3.82h6.4l1.65-4-4.52-4.53a3.8 3.8 0 010-5.4L93 48.07A3.83 3.83 0 0195.73 47a3.83 3.83 0 012.7 1.11L103 52.6l4-1.65v-6.4a3.83 3.83 0 013.82-3.82h20.37a3.82 3.82 0 013.81 3.82V51l4 1.65 4.52-4.53a3.93 3.93 0 015.4 0l14.41 14.4a3.81 3.81 0 010 5.4l-4.53 4.53 1.65 4h6.4a3.82 3.82 0 013.82 3.82v20.36a3.82 3.82 0 01-3.82 3.82h-6.4l-1.65 4 4.53 4.53a3.81 3.81 0 010 5.4l-14.41 14.4a3.82 3.82 0 01-2.7 1.12 3.86 3.86 0 01-2.7-1.12l-4.52-4.53-4 1.65v6.4a3.82 3.82 0 01-3.88 3.7zm-16.55-7.64h12.73v-5.13a3.83 3.83 0 012.35-3.53l8.7-3.6a3.79 3.79 0 014.16.83l3.62 3.63 9-9-3.62-3.56a3.82 3.82 0 01-.83-4.17l3.6-8.68a3.81 3.81 0 013.53-2.36h5.13V84h-5.13a3.82 3.82 0 01-3.53-2.37l-3.6-8.63a3.82 3.82 0 01.83-4.17l3.63-3.63-9-9-3.62 3.63a3.79 3.79 0 01-4.16.83l-8.7-3.6a3.82 3.82 0 01-2.35-3.53v-5.16h-12.74v5.13a3.82 3.82 0 01-2.36 3.5l-8.69 3.6a3.81 3.81 0 01-4.16-.83l-3.63-3.63-9 9 3.62 3.63a3.84 3.84 0 01.83 4.23l-3.6 8.69A3.81 3.81 0 0184.06 84h-5.14v12.75h5.14a3.8 3.8 0 013.52 2.35l3.6 8.69a3.84 3.84 0 01-.83 4.17l-3.62 3.63 9 9 3.63-3.59a3.79 3.79 0 014.16-.83l8.69 3.6a3.83 3.83 0 012.36 3.53zm6.36-22.92A19.09 19.09 0 11140 90.38a19.11 19.11 0 01-19.07 19.09zm0-30.55a11.46 11.46 0 1011.46 11.46 11.48 11.48 0 00-11.46-11.43zM166.76 140a3.88 3.88 0 01-2.7-1.13 3.8 3.8 0 010-5.39 3.93 3.93 0 015.4 0 3.83 3.83 0 01-2.7 6.52zm-91.66 0a3.83 3.83 0 01-2.7-6.52 3.93 3.93 0 015.4 0 3.83 3.83 0 01-2.7 6.52zm0-91.63a3.86 3.86 0 01-2.7-1.12 3.84 3.84 0 010-5.4 4 4 0 015.4 0 3.81 3.81 0 010 5.4 3.82 3.82 0 01-2.7 1.12zm91.66 0a3.91 3.91 0 01-2.7-1.12 3.81 3.81 0 010-5.4 4 4 0 015.4 0 3.82 3.82 0 01-2.7 6.52zm20.37 15.28a3.82 3.82 0 01-3.82-3.82V49.65a3.82 3.82 0 117.63 0v10.18a3.82 3.82 0 01-3.81 3.82zm0-25.46a3.82 3.82 0 01-3.82-3.82V28h-6.37a3.82 3.82 0 110-7.64h10.19a3.82 3.82 0 013.81 3.82v10.19a3.82 3.82 0 01-3.81 3.82zM161.67 28h-10.19a3.82 3.82 0 110-7.64h10.19a3.82 3.82 0 110 7.64zm25.46 132.39h-10.19a3.82 3.82 0 110-7.63h6.37v-6.37a3.82 3.82 0 117.63 0v10.18a3.82 3.82 0 01-3.81 3.82zm-25.46 0h-10.19a3.82 3.82 0 110-7.63h10.19a3.82 3.82 0 110 7.63zm25.46-25.46a3.82 3.82 0 01-3.82-3.81v-10.19a3.82 3.82 0 117.63 0v10.19a3.82 3.82 0 01-3.81 3.81zm-96.75 25.46H80.2a3.82 3.82 0 110-7.63h10.18a3.82 3.82 0 110 7.63zm-25.46 0H54.74a3.82 3.82 0 01-3.82-3.82v-10.18a3.82 3.82 0 017.64 0v6.37h6.36a3.82 3.82 0 110 7.63zm-10.18-25.46a3.82 3.82 0 01-3.82-3.81v-10.19a3.82 3.82 0 017.64 0v10.19a3.82 3.82 0 01-3.82 3.81zm0-71.28a3.82 3.82 0 01-3.82-3.82V49.65a3.82 3.82 0 017.64 0v10.18a3.82 3.82 0 01-3.82 3.82zm0-25.46a3.82 3.82 0 01-3.82-3.82V24.19a3.82 3.82 0 013.82-3.82h10.18a3.82 3.82 0 010 7.64h-6.36v6.36a3.82 3.82 0 01-3.82 3.82zM90.38 28H80.2a3.82 3.82 0 010-7.64h10.18a3.82 3.82 0 110 7.64zM34.37 38.19H3.82A3.82 3.82 0 010 34.37V14a3.82 3.82 0 013.82-3.82h30.55A3.82 3.82 0 0138.19 14v20.37a3.82 3.82 0 01-3.82 3.82zM7.64 30.55h22.91V17.82H7.64zm26.73 48.37H3.82A3.82 3.82 0 010 75.1V54.74a3.82 3.82 0 013.82-3.82h30.55a3.82 3.82 0 013.82 3.82V75.1a3.82 3.82 0 01-3.82 3.82zM7.64 71.29h22.91V58.56H7.64zm26.73 48.37H3.82A3.82 3.82 0 010 115.84V95.47a3.82 3.82 0 013.82-3.82h30.55a3.82 3.82 0 013.82 3.82v20.37a3.82 3.82 0 01-3.82 3.82zM7.64 112h22.91V99.29H7.64zm26.73 48.39H3.82A3.82 3.82 0 010 156.57v-20.36a3.82 3.82 0 013.82-3.82h30.55a3.82 3.82 0 013.82 3.82v20.36a3.82 3.82 0 01-3.82 3.82zm-26.73-7.63h22.91V140H7.64zM238 38.19h-30.51a3.82 3.82 0 01-3.82-3.82V14a3.82 3.82 0 013.82-3.82H238a3.82 3.82 0 013.86 3.82v20.37a3.82 3.82 0 01-3.86 3.82zm-26.73-7.64h22.92V17.82h-22.88zM238 78.92h-30.51a3.82 3.82 0 01-3.82-3.82V54.74a3.82 3.82 0 013.82-3.82H238a3.82 3.82 0 013.82 3.82V75.1a3.82 3.82 0 01-3.82 3.82zm-26.73-7.63h22.92V58.56h-22.88zM238 119.66h-30.51a3.82 3.82 0 01-3.82-3.82V95.47a3.82 3.82 0 013.82-3.82H238a3.82 3.82 0 013.82 3.82v20.37a3.82 3.82 0 01-3.82 3.82zM211.31 112h22.92V99.29h-22.92zM238 160.39h-30.51a3.82 3.82 0 01-3.82-3.82v-20.36a3.82 3.82 0 013.82-3.82H238a3.82 3.82 0 013.82 3.82v20.36a3.82 3.82 0 01-3.82 3.82zm-26.73-7.63h22.92V140h-22.88z"/></g></g></svg>