<svg xmlns="http://www.w3.org/2000/svg" viewBox="0 0 256.28 201.66"><g data-name="Слой 2"><g fill="#4452ea" data-name="Слой 4"><path d="M155.45 201.66a100 100 0 01-40.63-8.53 2.5 2.5 0 112-4.57A95.84 95.84 0 1066.91 64.13a2.5 2.5 0 01-4.62-1.92 100.84 100.84 0 1193.16 139.45z"/><path d="M155.45 113a12.14 12.14 0 1112.15-12.14A12.16 12.16 0 01155.45 113zm0-19.28a7.14 7.14 0 107.15 7.14 7.15 7.15 0 00-7.15-7.17z"/><path d="M155.45 93.69a2.5 2.5 0 01-2.5-2.5V43a2.5 2.5 0 115 0v48.19a2.49 2.49 0 01-2.5 2.5zm29.09 38.73a2.51 2.51 0 01-1.76-.73l-22.28-22.28a2.5 2.5 0 113.54-3.53l22.27 22.27a2.5 2.5 0 010 3.54 2.53 2.53 0 01-1.77.73zM155.45 30a2.49 2.49 0 01-2.5-2.5V18a2.5 2.5 0 015 0v9.5a2.49 2.49 0 01-2.5 2.5zm0 162.22a2.5 2.5 0 01-2.5-2.5v-9.51a2.5 2.5 0 115 0v9.51a2.49 2.49 0 01-2.5 2.5zM101.47 52.39a2.5 2.5 0 01-1.77-.74L93 44.93a2.5 2.5 0 013.54-3.53l6.72 6.72a2.51 2.51 0 01-1.77 4.27zm114.69 114.68a2.49 2.49 0 01-1.77-.73l-6.72-6.72a2.5 2.5 0 013.53-3.54l6.73 6.72a2.52 2.52 0 010 3.54 2.49 2.49 0 01-1.77.73zm25.14-60.7h-9.5a2.5 2.5 0 010-5h9.5a2.5 2.5 0 010 5zm-31.86-53.98a2.51 2.51 0 01-1.77-4.27l6.72-6.72a2.5 2.5 0 113.54 3.53l-6.73 6.72a2.46 2.46 0 01-1.76.74zM87.6 201.66H2.5a2.5 2.5 0 01-2.5-2.5v-31.73a34.65 34.65 0 0124.49-33A32.14 32.14 0 0134.56 133h99a2.5 2.5 0 012.5 2.5v16.15a2.51 2.51 0 01-1.69 2.37L90.1 169.07v30.09a2.5 2.5 0 01-2.5 2.5zm-82.6-5h80.1v-29.38a2.5 2.5 0 011.7-2.36l44.3-15.1V138H34.56a27.67 27.67 0 00-8.56 1.23 29.65 29.65 0 00-21 28.2zm49.4-68.22A27.61 27.61 0 1182 100.83a27.64 27.64 0 01-27.6 27.61zm0-50.22A22.61 22.61 0 1077 100.83a22.63 22.63 0 00-22.6-22.61z"/><path d="M60.48 152.32H48.32a2.51 2.51 0 01-2.45-2l-3-14.37a2.51 2.51 0 012.45-3H63.5a2.5 2.5 0 012.44 3l-3 14.37a2.49 2.49 0 01-2.46 2zm-10.13-5h8.1l2-9.37h-12z"/><path d="M60.67 201.64H48.12a2.51 2.51 0 01-2.45-2l-3.92-18.84a2.37 2.37 0 010-.84l4.12-30.48a2.51 2.51 0 012.48-2.17h12.13a2.49 2.49 0 012.52 2.18L67.08 180a3 3 0 010 .84l-3.93 18.84a2.51 2.51 0 01-2.48 1.96zm-10.52-5h8.49l3.42-16.43-3.77-27.89H50.5l-3.77 27.89zm-28.97 5.02a2.5 2.5 0 01-2.5-2.5v-26a2.5 2.5 0 015 0v26a2.5 2.5 0 01-2.5 2.5z"/></g></g></svg>