<svg xmlns="http://www.w3.org/2000/svg" viewBox="0 0 190.68 251.3"><g data-name="Слой 2"><g fill="#4452ea" data-name="Слой 6"><path d="M188.27 228.17a2.41 2.41 0 01-2.41-2.41v-6.43a2.41 2.41 0 114.82 0v6.43a2.41 2.41 0 01-2.41 2.41zm0-26.81a2.41 2.41 0 01-2.41-2.41v-13.59a2.41 2.41 0 114.82 0V199a2.41 2.41 0 01-2.41 2.36zm0-34a2.41 2.41 0 01-2.41-2.41v-13.56a2.41 2.41 0 014.82 0V165a2.41 2.41 0 01-2.41 2.39zm0-34a2.41 2.41 0 01-2.41-2.41v-13.52a2.41 2.41 0 014.82 0V131a2.41 2.41 0 01-2.41 2.43zm0-34a2.41 2.41 0 01-2.41-2.41V83.46a2.41 2.41 0 014.82 0v13.59a2.41 2.41 0 01-2.41 2.41zm0-33.87a2.41 2.41 0 01-2.41-2.41v-6.43a2.41 2.41 0 014.82 0v6.43a2.41 2.41 0 01-2.41 2.41z"/><path d="M173.51 251.3H17.17A17.19 17.19 0 010 234.13V49.07a17.18 17.18 0 0117.17-17.16h33.15a2.41 2.41 0 012.41 2.41v12.94H138V34.32a2.41 2.41 0 012.41-2.41h33.15a17.18 17.18 0 0117.17 17.16v7.58a2.41 2.41 0 11-4.82 0v-7.58a12.36 12.36 0 00-12.35-12.34h-30.79v12.94a2.41 2.41 0 01-2.41 2.41h-90a2.41 2.41 0 01-2.41-2.41V36.73H17.17A12.36 12.36 0 004.82 49.07v185.06a12.36 12.36 0 0012.35 12.35h156.34a12.36 12.36 0 0012.35-12.35v-8.37a2.41 2.41 0 114.82 0v8.37a17.19 17.19 0 01-17.17 17.17z"/><path d="M168.34 233.35H43.51a2.41 2.41 0 01-2.41-2.41v-10.77a2.41 2.41 0 012.41-2.41h111.84V60.44a2.41 2.41 0 012.41-2.44h10.58a2.41 2.41 0 012.41 2.41v170.5a2.41 2.41 0 01-2.41 2.44zm-122.42-4.82h120V62.85h-5.76v157.32a2.41 2.41 0 01-2.41 2.41H45.92zm-13-66.33a2.41 2.41 0 01-2.41-2.41v-6.43a2.41 2.41 0 114.82 0v6.43a2.41 2.41 0 01-2.41 2.41zm0-26.39a2.41 2.41 0 01-2.41-2.41v-13.31a2.41 2.41 0 114.82 0v13.31a2.41 2.41 0 01-2.41 2.41zm0-33.26a2.41 2.41 0 01-2.41-2.41V86.83a2.41 2.41 0 114.82 0v13.31a2.41 2.41 0 01-2.41 2.41zm0-33.27a2.41 2.41 0 01-2.41-2.41v-6.43a2.41 2.41 0 114.82 0v6.43a2.41 2.41 0 01-2.41 2.41z"/><path d="M157.76 222.58H32.92a2.41 2.41 0 01-2.41-2.41v-60.38a2.41 2.41 0 114.82 0v58h120V52.08h-120v8.36a2.41 2.41 0 01-4.82 0V49.67a2.41 2.41 0 012.41-2.41h124.84a2.41 2.41 0 012.41 2.41v170.5a2.41 2.41 0 01-2.41 2.41z"/><path d="M140.36 52.08h-90a2.41 2.41 0 01-2.41-2.41v-34.4a2.41 2.41 0 012.41-2.41h21.42a2.4 2.4 0 012.41 2.41v2.38h9.36A2.41 2.41 0 0185.78 21a10.35 10.35 0 1019.91 4 10.45 10.45 0 00-.79-4 2.41 2.41 0 012.23-3.33h9.35v-2.4a2.41 2.41 0 012.41-2.41h21.47a2.41 2.41 0 012.41 2.41v34.4a2.41 2.41 0 01-2.41 2.41zm-87.63-4.82H138V17.69h-16.69v2.37a2.41 2.41 0 01-2.42 2.41h-8.58a14.64 14.64 0 01.2 2.48 15.17 15.17 0 01-30.34 0 14.64 14.64 0 01.2-2.48h-8.59a2.41 2.41 0 01-2.41-2.41v-2.37H52.73z"/><path d="M118.89 22.47h-11.76A2.41 2.41 0 01104.9 21a10.35 10.35 0 00-19.12 0 2.41 2.41 0 01-2.23 1.49H71.78a2.41 2.41 0 01-2.41-2.41V2.41A2.41 2.41 0 0171.78 0h47.11a2.41 2.41 0 012.42 2.41v17.65a2.41 2.41 0 01-2.42 2.41zm-10.25-4.82h7.84V4.82H74.19v12.83H82a15.16 15.16 0 0126.6 0zm6.99 185.79A27.14 27.14 0 0194.76 159a2.41 2.41 0 113.71 3 22.32 22.32 0 1033.77-.64 2.41 2.41 0 113.59-3.22 27.14 27.14 0 01-20.2 45.26z"/><path d="M115.55 178.3a2.41 2.41 0 01-2.22-1.47l-9.62-22.75a2.41 2.41 0 014.44-1.88l7.35 17.37c4.34-10.35 14.54-32.44 25.78-41.51a2.41 2.41 0 113 3.75c-13.59 11-26.37 44.59-26.5 44.93a2.42 2.42 0 01-2.21 1.56zm4.93-107.47H70.2a2.41 2.41 0 110-4.82h50.28a2.41 2.41 0 110 4.82zm19.88 14.56h-90a2.42 2.42 0 010-4.83h90a2.42 2.42 0 010 4.83zm0 14.55h-90a2.41 2.41 0 010-4.82h90a2.41 2.41 0 010 4.82zm0 14.56h-90a2.41 2.41 0 010-4.82h90a2.41 2.41 0 010 4.82z"/></g></g></svg>