<svg xmlns="http://www.w3.org/2000/svg" viewBox="0 0 238.22 242.84"><g fill="#4452ea" data-name="Слой 2"><path d="M134.57 242.84h-90.2a2.41 2.41 0 01-2.4-2.41V37.94a2.41 2.41 0 012.4-2.4h90.2a2.41 2.41 0 012.41 2.4v202.49a2.41 2.41 0 01-2.41 2.41zM46.78 238h85.39V40.35H46.78z"/><path d="M107.53 242.84H71.41a2.41 2.41 0 01-2.4-2.41V37.94a2.41 2.41 0 012.4-2.4h36.12a2.41 2.41 0 012.41 2.4v202.49a2.41 2.41 0 01-2.41 2.41zM73.82 238h31.31V40.35H73.82z"/><path d="M122.67 40.35H56.28a2.41 2.41 0 01-2.41-2.41v-8.65a10.08 10.08 0 0110.07-10.07H115a10.09 10.09 0 0110.08 10.07v8.65a2.41 2.41 0 01-2.41 2.41zm-64-4.81h61.59v-6.25A5.27 5.27 0 00115 24H63.94a5.27 5.27 0 00-5.26 5.26z"/><path d="M107.53 24H71.41A2.41 2.41 0 0169 21.62v-1.16a20.47 20.47 0 0140.93 0v1.16a2.41 2.41 0 01-2.4 2.38zm-33.66-4.78h31.21a15.65 15.65 0 00-31.21 0zm60.7 53.83h-90.2a2.41 2.41 0 01-2.4-2.4V51.06a2.41 2.41 0 012.4-2.4h90.2a2.41 2.41 0 012.41 2.4v19.59a2.41 2.41 0 01-2.41 2.4zm-87.79-4.81h85.39V53.47H46.78zm87.79 43.98h-90.2a2.41 2.41 0 01-2.4-2.41V90.23a2.4 2.4 0 012.4-2.4h90.2a2.4 2.4 0 012.41 2.4v19.58a2.41 2.41 0 01-2.41 2.41zm-87.79-4.81h85.39V92.63H46.78zm87.79 43.98h-90.2A2.41 2.41 0 0142 149v-19.6a2.41 2.41 0 012.4-2.41h90.2a2.41 2.41 0 012.4 2.41V149a2.41 2.41 0 01-2.43 2.39zm-87.79-4.81h85.39V131.8H46.78zm87.79 43.97h-90.2a2.41 2.41 0 01-2.4-2.4v-19.59a2.41 2.41 0 012.4-2.4h90.2a2.41 2.41 0 012.41 2.4v19.59a2.41 2.41 0 01-2.41 2.4zm-87.79-4.81h85.39V171H46.78zm87.79 43.98h-90.2a2.41 2.41 0 01-2.4-2.41v-19.58a2.4 2.4 0 012.4-2.4h90.2a2.4 2.4 0 012.41 2.4v19.58a2.41 2.41 0 01-2.41 2.41zm-87.79-4.81h85.39v-14.78H46.78zm136.01 17.93h-6.41a2.41 2.41 0 010-4.81h6.41a2.41 2.41 0 110 4.81zm29.14 0h-11.66a2.41 2.41 0 010-4.81h11.66a2.41 2.41 0 010 4.81zm23.89 0h-6.41a2.41 2.41 0 110-4.81h6.41a2.41 2.41 0 010 4.81z"/><path d="M176.38 242.84H2.4a2.41 2.41 0 010-4.81h174a2.41 2.41 0 110 4.81zm-41.81-71.93a2.4 2.4 0 01-2.4-2.41v-58.63a2.4 2.4 0 012.4-2.4 31.72 31.72 0 010 63.44zm2.43-58.52V166a26.91 26.91 0 000-53.6zm53 64.04a2.4 2.4 0 01-2-3.68c1.1-1.75 2.12-3.56 3-5.38a2.4 2.4 0 014.3 2.15 64.94 64.94 0 01-3.27 5.79 2.39 2.39 0 01-2.03 1.12zm8.71-21.81a2.59 2.59 0 01-.48 0 2.43 2.43 0 01-1.89-2.84 62.15 62.15 0 001.23-11 2.48 2.48 0 012.47-2.34 2.4 2.4 0 012.34 2.46 67.68 67.68 0 01-1.32 11.8 2.39 2.39 0 01-2.35 1.92zm-.54-28.45a2.41 2.41 0 01-2.34-1.84 63 63 0 00-3.52-10.45 2.4 2.4 0 114.4-1.94 68.11 68.11 0 013.8 11.26 2.4 2.4 0 01-1.77 2.9 2.22 2.22 0 01-.57.07zm-12.56-25.52a2.4 2.4 0 01-1.88-.9 63.32 63.32 0 00-7.64-8 2.4 2.4 0 113.17-3.61 68 68 0 018.22 8.58 2.41 2.41 0 01-.37 3.38 2.45 2.45 0 01-1.5.55zm-22.25-17.83a2.48 2.48 0 01-1.06-.24c-1.83-.9-3.74-1.72-5.66-2.44a2.41 2.41 0 011.69-4.51c2.06.78 4.11 1.66 6.09 2.63a2.4 2.4 0 01-1.06 4.56z"/><path d="M134.57 207a2.4 2.4 0 01-2.4-2.41V73.76a2.4 2.4 0 012.4-2.4 67.76 67.76 0 0123.76 4.27 2.41 2.41 0 11-1.69 4.51A62.46 62.46 0 00137 76.21v126a62.73 62.73 0 0051-29.41 2.4 2.4 0 114.06 2.56A67.54 67.54 0 01134.57 207z"/><path d="M147.88 242.84h-13.31a2.4 2.4 0 01-2.4-2.41V37.94a2.4 2.4 0 012.4-2.4h13.31a7.8 7.8 0 017.79 7.79v10.34a87.27 87.27 0 0124.45 10.13l7.32-7.31a7.8 7.8 0 0111 0l18.81 18.82a7.8 7.8 0 010 11L210 93.64a87.42 87.42 0 0110.14 24.45h10.33a7.8 7.8 0 017.79 7.79v26.61a7.8 7.8 0 01-7.79 7.8H220.1a87.54 87.54 0 01-10.1 24.45l7.31 7.31a7.8 7.8 0 010 11l-18.81 18.82a7.81 7.81 0 01-11 0l-7.32-7.31a87.27 87.27 0 01-24.45 10.13v10.34a7.81 7.81 0 01-7.85 7.81zM137 238h10.9a3 3 0 003-3v-12.19a2.4 2.4 0 011.88-2.35 82.6 82.6 0 0026.45-11 2.41 2.41 0 013 .33l8.66 8.66a3 3 0 004.22 0l18.81-18.82a3 3 0 000-4.22l-8.66-8.66a2.41 2.41 0 01-.33-3 82.64 82.64 0 0011-26.44 2.41 2.41 0 012.35-1.88h12.24a3 3 0 003-3v-26.55a3 3 0 00-3-3h-12.33a2.41 2.41 0 01-2.35-1.88 82.55 82.55 0 00-11-26.44 2.4 2.4 0 01.33-3l8.66-8.66a3 3 0 000-4.22l-18.77-18.79a3 3 0 00-4.22 0l-8.66 8.66a2.39 2.39 0 01-3 .33 82.6 82.6 0 00-26.45-11 2.41 2.41 0 01-1.88-2.35v-12.2a3 3 0 00-3-3H137zm-110.48 4.84a2.4 2.4 0 01-2.4-2.41v-29.76a2.4 2.4 0 014.8 0v29.76a2.4 2.4 0 01-2.4 2.41z"/><path d="M26.52 213.08a26.52 26.52 0 1119.64-44.3 2.38 2.38 0 01.62 1.61v32.34a2.43 2.43 0 01-.62 1.62 26.58 26.58 0 01-19.64 8.73zm0-48.23A21.71 21.71 0 1042 201.78v-30.44a21.78 21.78 0 00-15.48-6.49z"/></g></svg>