<svg width="568" height="631" fill="none" xmlns="http://www.w3.org/2000/svg"><g clip-path="url(#clip0_675_42)" fill="#fff"><path d="M120.72 135.327a9.654 9.654 0 001.698 7.205 9.732 9.732 0 006.313 3.908 9.639 9.639 0 007.257-1.667 9.594 9.594 0 003.908-6.279 9.64 9.64 0 00-1.69-7.212 9.753 9.753 0 00-13.563-2.228 9.665 9.665 0 00-3.928 6.289l.005-.016zm13.66 7.224a7.019 7.019 0 01-7.761.254 6.97 6.97 0 01-2.677-3.036 6.931 6.931 0 011.264-7.627 6.992 6.992 0 013.513-2.021 7.021 7.021 0 014.049.264 6.975 6.975 0 013.22 2.458 6.936 6.936 0 011.216 5.188 6.956 6.956 0 01-2.824 4.525v-.005zm6.007-12.831a3.944 3.944 0 01.653-5.329 16.621 16.621 0 00-4.198-2.612 3.963 3.963 0 01-1.686 2.297 3.996 3.996 0 01-5.266-.857 3.949 3.949 0 01-.863-2.712c-1.653.126-3.278.5-4.818 1.111a3.947 3.947 0 01-1.107 5.232 3.996 3.996 0 01-5.335-.631 16.531 16.531 0 00-2.618 4.184 3.982 3.982 0 012.313 1.682c.535.827.742 1.822.58 2.792a3.958 3.958 0 01-1.454 2.457 3.989 3.989 0 01-2.734.849 16.3 16.3 0 001.116 4.79 3.981 3.981 0 015.296 1.081 3.94 3.94 0 01-.685 5.337 16.227 16.227 0 004.204 2.601 3.962 3.962 0 011.689-2.303 3.996 3.996 0 015.273.87c.614.77.918 1.741.853 2.722a16.35 16.35 0 004.812-1.112 3.955 3.955 0 011.098-5.26 3.995 3.995 0 015.356.665 16.08 16.08 0 002.607-4.19 3.982 3.982 0 01-2.316-1.682 3.95 3.95 0 01.878-5.252 3.99 3.99 0 012.738-.845 16.387 16.387 0 00-1.116-4.79 4.007 4.007 0 01-5.27-1.09v-.005zm0 8.83a10.152 10.152 0 01-4.126 6.586 10.204 10.204 0 01-3.624 1.627 10.24 10.24 0 01-3.973.122 10.207 10.207 0 01-5.301-2.612 10.122 10.122 0 01-2.95-5.103 10.1 10.1 0 01.395-5.875 10.157 10.157 0 013.608-4.666 10.222 10.222 0 0111.315-.351 10.151 10.151 0 013.893 4.433 10.092 10.092 0 01.763 5.839zM27.69 135.393a11.612 11.612 0 01-6.911-1.471 11.542 11.542 0 01-4.763-5.197 11.453 11.453 0 01-.324-8.788 11.526 11.526 0 016.007-6.449l.1.217-.1-.217c1.15-.525 2.38-.857 3.64-.983a11.59 11.59 0 016.916 1.465 11.517 11.517 0 015.75 8.815 11.478 11.478 0 01-2.537 8.431 11.584 11.584 0 01-7.779 4.183v-.006zm-2.73-26.778a15.75 15.75 0 00-4.902 1.328 15.453 15.453 0 00-8.072 8.635 15.37 15.37 0 003.665 17.103 15.547 15.547 0 0011.359 4.207c2.08-.094 4.12-.605 5.997-1.501a15.498 15.498 0 004.93-3.717 15.412 15.412 0 003.078-5.339 15.233 15.233 0 00-.436-11.775 15.265 15.265 0 00-3.514-4.911 15.327 15.327 0 00-5.15-3.174 15.607 15.607 0 00-6.956-.884v.028zm7.419-.256a16.682 16.682 0 015.56 3.41 16.596 16.596 0 013.818 5.276 16.69 16.69 0 011.407 5.206 16.618 16.618 0 01-3.695 12.216 16.773 16.773 0 01-11.289 6.039 16.597 16.597 0 01-7.497-.956 16.719 16.719 0 01-9.373-8.681 16.6 16.6 0 01-.474-12.735 16.675 16.675 0 015.462-7.364 16.793 16.793 0 018.544-3.383 16.742 16.742 0 017.537.972zm-8.547-10.663a26.65 26.65 0 00-1.97.272 6.644 6.644 0 01-.576 5.289 6.693 6.693 0 01-3.014 2.752c-.668.3-1.381.488-2.11.555a6.72 6.72 0 01-3.628-.653 6.684 6.684 0 01-2.73-2.464 26.482 26.482 0 00-5.025 5.385 6.74 6.74 0 012.443 2.178 6.707 6.707 0 011.124 3.067 6.573 6.573 0 01-.385 2.984A6.673 6.673 0 015.784 120a6.714 6.714 0 01-3.405 1.357 6.73 6.73 0 01-2.206-.145 25.844 25.844 0 000 5.418c.067.65.157 1.295.268 1.94a6.44 6.44 0 011.318-.273 6.734 6.734 0 014.008.863 6.684 6.684 0 012.752 3.027 6.642 6.642 0 01-.111 5.696 6.677 6.677 0 01-2.479 2.706 26.608 26.608 0 005.426 5.001 6.69 6.69 0 013.525-3.126 6.735 6.735 0 014.72-.036 6.702 6.702 0 012.959 2.165 6.653 6.653 0 011.368 3.392 6.577 6.577 0 01-.14 2.184 26.3 26.3 0 007.391-.283 6.82 6.82 0 01-.273-1.317 6.645 6.645 0 01.854-3.976 6.692 6.692 0 013.014-2.743 6.594 6.594 0 012.105-.555 6.727 6.727 0 013.624.654 6.693 6.693 0 012.729 2.463 26.024 26.024 0 005.024-5.396 6.677 6.677 0 01-3.138-3.515 6.64 6.64 0 01-.027-4.703 6.627 6.627 0 012.172-2.944 6.676 6.676 0 013.41-1.352 6.603 6.603 0 012.233.139 26.176 26.176 0 00-.279-7.351 6.733 6.733 0 01-4.715-.281 6.687 6.687 0 01-3.357-3.309 6.566 6.566 0 01-.558-2.101 6.64 6.64 0 01.658-3.611 6.678 6.678 0 012.479-2.718 25.401 25.401 0 00-5.437-5.001 6.67 6.67 0 01-2.175 2.422 6.712 6.712 0 01-3.067 1.112 6.694 6.694 0 01-5.959-2.549 6.65 6.65 0 01-1.365-3.391 6.727 6.727 0 01.14-2.184 26.276 26.276 0 00-5.41 0m60.932 36.286a4.267 4.267 0 01-2.609-1.757 4.232 4.232 0 01-.685-3.061 36.938 36.938 0 00-3.908-.15 4.22 4.22 0 01-.923 3 4.27 4.27 0 01-5.801.785 4.231 4.231 0 01-1.694-2.645 35.163 35.163 0 00-3.724 1.189c.451.985.506 2.105.153 3.129a4.239 4.239 0 01-2.05 2.377 4.275 4.275 0 01-3.13.324 4.254 4.254 0 01-2.498-1.907 33.653 33.653 0 00-3.092 2.389 4.219 4.219 0 01.099 5.795 4.259 4.259 0 01-5.805.451 33.895 33.895 0 00-2.087 3.301 4.24 4.24 0 012.107 2.299 4.215 4.215 0 01-.04 3.111 4.242 4.242 0 01-2.166 2.244 4.267 4.267 0 01-3.123.164 32.911 32.911 0 00-.831 3.801 4.262 4.262 0 012.872 1.405 4.222 4.222 0 01-.253 5.897 4.263 4.263 0 01-2.982 1.156 33.83 33.83 0 00.525 3.856 4.272 4.272 0 013.117.393 4.24 4.24 0 011.996 2.416 4.218 4.218 0 01-.215 3.121 4.244 4.244 0 01-2.308 2.122c.558 1.178 1.116 2.34 1.809 3.462a4.263 4.263 0 015.716.927 4.215 4.215 0 01-.525 5.741 36.856 36.856 0 002.892 2.629 4.266 4.266 0 015.739-1.131 4.235 4.235 0 011.852 2.535 4.216 4.216 0 01-.407 3.108c.592.283 1.184.556 1.793.789.608.233 1.222.478 1.836.689a4.228 4.228 0 011.897-2.516 4.265 4.265 0 013.117-.517 4.25 4.25 0 012.613 1.769c.61.902.848 2.004.663 3.076 1.299.118 2.603.168 3.908.15a4.21 4.21 0 01.922-3.001 4.25 4.25 0 012.747-1.54 4.263 4.263 0 013.055.772 4.223 4.223 0 011.677 2.657 35.143 35.143 0 003.735-1.2 4.221 4.221 0 01-.123-3.111 4.247 4.247 0 012.045-2.356 4.283 4.283 0 013.11-.33 4.261 4.261 0 012.499 1.874 36.099 36.099 0 003.092-2.379 4.225 4.225 0 01-1.211-2.882 4.228 4.228 0 011.105-2.924 4.27 4.27 0 015.817-.451 36.584 36.584 0 002.094-3.295 4.24 4.24 0 01-2.139-2.297 4.215 4.215 0 01.032-3.131 4.237 4.237 0 012.185-2.253 4.27 4.27 0 013.143-.143c.346-1.251.626-2.52.837-3.801a4.256 4.256 0 01-2.816-1.42 4.223 4.223 0 01-1.054-2.962 4.218 4.218 0 011.29-2.867 4.256 4.256 0 012.921-1.192 34.42 34.42 0 00-.525-3.862 4.27 4.27 0 01-3.145-.368 4.234 4.234 0 01-2.018-2.428 4.216 4.216 0 01.227-3.144 4.245 4.245 0 012.346-2.117 33.824 33.824 0 00-1.815-3.456 4.264 4.264 0 01-5.696-.943 4.216 4.216 0 01.51-5.726 34.874 34.874 0 00-2.892-2.622 4.274 4.274 0 01-5.736 1.123 4.225 4.225 0 01-1.46-5.636 21.195 21.195 0 00-1.78-.789c-.609-.233-1.217-.478-1.837-.689a4.236 4.236 0 01-1.905 2.468 4.265 4.265 0 01-3.085.505zm4.521 52.49a21.368 21.368 0 01-16.25 1.962l.832-2.99a18.301 18.301 0 0013.883-1.667l1.535 2.695zm-30.586-12.397l-2.718 1.539a21.154 21.154 0 01-1.977-16.181l3.01.839a18.047 18.047 0 001.685 13.803zm17.39 1.745a11.61 11.61 0 01-6.012-3.015 11.52 11.52 0 01-3.314-5.831 11.488 11.488 0 01.5-6.682 11.55 11.55 0 014.147-5.278 11.628 11.628 0 0112.879-.296 11.557 11.557 0 014.387 5.081 11.49 11.49 0 01.81 6.652 11.538 11.538 0 01-4.753 7.441 11.64 11.64 0 01-8.644 1.928zm26.092-6.318l-3.01-.834a18.062 18.062 0 00-1.674-13.814l2.713-1.534a21.104 21.104 0 011.971 16.182zm-19.03-29.024l-.838 3.001a18.301 18.301 0 00-13.884 1.667l-1.535-2.712a21.4 21.4 0 0116.256-1.956zm60.2-73.128a6.913 6.913 0 011.94-4.741A6.976 6.976 0 01150 60.47a60.63 60.63 0 00-1.05-6.279 6.977 6.977 0 01-5.12-.48 6.928 6.928 0 01-3.388-3.852 6.896 6.896 0 01.201-5.116 6.937 6.937 0 013.68-3.577 62.381 62.381 0 00-3.138-5.557 6.978 6.978 0 01-9.503-1.167 6.9 6.9 0 01.672-9.508 55.336 55.336 0 00-4.857-4.134 6.96 6.96 0 01-4.238 2.944 6.989 6.989 0 01-5.109-.776 6.935 6.935 0 01-3.164-4.069 6.898 6.898 0 01.526-5.117 52.596 52.596 0 00-2.948-1.2 66.619 66.619 0 00-3.02-1.029 6.97 6.97 0 01-2.994 4.165 7.026 7.026 0 01-5.045 1.003 6.954 6.954 0 01-4.355-2.737 6.894 6.894 0 01-1.266-4.97 57.4 57.4 0 00-6.409-.061 6.9 6.9 0 01-1.36 4.952 6.981 6.981 0 01-9.45 1.563 6.923 6.923 0 01-2.895-4.248 60.005 60.005 0 00-5.99 2.15 6.895 6.895 0 01.39 5.097 6.93 6.93 0 01-3.23 3.973 6.984 6.984 0 01-5.088.685 6.954 6.954 0 01-4.174-2.975 62.3 62.3 0 00-4.93 4.056 6.91 6.91 0 01.458 9.505 6.985 6.985 0 01-9.507.998c-1.116 1.772-2.233 3.595-3.232 5.507a6.934 6.934 0 013.6 3.645 6.89 6.89 0 01.104 5.111 6.93 6.93 0 01-3.451 3.786 6.979 6.979 0 01-5.12.394 69.09 69.09 0 00-1.201 6.263 6.968 6.968 0 014.648 2.19 6.906 6.906 0 011.867 4.77 6.907 6.907 0 01-1.936 4.742 6.97 6.97 0 01-4.68 2.123 60.651 60.651 0 001.044 6.268 6.996 6.996 0 015.118.495 6.945 6.945 0 013.383 3.855 6.906 6.906 0 01-.195 5.115 6.952 6.952 0 01-3.667 3.588 59.697 59.697 0 003.127 5.557 6.987 6.987 0 019.332 1.303 6.909 6.909 0 01-.523 9.366 63.393 63.393 0 004.879 4.14 6.978 6.978 0 019.31-2.116 6.927 6.927 0 013.15 4.038 6.897 6.897 0 01-.492 5.091 64.44 64.44 0 002.965 1.189c1.016.383 2.004.728 3.014 1.039a6.934 6.934 0 012.997-4.158 6.988 6.988 0 019.394 1.752 6.911 6.911 0 011.28 4.957c2.123.129 4.251.148 6.376.055a6.912 6.912 0 011.377-4.927 6.993 6.993 0 019.42-1.576 6.937 6.937 0 012.919 4.208 67.593 67.593 0 006.029-2.117 6.89 6.89 0 01-.438-5.121 6.929 6.929 0 013.228-4.01 6.977 6.977 0 019.301 2.318 59.325 59.325 0 004.935-4.039 6.902 6.902 0 01-.448-9.477 6.98 6.98 0 019.475-1.026 59.083 59.083 0 003.232-5.507 6.934 6.934 0 01-3.531-3.65 6.891 6.891 0 01-.085-5.066 6.932 6.932 0 013.407-3.765 6.981 6.981 0 015.072-.444 57.436 57.436 0 001.2-6.263 6.963 6.963 0 01-4.65-2.199 6.902 6.902 0 01-1.854-4.78zM92.155 108.62a40.975 40.975 0 01-22.688-6.85 40.692 40.692 0 01-15.04-18.244 40.475 40.475 0 01-2.323-23.486 40.591 40.591 0 0111.178-20.813 40.894 40.894 0 0120.91-11.123 41.012 41.012 0 0123.594 2.316 40.796 40.796 0 0118.325 14.973 40.52 40.52 0 016.879 22.585 40.552 40.552 0 01-11.962 28.739 40.93 40.93 0 01-28.873 11.903z"/></g><path d="M308 526.068c-97.059 0-202.451-57.176-239.216-186.757M194.857 51.924C226.627 36.392 260.941 25.068 308 25.068" stroke="#fff" stroke-width="3"/><ellipse cx="67.804" cy="336.892" rx="9.804" ry="10" fill="#fff"/><ellipse cx="191.333" cy="50.892" rx="9.804" ry="10" fill="#fff"/><path d="M308 25.068c183.153 0 296.424 188.324 231.111 347.824m-121.081 127.5c-22.107 16-88.426 25.676-110.03 25.676" stroke="#2C3B97" stroke-width="3"/><ellipse cx="538.106" cy="373.892" rx="10.048" ry="10" fill="#2C3B97"/><ellipse cx="415.518" cy="501.892" rx="10.048" ry="10" fill="#2C3B97"/><path d="M559.701 568.418c0 9.389-7.611 17-17 17s-17-7.611-17-17 7.611-17 17-17 17 7.611 17 17z" fill="#2C3B97"/><path d="M512.231 551.166l16.931 8.511-1.585 3.154-16.931-8.511 1.585-3.154zm-43.171 60.259c-10.432-.589-18.411-9.523-17.822-19.954.588-10.431 9.522-18.411 19.953-17.822 10.432.589 18.411 9.522 17.822 19.954-.588 10.431-9.522 18.41-19.953 17.822z" fill="#2C3B97"/><path d="M493.525 558.497l-12.407 19.781-2.988-1.875 12.406-19.78 2.989 1.874z" fill="#2C3B97"/><path d="M498.157 560.68c-7.807-.44-13.779-7.135-13.338-14.952.441-7.818 7.128-13.798 14.936-13.358 7.808.441 13.779 7.135 13.338 14.953-.441 7.818-7.128 13.798-14.936 13.357zm13.24-87.782c9.216-1.793 18.14 4.225 19.933 13.441 1.792 9.217-4.225 18.141-13.442 19.933-9.216 1.793-18.14-4.225-19.933-13.441-1.792-9.216 4.226-18.14 13.442-19.933z" fill="#2C3B97"/><path d="M500.876 532.848l7.654-27.705 3.434.949-7.654 27.705-3.434-.949zm-45.358-9.009c1.046-6.345 7.039-10.641 13.384-9.594 6.345 1.046 10.641 7.039 9.594 13.384-1.046 6.345-7.039 10.641-13.384 9.594-6.345-1.046-10.641-7.039-9.594-13.384z" fill="#2C3B97"/><path d="M487.427 541.122l-12.314-8.02 1.939-2.977 12.314 8.02-1.939 2.977zm34.783 72.534c-.305 6.424-5.76 11.383-12.184 11.078-6.424-.306-11.384-5.761-11.078-12.185.305-6.423 5.76-11.383 12.184-11.078 6.424.306 11.384 5.761 11.078 12.185z" fill="#2C3B97"/><path d="M487.396 599.344l14.141 7.156-1.609 3.18-14.141-7.157 1.609-3.179z" fill="#2C3B97"/><defs><clipPath id="clip0_675_42"><path fill="#fff" transform="translate(0 8.892)" d="M0 0h150v191H0z"/></clipPath></defs></svg>